<svg width="19" height="10" viewBox="0 0 19 10" fill="none" xmlns="http://www.w3.org/2000/svg">
<g opacity="0.75">
<path d="M16.1294 4.5853C16.0603 4.3801 15.8809 3.94637 15.4453 3.61045C15.3908 3.56839 14.7183 3.06425 13.9996 3.20029C13.4482 3.30467 13.2476 3.36268 13.2476 3.36268C13.0226 3.43058 12.8635 3.4896 12.786 3.41487C12.7093 3.34064 12.7691 3.18711 12.7863 3.06323C12.8461 2.63407 12.4429 2.24114 12.2154 2.01947C11.5492 1.37016 10.5357 1.39246 10.1058 1.40411C8.71285 1.44237 7.82996 2.2262 7.73385 2.31436C7.32797 2.68652 7.43997 2.85246 7.04645 3.0336C6.44205 3.31176 5.933 3.03232 5.17346 3.35812C5.00394 3.43083 4.6465 3.6145 4.53551 3.87316C4.45302 4.06596 4.51911 4.22328 4.57259 4.34995C4.62178 4.46699 4.66088 4.55946 4.57662 4.64053C4.47421 4.73933 4.27518 4.73553 3.99946 4.73021C3.84054 4.72717 3.66043 4.72362 3.45838 4.73857C2.64283 4.79912 2.24881 5.67719 1.42494 5.6326C1.27637 5.6245 1.15957 5.587 1.09954 5.56496C0.809696 6.33106 0.90959 6.79417 1.03597 7.06651C1.97839 9.09399 8.06431 8.39148 10.6847 8.08873C11.7054 7.97093 12.2452 7.85313 13.3508 7.83362C14.8719 7.80677 15.5179 7.77865 16.8102 7.72215C17.5539 7.68973 17.8551 7.66921 18.1041 7.4255C18.6784 6.86409 18.5798 5.50568 17.8735 4.86929C17.4828 4.5174 16.9863 4.45838 16.953 4.45483C16.5721 4.41506 16.2724 4.52273 16.1294 4.5853Z" fill="#F2F7F8"/>
<path d="M14.7031 5.41975C15.0765 5.3934 15.804 5.34197 16.0802 4.80591C16.3526 4.27718 16.0108 3.61724 15.7089 3.28384C15.0924 2.60337 14.1466 2.7379 14.0046 2.76045C13.3674 2.86102 12.9623 3.24128 12.819 3.38999C12.8248 3.13691 12.7999 2.71484 12.593 2.25731C12.1917 1.3696 11.4026 1.00708 11.1587 0.899665C10.043 0.407932 9.00468 0.788703 8.70222 0.916133C8.40254 1.04255 7.82538 1.29538 7.43287 1.92594C7.16775 2.35206 7.09939 2.76931 7.07921 3.00846C6.90919 2.91776 6.40973 2.68089 5.79675 2.80655C5.10405 2.94842 4.53774 3.49766 4.30743 4.22829C3.95654 4.15077 3.26814 4.0545 2.50759 4.33495C2.26921 4.42286 1.74553 4.6235 1.35579 5.13474C1.09673 5.47472 0.873733 5.98166 1.00718 6.10174C1.11766 6.20105 1.37875 5.94999 1.93674 5.71007C2.28258 5.56162 3.26107 5.14133 4.17525 5.44635C4.61114 5.59177 4.57356 5.74909 4.99356 5.84688C5.74402 6.02169 6.40745 5.64598 6.57066 5.55352C7.39125 5.08889 7.68639 4.29872 7.76282 4.06995C7.93385 4.18826 8.18359 4.34154 8.50471 4.4753C9.56367 4.91662 10.5159 4.77754 10.8126 4.72357C11.5479 4.59006 12.0913 4.28124 12.4116 4.06134C12.5017 4.26477 12.6974 4.63111 13.0877 4.93891C13.7188 5.43774 14.4203 5.43976 14.7031 5.41975Z" fill="white"/>
<path d="M7.26786 6.64496C7.50447 6.81394 7.78296 6.97481 8.10635 7.10275C9.69001 7.73001 11.2298 7.12656 11.7519 6.89323C12.1379 7.06931 12.7103 7.25197 13.351 7.12504C13.6789 7.06019 13.7248 6.97354 14.0765 6.9097C14.7563 6.78658 15.7673 7.06905 15.7673 7.06905C17.1235 7.4749 18.1537 7.03333 18.2062 7.25981C18.2574 7.48073 17.3008 7.99703 16.3337 8.20021C15.0741 8.4647 13.9461 8.27698 13.1489 8.04188C12.2726 8.57946 11.4906 8.83357 10.9604 8.96277C9.81286 9.24246 9.37495 9.05118 9.16356 8.91311C9.0059 8.81025 9.02658 8.77124 8.87094 8.68308C8.39014 8.41074 7.86722 8.59948 7.14778 8.76187C7.14778 8.76187 6.43239 8.92223 5.7016 8.99595C5.04675 9.06207 3.98753 9.16924 2.91822 8.66357C2.61249 8.51892 2.15313 8.25215 1.68848 7.75256C1.91147 7.48706 2.29465 7.11415 2.84961 6.97633C3.91463 6.71184 4.64138 7.70696 5.80049 7.39029C6.49167 7.2013 6.98735 6.86562 7.26786 6.64496Z" fill="#CEEAF0"/>
</g>
</svg>
