<svg width="20" height="8" viewBox="0 0 20 8" fill="none" xmlns="http://www.w3.org/2000/svg">
<g opacity="0.5">
<path d="M10.7849 1.5496C11.2967 1.27285 11.8165 1.02137 12.3553 0.800358C11.9488 0.709771 11.619 0.724955 11.5827 0.727139C11.5061 0.731716 10.4948 0.804831 9.92066 1.46713C9.65977 1.76812 9.5607 2.10758 9.4718 2.3105C9.93156 2.11903 10.3534 1.78299 10.7849 1.5496Z" fill="#F2F7F8"/>
<path d="M19.1055 3.93836C18.874 3.7809 18.6297 3.74418 18.5259 3.72962C17.9366 3.64694 17.6329 3.96821 17.3937 3.82603C17.2147 3.71964 17.3603 3.52869 17.1807 3.18121C17.1609 3.14294 16.9232 2.70092 16.3739 2.52328C15.9189 2.37611 15.4955 2.48979 15.3246 2.53566C14.6784 2.70913 14.4818 3.08459 14.2564 3.00003C14.0567 2.92515 14.1587 2.61605 13.9542 2.11049C13.9122 2.00648 13.7408 1.60804 13.378 1.29114C13.1569 1.09811 12.9045 0.970395 12.6602 0.886047C11.6984 1.25828 10.7932 1.73046 9.94479 2.27221C9.00626 2.87148 7.90058 2.52661 6.81537 2.61584C6.06712 2.67741 5.43234 3.01012 4.84723 3.394C4.57774 3.57081 4.43918 3.75396 4.22432 3.9707C4.1703 4.0251 4.07826 4.13441 3.98257 4.15583C3.76638 4.2044 3.42616 4.06087 3.1585 3.94314C3.22027 4.10508 3.33617 4.18828 3.30711 4.2174C3.2744 4.25016 3.11901 4.15344 2.90161 4.08677C2.64 4.00658 2.41811 4.01085 2.28004 4.01137C2.17418 4.01178 1.7407 4.02146 1.31534 4.24215C1.30626 4.24683 1.29281 4.25391 1.27562 4.26316C1.19035 4.30944 0.430946 4.73815 0.434337 5.4148C0.436275 5.80835 0.695828 6.18131 1.0289 6.38339C1.41163 6.61563 1.63412 6.46618 2.3951 6.7266C2.84723 6.88136 2.7949 6.94303 3.21021 7.07637C3.82137 7.27252 4.35392 7.27356 4.66531 7.27169C5.05616 7.2694 5.50744 7.2668 6.03781 7.09634C6.62631 6.90726 6.9721 6.62093 7.41829 6.73794C7.53566 6.76872 7.54111 6.79972 7.72702 6.84797C7.82452 6.87325 8.15396 6.95239 8.58695 6.92411C9.30663 6.8771 9.47316 6.58817 9.9615 6.54761C10.526 6.50071 10.8179 6.90414 11.3558 7.09415C13.252 7.76383 15.9427 7.39108 16.7219 6.29748C16.873 6.08531 16.9002 5.91911 17.1504 5.75656C17.7571 5.36259 18.4444 5.78079 19.0815 5.38131C19.1425 5.34304 19.5124 5.10331 19.5461 4.71849C19.585 4.27398 19.1468 3.96633 19.1055 3.93836Z" fill="#F2F7F8"/>
<path d="M19.1197 5.7571C18.5552 5.99568 17.4844 5.62782 17.2412 5.8013C17.1731 5.84987 17.1197 5.90562 17.1197 5.90562C17.0164 6.02096 17.0141 6.12798 16.7262 6.40203C16.2518 6.85351 15.7045 7.06391 15.6823 7.03718C15.6498 6.99818 16.2743 6.73869 16.8038 6.12257C17.0313 5.85798 17.8004 4.96313 17.4448 4.00619C17.2299 3.42803 16.7165 3.1286 16.6208 3.07463C15.7234 2.56906 14.7264 2.90832 14.6572 2.93318C14.2555 3.0767 13.9966 3.29813 13.8618 3.43261C13.7795 3.24613 13.5658 2.83864 13.07 2.51456C12.5742 2.19038 12.0728 2.13037 11.8003 2.10104C10.8644 2.00026 10.135 2.32621 9.92525 2.42304C9.32729 2.69917 9.23416 2.95013 8.92664 3.10791C8.85022 3.14712 8.75272 3.18341 8.63366 3.21025C8.51351 3.23729 8.4108 3.24342 8.34273 3.24436C8.07228 2.81784 7.5344 2.64301 7.14101 2.78279C6.77694 2.91207 6.66478 3.26537 6.64989 3.31519C6.54488 3.25798 6.35424 3.17187 6.1022 3.15544C5.7334 3.13131 5.461 3.27098 5.3004 3.35336C4.64892 3.68742 4.41225 4.29698 4.34527 4.49553C4.19085 4.41742 3.97393 4.33931 3.76004 4.39277C3.49625 4.45871 3.45567 4.66994 3.25692 4.6844C3.00657 4.7025 2.90193 4.37956 2.58848 4.2116C2.36163 4.09012 1.97527 4.02293 1.27557 4.26329C1.47106 4.16396 1.8292 4.01534 2.28 4.01149C2.42085 4.01025 2.64419 4.00005 2.90156 4.0869C2.96818 4.10936 3.02159 4.13287 3.05865 4.15065C3.03891 4.08825 3.01675 3.98768 3.03285 3.86558C3.03952 3.81493 3.06326 3.65185 3.19661 3.50375C3.39173 3.28711 3.76222 3.16833 4.03534 3.2532C4.23131 3.31415 4.33062 3.46547 4.37435 3.43999C4.41783 3.41461 4.29307 3.28024 4.30676 3.0948C4.32626 2.82938 4.61524 2.65549 4.65546 2.63198C4.72958 2.58872 4.97424 2.44592 5.25511 2.52268C5.43254 2.57114 5.5344 2.68274 5.57352 2.7311C5.56735 2.62876 5.56637 2.34629 5.7799 2.0688C5.82096 2.01534 6.11649 1.64509 6.67072 1.59371C7.09136 1.55471 7.39948 1.72372 7.48462 1.77187C7.74018 1.91664 7.87026 2.10396 7.92621 2.19829C7.95552 2.14462 8.03583 2.01763 8.20466 1.94431C8.49219 1.8193 8.77755 1.95003 8.81025 1.96573C9.02571 2.06911 9.10359 2.24343 9.12333 2.29272C9.16584 2.07723 9.29774 1.59059 9.76695 1.16262C10.2899 0.685653 11.1307 0.372913 11.9678 0.51883C12.7238 0.650603 13.1778 1.09543 13.3778 1.29137C13.75 1.65601 13.9136 2.01399 13.9541 2.11072C14.0602 2.36386 14.0984 2.58841 14.1126 2.74878C14.3177 2.61378 14.7095 2.39683 15.2587 2.32465C15.4907 2.29418 15.9055 2.24415 16.3787 2.40609C16.8787 2.57707 17.1487 2.88357 17.2663 3.02065C17.5302 3.3285 17.6274 3.63323 17.667 3.80733C17.8153 3.75502 18.1381 3.66256 18.5259 3.72985C18.9818 3.809 19.5199 4.10749 19.6426 4.61857C19.7477 5.05663 19.5308 5.58341 19.1197 5.7571Z" fill="white"/>
<path d="M18.6978 4.22505C18.2123 3.98667 17.6684 4.13779 17.4987 4.1849C16.9751 4.3304 16.9985 4.53987 16.5947 4.58948C16.1278 4.64689 16.0223 4.37596 15.5451 4.42817C15.1063 4.47611 15.0781 4.72208 14.6137 4.77887C14.2913 4.81829 14.2437 4.70731 13.6645 4.61922C13.4247 4.58272 12.8966 4.50627 12.2902 4.60352C12.0474 4.64252 11.6827 4.72676 11.2704 4.93071C11.1336 5.11907 10.8276 5.55193 10.211 5.74871C9.74165 5.89847 9.19772 5.93893 8.70441 5.91095C8.35632 5.89119 6.88378 5.72978 6.72875 5.24366C6.26269 5.56285 5.77847 5.89057 5.18815 6.00227C4.89468 6.05781 4.26754 6.16961 3.62828 5.89015C3.32295 5.75671 3.11887 5.57897 2.99811 5.45438C2.82867 5.52395 2.51873 5.62328 2.1377 5.58875C1.2275 5.50607 0.784097 4.73768 0.750669 4.67736C0.651716 4.79686 0.466773 5.05542 0.434556 5.41485C0.426077 5.50877 0.381143 6.15588 0.983699 6.60008C1.56409 7.02796 2.27068 6.91782 2.35837 6.90274C2.57142 7.06415 3.45654 7.69701 4.79064 7.68973C6.29648 7.68152 7.23829 6.86394 7.40482 6.71418C7.47919 6.7798 7.9857 7.21204 8.77381 7.17512C9.52631 7.13986 9.96608 6.70357 10.038 6.62983C10.3274 6.78188 10.7725 6.99155 11.3483 7.16722C11.9374 7.34694 14.1193 8.01235 16.1059 7.08433C16.4615 6.91823 17.0079 6.60892 17.5366 6.04033C18.2823 6.2602 19.0164 6.01568 19.2523 5.58396C19.4288 5.26103 19.3144 4.85594 19.1275 4.59374C19.0767 4.52302 18.9488 4.34829 18.6978 4.22505Z" fill="#CEEAF0"/>
<path d="M16.7603 5.97812C16.7359 6.02804 16.663 6.15887 16.3247 6.41712C16.0679 6.61327 15.7565 6.85102 15.2702 7.01493C15.0216 7.09866 13.9542 7.45841 13.3713 7.05185C13.0941 6.85851 13.0671 6.59008 12.7904 6.56106C12.5413 6.53495 12.4128 6.74088 12.1627 6.68982C11.9595 6.64832 11.8265 6.46787 11.7785 6.33579C11.6485 5.9778 11.9891 5.55108 12.382 5.41005C12.4526 5.38467 12.592 5.33038 12.7742 5.35066C12.9957 5.3752 13.1383 5.49159 13.1871 5.53537C13.1899 5.48888 13.2112 5.22013 13.4698 5.04281C13.8239 4.79996 14.2763 4.96636 14.2969 4.97427C14.446 5.03168 14.543 5.11665 14.5968 5.1724C14.6436 5.08618 14.8224 4.78457 15.2206 4.64822C15.7138 4.47931 16.3085 4.64447 16.6178 5.01119C16.8592 5.29751 16.9053 5.68108 16.7603 5.97812Z" fill="white"/>
<path d="M16.7236 6.0508C16.7333 6.0586 16.4798 6.37727 16.1128 6.63967C15.2158 7.28117 13.7717 7.54368 13.2864 7.10707C13.142 6.97717 13.125 6.82355 12.9054 6.74357C12.641 6.64727 12.4386 6.78726 12.1624 6.6898C11.9809 6.62563 11.8692 6.4948 11.802 6.39048C11.8838 6.43416 12.0324 6.49927 12.2294 6.50967C12.6366 6.53109 12.9159 6.30104 12.9658 6.2585C13.194 6.42085 13.6372 6.68741 14.2706 6.78746C14.5733 6.83531 15.4028 6.92464 16.1069 6.53172C16.4689 6.32985 16.7143 6.04331 16.7236 6.0508Z" fill="#CEEAF0"/>
</g>
</svg>
