<svg width="91" height="163" viewBox="0 0 91 163" fill="none" xmlns="http://www.w3.org/2000/svg">
<path d="M24.7233 138.13C29.0174 135.019 29.6603 128.97 34.8323 126.637C35.0642 131.466 28.0281 141.075 22.4631 144.016C20.9629 141.342 23.1508 140.019 24.7233 138.13Z" fill="#0C3F4D"/>
<path d="M78.1429 30.2588C74.5494 34.1581 75.1164 40.2141 70.5085 43.5246C69.3253 38.8368 74.3205 28.0256 79.1933 24.0411C81.1931 26.3659 79.3103 28.0951 78.1429 30.2588Z" fill="#0C3F4D"/>
<path d="M84.5172 15.9685C87.1704 11.3774 85.2919 5.59218 89.0638 1.35362C91.2441 5.66895 88.7356 17.3111 84.8528 22.2653C82.3927 20.4345 83.8516 18.3352 84.5172 15.9685Z" fill="#0C3F4D"/>
<path d="M67.141 55.6955C64.4877 60.2865 66.3659 66.0718 62.5938 70.3102C60.4137 65.9948 62.9226 54.3527 66.8057 49.3987C69.2656 51.2296 67.8067 53.3289 67.141 55.6955Z" fill="#0C3F4D"/>
<path d="M40.7156 116.228C44.1851 112.218 43.4287 106.183 47.9307 102.729C49.2601 107.378 44.6061 118.34 39.8605 122.475C37.7888 120.214 39.6166 118.427 40.7156 116.228Z" fill="#0C3F4D"/>
<path d="M54.1743 89.6301C57.0772 85.1927 55.5215 79.3125 59.5219 75.2889C61.4603 79.7182 58.3121 91.2039 54.1613 95.9358C51.8062 93.9718 53.3789 91.9563 54.1743 89.6301Z" fill="#0C3F4D"/>
<path d="M5.07894 156.05C10.0193 154.319 12.7008 148.971 18.1594 148.175C16.6881 152.636 7.02387 159.585 1.00052 160.834C0.582891 158.01 3.00868 157.368 5.07894 156.05Z" fill="#0C3F4D"/>
</svg>
