<svg width="309" height="316" viewBox="0 0 309 316" fill="none" xmlns="http://www.w3.org/2000/svg">
<path d="M45.2264 183.308C48.4867 178.517 52.5049 174.495 57.2266 170.882C50.7835 167.27 45.7446 162.324 41.7167 156.372C40.5398 154.633 39.2761 154.323 37.5727 154.076C31.8363 153.245 27.7141 149.766 24.5391 145.004C20.8148 139.417 19.2004 133.146 19.0139 126.356C18.8828 121.582 19.6631 117.124 21.955 112.997C22.6853 111.682 23.7103 110.546 24.5275 109.278C24.9667 108.597 25.4171 107.845 25.5786 107.062C26.6308 101.96 27.1967 96.7065 28.7126 91.7637C30.448 86.1051 32.599 80.4912 35.3069 75.2695C38.7077 68.7119 42.9267 62.601 48.3425 57.5872C52.0941 54.114 55.8836 50.6131 60.0234 47.6829C64.0983 44.7986 68.6363 42.6182 73.2138 40.1347C73.9482 40.4034 74.4152 40.7518 74.936 40.9137C76.5809 41.4252 76.8056 42.459 76.3958 44.0794C75.8797 46.1198 75.5917 48.2271 75.283 50.318C74.784 53.698 76.6017 57.5174 79.4667 58.9686C83.0517 60.7844 86.5543 60.0251 89.7154 57.9564C92.2629 56.2893 94.5462 54.1802 96.9019 52.2095C97.6184 51.61 98.1681 51.515 98.9493 52.0803C100.08 52.8986 101.27 53.6398 102.483 54.3223C105.44 55.9861 108.526 57.2759 111.981 56.7401C117.253 55.9224 120.904 52.2662 119.626 46.5457C118.979 43.6522 118.067 40.8166 117.155 37.9964C116.849 37.0512 116.936 36.4692 117.753 36C120.992 36.6894 124.302 37.1378 127.451 38.1327C130.948 39.2374 134.402 40.6201 137.692 42.2735C144.293 45.5911 150.219 49.8959 155.515 55.2697C160.78 60.6116 165.014 66.6703 168.776 73.1472C169.618 74.5957 170.176 76.2208 170.738 77.9271C170.102 77.8817 169.592 77.6763 169.085 77.4658C164.162 75.4222 159.346 73.0178 154.293 71.4128C145.296 68.5547 136.029 66.8668 126.61 66.4673C116.589 66.0423 106.583 66.4403 96.7526 68.7022C90.5082 70.1389 84.2668 71.6801 78.1552 73.6192C72.9379 75.2745 67.738 77.1993 62.8323 79.6541C54.3583 83.8944 46.4001 89.0906 39.405 95.7032C37.0807 97.9004 34.8952 100.264 32.7484 102.651C31.7655 103.743 32.0388 105.315 32.9852 106.04C33.6378 106.54 35.007 106.083 36.045 105.957C36.3146 105.924 36.5449 105.529 36.7902 105.297C39.601 102.638 42.3558 99.9124 45.2333 97.3338C50.9153 92.2418 57.2836 88.1799 64.0036 84.795C73.0814 80.2226 82.5817 76.8477 92.5022 74.7428C102.425 72.6372 112.378 71.1679 122.553 71.4931C130.196 71.7374 137.741 72.5156 145.211 74.262C152.903 76.0605 160.377 78.455 167.357 82.3128C170.29 83.9342 173.132 85.7104 175.135 88.6071C178.604 93.6213 179.699 99.4033 179.937 105.36C180.238 112.857 179.223 120.114 175.379 126.719C174.18 128.779 175.131 130.399 177.455 130.666C174.416 141.131 169.442 150.449 162.059 158.594C160.913 159.489 159.853 160.207 160.289 161.765C160.672 163.13 161.558 163.889 162.982 163.805C169.184 163.437 175.392 163.159 181.581 162.63C183.563 162.461 185.491 161.622 187.559 161.075C188.235 160.812 188.794 160.562 189.454 160.302C189.802 160.206 190.051 160.12 190.393 160.028C190.547 160.005 190.607 159.989 190.775 159.962C191.143 159.833 191.405 159.716 191.754 159.575C191.929 159.466 192.016 159.382 192.186 159.288C192.406 159.188 192.544 159.098 192.759 158.987C192.837 158.966 192.985 158.901 193.089 158.967C193.335 159.342 193.503 159.641 193.615 159.962C195.839 166.327 197.978 172.726 200.316 179.047C201.19 181.41 202.521 183.591 203.641 185.851C203.638 185.846 203.63 185.84 203.649 185.968C204.429 187.741 205.191 189.386 206 191.13C205.866 191.502 205.745 191.912 205.496 192.03C203.94 192.767 202.375 193.493 200.775 194.118C198.982 194.817 197.15 195.405 195.452 196C194.64 194.106 194.217 192.215 193.157 190.86C191.684 188.978 189.907 187.223 187.953 185.902C183.649 182.991 179.258 180.177 174.703 177.72C170.897 175.667 166.938 173.645 162.814 172.566C157.046 171.058 151.012 171.323 145.149 172.288C139.16 173.273 133.217 174.646 127.319 176.127C117.983 178.473 108.709 181.086 99.3918 183.518C93.5064 185.054 87.5627 186.357 81.7044 187.994C79.625 188.574 77.9909 188.527 76.1222 187.286C73.3786 185.464 70.4367 183.95 67.5188 182.43C65.8251 181.547 64.4676 181.969 63.7689 183.303C63.0264 184.721 63.4147 185.69 65.2379 186.888C66.9849 188.035 68.7434 189.164 70.4968 190.301C70.4842 190.509 70.4715 190.716 70.4589 190.924C66.4853 191.434 62.5208 192.068 58.5328 192.378C57.3231 192.472 55.8327 191.974 54.8431 191.221C51.5465 188.712 48.4188 185.964 45.2264 183.308ZM107.833 86.9621C98.9422 88.1814 90.159 90.0113 81.6576 92.9526C76.0596 94.8894 70.625 97.3587 65.184 99.753C58.0581 102.889 51.8816 107.524 46.7023 113.456C44.6967 115.753 42.6732 118.33 42.6603 121.722C42.6498 124.525 42.7602 127.352 43.1122 130.127C43.9449 136.694 46.3722 142.654 49.5878 148.366C52.6282 153.767 56.4526 158.433 61.2582 162.074C71.0337 169.481 82.2635 173.137 94.1958 173.958C104.819 174.689 115.394 173.757 125.767 170.799C135.568 168.005 144.952 164.421 152.557 157.135C155.513 154.302 158.49 151.366 160.849 148.017C165.691 141.142 168.978 133.484 170.273 124.959C171.565 116.454 171.383 108.034 169.347 99.6932C168.542 96.3915 166.829 93.6483 163.514 92.5421C158.749 90.9523 153.961 89.4246 149.14 88.032C142.386 86.0814 135.452 85.2492 128.469 85.4859C121.68 85.716 114.905 86.4027 107.833 86.9621Z" fill="#1292AB"/>
<path d="M174.832 216C174.635 219.368 174.572 222.752 174.187 226.096C173.985 227.848 174.363 228.561 175.934 229.453C180.624 232.118 184.737 235.624 188.202 239.913C191.625 244.148 194.555 248.672 196.317 253.937C196.44 254.305 196.693 254.626 196.881 255.201C196.863 255.574 196.849 255.715 196.831 255.87C196.827 255.885 196.797 255.879 196.677 255.849C193.477 257.731 190.372 259.601 187.336 261.583C186.519 262.116 185.832 262.926 185.223 263.722C184.38 264.825 184.138 266.126 185.286 267.128C186.382 268.084 187.629 267.946 188.82 267.072C191.627 265.011 194.365 262.823 197.301 260.978C203.176 257.286 209.302 257.488 213.937 261.986C214.063 262.198 214.154 262.335 214.27 262.604C214.542 264.497 214.789 266.258 215 268.145C214.844 269.17 214.97 270.219 214.561 270.942C212.744 274.152 211.01 277.461 208.81 280.38C204.22 286.466 198.499 291.364 192.338 295.632C189.269 297.757 185.978 299.714 182.533 301.031C178.165 302.7 173.73 301.974 170.952 298.053C169.083 295.415 167.455 292.592 165.73 289.845C162.411 284.558 159.318 279.098 155.724 274.022C151.927 268.661 146.996 264.529 140.97 262.003C138.886 261.129 136.742 260.409 134.214 259.466C135.469 256.636 136.646 253.685 138.073 250.87C138.974 249.092 139.086 247.368 137.902 246.496C136.685 245.598 134.727 246.083 133.748 247.805C132.653 249.732 131.625 251.747 130.907 253.848C128.704 260.298 127.053 266.954 123.798 272.994C121.007 278.171 117.374 282.622 112.554 285.712C104.608 290.806 95.7701 292.702 86.4709 292.382C84.6845 292.321 83.2362 293.494 83.1291 295.077C83.0371 296.436 84.5186 297.763 86.2255 297.772C87.0481 297.777 87.8714 297.64 88.6945 297.569C89.4505 297.504 90.0688 297.631 89.9678 298.646C89.6039 302.307 88.2965 305.726 85.442 307.783C77.2106 313.717 69.059 310.974 63.2351 303.376C59.7783 298.867 57.9415 293.476 56.5626 287.913C55.5187 283.701 54.7017 279.465 55.1049 275.113C55.452 271.367 56.3008 267.734 59.8594 265.753C61.8592 264.639 64.0279 263.858 66.0681 262.817C69.4403 261.096 70.5463 258.075 69.2915 254.446C68.5421 252.279 67.8655 250.085 67.1669 247.899C66.0558 244.423 66.0643 244.434 69.2484 243.115C74.1256 241.095 78.9955 239.055 83.8728 237.022C85.5808 240.309 87.959 242.107 91.6387 242.76C92.8918 242.983 94.1709 243.056 95.4404 243.169C101.466 243.706 107.477 244.294 113.478 242.75C116.804 241.894 120.188 238.299 120.809 234.791C121.48 231.001 121.197 227.372 119.412 223.707C120.609 223.562 121.637 223.385 122.671 223.323C125.607 223.145 128.557 223.137 131.48 222.838C136.881 222.286 142.278 221.659 147.656 220.905C152.98 220.158 158.291 219.284 163.586 218.34C167.353 217.668 171.085 216.787 174.832 216Z" fill="#1192AA"/>
<path d="M174.883 216.53C171.023 217.404 167.268 218.279 163.479 218.946C158.15 219.884 152.808 220.752 147.451 221.493C142.04 222.241 136.61 222.865 131.176 223.413C128.235 223.71 125.267 223.718 122.313 223.894C121.273 223.956 120.239 224.132 119.034 224.275C120.83 227.915 121.114 231.518 120.44 235.282C119.815 238.765 116.41 242.336 113.063 243.186C107.026 244.719 100.978 244.134 94.9159 243.601C93.6386 243.489 92.3517 243.416 91.0909 243.195C87.3888 242.547 84.996 240.761 83.2775 237.498C78.3704 239.517 73.4707 241.542 68.5637 243.548C65.3602 244.858 65.3516 244.847 66.4695 248.299C67.1724 250.469 67.853 252.648 68.607 254.8C69.8696 258.403 68.7567 261.403 65.364 263.112C63.3113 264.146 61.1293 264.922 59.1172 266.027C55.5369 267.994 54.6829 271.603 54.3337 275.322C53.928 279.644 54.75 283.849 55.8003 288.032C57.1876 293.557 59.0357 298.909 62.5136 303.388C68.3731 310.932 76.5746 313.656 84.8563 307.764C87.7283 305.721 89.0437 302.325 89.4098 298.691C89.5114 297.682 88.8893 297.557 88.1287 297.621C87.3006 297.691 86.4723 297.827 85.6447 297.823C83.9273 297.814 82.4367 296.496 82.5293 295.146C82.637 293.575 84.0942 292.41 85.8916 292.471C95.2476 292.788 104.139 290.905 112.135 285.846C116.983 282.779 120.639 278.359 123.447 273.218C126.722 267.22 128.383 260.611 130.599 254.206C131.322 252.119 132.356 250.118 133.458 248.205C134.443 246.495 136.413 246.013 137.637 246.905C138.828 247.772 138.715 249.483 137.809 251.248C136.374 254.044 135.189 256.974 133.927 259.784C136.47 260.721 138.627 261.436 140.724 262.304C146.787 264.812 151.748 268.915 155.568 274.239C159.185 279.28 162.296 284.701 165.636 289.951C167.371 292.679 169.009 295.482 170.889 298.101C173.685 301.995 178.147 302.716 182.541 301.058C186.007 299.751 189.319 297.808 192.406 295.697C198.605 291.459 204.361 286.596 208.979 280.552C211.193 277.654 212.937 274.368 214.766 271.18C215.177 270.462 215.05 269.42 215.319 268.368C216.643 265.622 216.307 263.828 214.448 262.77C214.356 262.634 214.264 262.497 214.152 262.145C214.468 260.67 215.515 260.511 216.351 260.904C217.494 261.44 218.462 262.366 219.562 263.252C219.699 264.327 219.778 265.275 219.772 266.301C219.66 266.593 219.562 266.83 219.619 267.018C220.111 268.645 220.164 270.257 219.555 271.865C217.251 278.691 213.17 284.348 208.104 289.194C204.332 292.802 200.283 296.152 196.093 299.239C192.88 301.607 189.255 303.386 185.604 305.345C181.959 305.718 178.525 306.174 175.09 306.629C175.09 306.629 175.096 306.672 175.063 306.557C174.519 306.344 174.008 306.246 173.498 306.147C170.276 305.202 167.924 303.023 166.172 300.253C162.729 294.81 159.499 289.224 156.099 283.751C152.753 278.363 149.055 273.207 143.61 269.872C140.261 267.821 136.582 266.334 132.859 264.498C132.205 266.271 131.744 267.592 131.235 268.894C126.772 280.305 119.659 289.24 108.21 293.749C104.166 295.342 99.8179 296.156 95.5706 297.156C94.4149 297.429 94.143 297.654 94.1529 298.947C94.197 304.721 91.6995 309.202 87.1016 312.501C82.1273 316.069 76.5536 316.671 70.8738 315.37C65.5819 314.158 61.5059 310.744 58.3393 306.276C54.3065 300.585 51.6998 294.215 50.3369 287.354C49.1761 281.51 48.6833 275.588 50.2476 269.731C51.4842 265.101 54.5621 262.001 58.7538 260.059C60.409 259.292 62.1715 258.769 64.0915 258.058C63.1215 254.915 62.029 251.895 61.2897 248.788C60.8292 246.852 59.989 246.235 58.0621 246.115C53.5869 245.837 49.3323 244.583 45.5843 241.926C41.8705 239.294 38.9034 235.88 36.6288 231.945C35.1542 229.394 34.2216 226.511 33.0709 223.767C32.7232 222.938 30.0956 221.779 29.0635 222.038C25.4686 222.944 21.913 224.246 18.2649 224.638C13.6591 225.132 8.97268 225.032 4.33003 224.886C2.20298 224.82 0.581699 223.286 0.143948 221.113C-0.276612 219.024 0.174086 216.864 2.1658 215.752C5.94859 213.64 9.82179 211.69 13.7148 209.797C16.1578 208.609 18.7054 207.647 21.5555 206.435C20.9273 204.623 20.402 202.662 19.5879 200.836C15.8102 192.362 12.0287 183.888 8.07762 175.498C6.86916 172.932 7.77413 169.403 10.1688 168.402C13.2823 167.099 16.4898 165.952 19.7507 165.129C22.077 164.541 24.0524 166.072 25.7541 167.514C29.2633 170.487 32.6083 173.663 36.0844 176.678C38.7507 178.991 41.5145 181.185 44.3544 183.46C47.6969 186.136 50.8544 188.877 54.1825 191.379C55.1816 192.13 56.6861 192.627 57.9074 192.533C61.9335 192.224 65.9359 191.591 69.9474 191.083C69.9602 190.875 69.9729 190.668 69.9857 190.461C68.2155 189.327 66.4402 188.201 64.6766 187.057C62.8359 185.862 62.4439 184.896 63.1936 183.482C63.8989 182.151 65.2694 181.731 66.9793 182.611C69.925 184.127 72.895 185.637 75.6647 187.454C77.5513 188.692 79.201 188.739 81.3003 188.16C87.2145 186.528 93.215 185.228 99.1565 183.696C108.562 181.271 117.925 178.665 127.351 176.325C133.305 174.847 139.304 173.478 145.351 172.496C151.27 171.534 157.362 171.269 163.184 172.773C167.348 173.849 171.345 175.866 175.187 177.914C179.785 180.364 184.219 183.171 188.564 186.074C190.536 187.391 192.33 189.141 193.817 191.019C194.887 192.37 195.314 194.256 196.133 196.145C197.848 195.551 199.698 194.965 201.507 194.268C203.123 193.645 204.703 192.92 206.274 192.185C206.525 192.067 206.647 191.659 206.871 191.223C208.238 189.915 208.385 191.723 209.147 191.998C209.414 191.516 209.685 191.026 210.006 190.445C210.346 190.723 210.492 190.91 210.681 190.985C211.796 191.43 213.525 192.52 213.924 192.143C214.914 191.209 215.586 191.435 216.49 191.993C216.225 192.902 216.236 193.581 217.159 193.899C211.208 194.61 206.183 197.979 200.661 199.918C199.104 200.464 197.454 200.736 195.903 201.297C195.252 201.533 194.513 202.072 194.213 202.681C191.144 208.891 185.915 212.407 179.859 214.882C178.28 215.528 176.604 215.926 174.883 216.53ZM165.349 213.191C170.196 211.815 175.125 210.681 179.863 208.986C183.617 207.643 186.797 205.213 188.943 201.577C191.44 197.347 191.034 194.508 187.146 191.599C184.497 189.617 181.707 187.828 178.942 186.015C178.621 185.805 177.974 185.837 177.607 186.023C171.731 188.995 165.794 191.787 159.37 193.329C157.076 193.88 155.128 193.443 154.218 192.03C153.001 190.14 153.007 186.83 154.587 185.35C155.726 184.284 157.246 183.534 158.715 182.973C161.504 181.907 164.379 181.077 167.218 180.15C167.194 179.981 167.17 179.812 167.145 179.643C165.695 179.129 164.269 178.515 162.789 178.117C156.189 176.343 149.569 177.026 143.054 178.453C133.417 180.565 123.838 182.958 114.252 185.309C108.424 186.739 102.652 188.413 96.8151 189.806C86.0897 192.366 75.3485 194.861 64.5852 197.247C61.4663 197.938 58.2573 198.627 55.0429 197.701C52.4764 196.962 50.3534 195.438 48.3107 193.7C44.0306 190.057 39.6139 186.584 35.3197 182.959C30.8057 179.148 26.3914 175.213 21.8746 171.405C21.2052 170.841 20.1078 170.241 19.3877 170.419C17.4026 170.909 15.487 171.745 13.6092 172.595C13.2829 172.743 13.0127 173.73 13.1697 174.154C13.6012 175.317 14.3289 176.361 14.8408 177.499C16.9185 182.117 18.9946 186.737 21.0032 191.387C22.9195 195.823 24.7858 200.283 26.5915 204.767C26.9638 205.692 27.3286 205.985 28.3101 205.808C32.0148 205.14 35.7277 204.508 39.4527 203.973C43.5053 203.391 47.0713 205.644 46.5448 210.38C46.2318 213.196 44.3051 214.749 42.0566 215.913C40.1387 216.905 38.1384 217.73 35.99 218.713C41.5944 220.692 47.1776 221.062 52.7493 221.512C56.4607 221.812 60.1665 222.24 63.8834 222.393C65.724 222.468 67.9021 222.62 69.3781 221.754C74.7254 218.616 79.8409 215.063 85.0423 211.665C87.7356 209.905 90.5622 208.483 93.7744 208.038C98.0466 207.445 102.307 206.735 106.594 206.294C112.007 205.738 117.437 205.168 122.868 205.077C125.295 205.036 127.973 205.692 130.122 206.844C133.295 208.545 133.474 213.39 130.54 215.094C128.633 216.2 126.699 217.257 124.699 218.249C124.625 218.31 124.551 218.371 124.484 218.573C124.484 218.573 124.482 218.714 124.363 218.873C124.824 219.003 125.301 219.285 125.745 219.237C129.171 218.873 132.593 218.465 136.012 218.032C140.918 217.411 145.827 216.798 150.724 216.104C154.688 215.543 158.641 214.899 162.587 214.218C163.448 214.07 164.258 213.607 165.349 213.191ZM72.7204 225.754C66.6691 230.092 60.0993 233.691 54.4028 238.859C56.5225 239.846 61.397 239.97 63.9199 239.309C69.9718 237.724 75.6733 235.241 81.3211 232.536C88.4744 229.11 95.7517 225.956 102.973 222.678C109.547 219.693 116.117 216.697 122.691 213.712C124.292 212.985 125.903 212.282 127.926 211.383C126.986 210.945 126.473 210.518 125.939 210.489C122.907 210.319 119.863 210.057 116.838 210.191C113.65 210.332 110.477 210.868 107.302 211.26C102.907 211.803 98.5123 212.342 94.125 212.94C90.6698 213.411 88.1527 215.823 85.341 217.594C81.1731 220.219 77.0634 222.941 72.7204 225.754ZM22.5395 218.751C25.9488 217.417 29.4002 216.184 32.7539 214.717C35.3963 213.56 37.9419 212.161 40.4754 210.764C41.0334 210.456 41.3585 209.705 41.7908 209.158C41.0713 209.032 40.3291 208.721 39.6362 208.81C36.4702 209.22 33.321 209.764 30.1593 210.212C28.9908 210.378 27.7201 210.167 26.6416 210.554C22.0472 212.201 17.4665 213.906 12.9635 215.797C10.3906 216.878 7.97665 218.356 5.49116 219.655C5.54203 219.795 5.5929 219.935 5.64377 220.074C11.214 220.098 16.808 220.499 22.5395 218.751ZM99.3748 230.017C95.6288 231.716 91.8828 233.416 88.0789 235.141C89.0915 237.028 90.2566 238.329 92.166 238.473C96.7704 238.82 101.381 239.084 105.99 239.357C106.434 239.384 106.887 239.242 107.665 239.132C104.682 235.553 105.001 231.486 104.849 227.394C103.006 228.272 101.304 229.084 99.3748 230.017ZM40.4636 228.537C42.884 232.316 45.4694 235.925 49.7513 238.09C51.0255 232.668 56.2918 231.51 59.4703 228.212C52.5567 227.33 45.7795 226.466 38.9327 225.593C39.357 226.429 39.8389 227.38 40.4636 228.537ZM114.185 237.385C114.687 236.6 115.323 235.871 115.668 235.019C116.994 231.742 115.875 228.64 114.668 225.66C114.317 224.794 113.181 223.851 112.317 223.751C111.677 223.677 110.821 224.849 110.203 225.591C109.873 225.987 109.713 226.642 109.699 227.186C109.648 229.166 109.549 231.163 109.732 233.128C110.001 236.02 111.804 237.766 114.185 237.385ZM214.874 193.439C214.875 193.315 214.878 193.191 214.872 193.067C214.872 193.064 214.734 193.062 214.734 193.065C214.724 193.189 214.723 193.313 214.874 193.439Z" fill="#054B5D"/>
<path d="M188.836 155.706C185.415 154.588 184.436 152.167 185.293 148.65C187.987 137.595 190.82 126.576 193.571 115.535C195.614 107.334 197.577 99.11 199.643 90.9146C201.446 83.7684 203.381 76.6582 205.188 69.5134C206.96 62.5134 208.639 55.4885 210.372 48.478C210.59 47.5976 210.827 46.7132 211.157 45.8736C212.111 43.4429 213.496 42.6277 215.98 43.1518C221.62 44.3416 227.244 45.6102 232.879 46.8225C239.223 48.187 245.576 49.502 251.915 50.8815C256.912 51.9688 261.892 53.1412 266.887 54.2385C270.915 55.1232 274.964 55.9027 278.984 56.821C282.422 57.6064 285.836 58.5092 289.254 59.3859C291.61 59.9902 292.734 61.9022 293.765 63.9537C294.081 64.5828 294.605 65.3154 295.197 65.5428C298.019 66.6262 299.673 70.0186 298.737 73.5556C296.755 81.043 295.285 88.6751 293.531 96.2293C292.155 102.154 290.69 108.057 289.224 113.959C287.165 122.253 285.09 130.542 282.981 138.823C280.542 148.399 278.07 157.967 275.588 167.531C275.044 169.624 274.637 171.809 273.741 173.739C271.83 177.851 267.499 179.843 263.251 178.664C257.877 177.173 252.553 175.493 247.194 173.941C245.826 173.545 244.41 173.327 242.828 172.944C242.192 172.552 241.765 172.024 241.294 171.976C240.149 171.86 238.983 171.968 237.735 171.89C230.743 169.741 223.842 167.688 216.879 165.617C216.704 166.403 216.645 166.923 216.471 167.397C216.026 168.604 215.308 169.609 213.919 169.412C212.643 169.232 212.011 167.719 212.299 166.175C212.463 165.298 212.733 164.275 212.456 163.512C211.826 161.774 212.459 160.577 213.393 159.239C214.489 157.669 215.569 156.021 216.278 154.244C217.04 152.333 217.048 150.309 215.445 148.628C213.811 146.915 211.904 147.342 210.004 147.628C211.264 147.132 212.498 146.768 213.695 146.415C213.695 145.304 213.695 144.159 213.695 142.908C212.375 143.59 211.479 144.318 210.488 144.506C208.785 144.829 207.023 144.815 205.34 144.839C207.799 142.495 210.52 141.788 213.795 142.099C219.447 142.637 223.473 147.724 222.055 153.176C221.442 155.531 220.545 157.807 219.772 160.136C220.038 160.18 220.431 160.198 220.796 160.311C225.458 161.754 230.1 163.266 234.777 164.649C242.944 167.064 251.142 169.36 259.305 171.789C263.424 173.015 266.848 170.396 267.429 167.505C268.218 163.581 269.151 159.687 270.065 155.791C271.245 150.759 272.507 145.747 273.656 140.708C274.357 137.635 274.844 134.51 275.549 131.438C276.589 126.907 277.742 122.404 278.838 117.887C279.541 114.986 280.205 112.076 280.924 109.18C281.986 104.902 283.144 100.65 284.144 96.3569C285.223 91.7239 286.179 87.0598 287.166 82.4041C287.963 78.6428 288.843 74.8945 289.47 71.1021C290.041 67.6486 288.668 65.4364 285.404 64.2816C283.739 63.6922 281.983 63.3729 280.261 62.9614C270.81 60.7018 261.371 58.3801 251.899 56.2163C240.21 53.5458 228.486 51.0376 216.795 48.3754C215.476 48.0752 214.949 48.4026 214.662 49.6602C213.96 52.7365 213.234 55.8073 212.486 58.8718C211.209 64.0967 209.916 69.3173 208.615 74.5356C207.226 80.105 205.837 85.6746 204.414 91.2348C203.176 96.0741 201.844 100.888 200.637 105.736C199.223 111.415 197.932 117.128 196.521 122.809C195.654 126.301 194.629 129.75 193.741 133.237C193.219 135.289 192.889 137.395 192.362 139.446C191.62 142.336 190.726 145.183 189.994 148.076C189.542 149.862 190.048 150.404 191.767 150.869C193.409 151.314 194.994 151.989 196.583 152.676C195.537 153.197 194.511 153.605 193.535 153.994C193.567 154.276 193.603 154.592 193.648 154.984C191.746 154.62 192.546 153.359 192.723 152.415C191.697 153.196 190.735 153.878 189.836 154.64C189.536 154.895 189.397 155.355 189.127 155.717C188.991 155.713 188.913 155.711 188.836 155.706Z" fill="#034657"/>
<path d="M219.809 271.794C220.286 270.238 220.234 268.64 219.746 267.028C219.69 266.842 219.787 266.607 220.009 266.372C220.556 266.515 220.894 266.734 221.262 266.84C228.704 268.977 236.161 271.063 243.592 273.243C248.459 274.672 253.285 276.247 258.138 277.727C259.342 278.094 260.279 277.912 260.573 276.359C260.813 275.089 261.243 273.855 261.602 272.61C263.148 267.247 264.68 261.88 266.251 256.526C268.344 249.389 270.472 242.264 272.575 235.13C273.467 232.106 274.314 229.069 275.213 226.048C276.777 220.795 278.327 215.537 279.971 210.31C280.368 209.047 279.849 208.681 278.857 208.403C273.44 206.884 268.026 205.352 262.611 203.821C257.664 202.422 252.717 201.024 247.772 199.618C243.729 198.468 239.699 197.27 235.636 196.2C235.16 196.075 234.159 196.486 234.002 196.893C232.782 200.047 231.652 203.242 230.603 206.461C228.748 212.149 226.998 217.873 225.149 223.563C223.305 229.239 221.388 234.891 219.511 240.556C217.881 245.477 216.263 250.403 214.519 255.326C213.976 254.976 213.553 254.626 213.13 254.277C212.99 254.279 212.849 254.282 212.708 254.284C212.913 255.313 213.117 256.342 213.321 257.372C213.319 257.373 213.317 257.376 213.224 257.302C212.711 257.103 212.124 256.733 211.899 256.895C210.785 257.693 210.36 257.409 210.282 256.091C210.267 255.837 209.925 255.614 209.769 255.354C209.496 254.9 209.249 254.429 209.117 253.961C209.721 253.42 210.426 252.965 210.644 252.333C213.065 245.302 215.417 238.245 217.776 231.191C219.435 226.229 221.101 221.27 222.712 216.292C223.341 214.35 223.828 212.359 224.36 210.46C220.549 209.532 217.062 208.73 213.607 207.809C212.585 207.537 211.93 207.71 211.707 208.741C211.307 210.598 210.954 212.469 210.684 214.35C209.859 220.096 209.097 225.851 208.279 231.597C208.009 233.488 207.642 235.364 207.219 237.256C205.961 237.514 206.098 236.814 206.339 236.105C207.275 233.349 206.769 232.553 204 232.327C204.882 226.744 205.776 221.307 206.638 215.865C207.086 213.034 207.477 210.193 207.894 207.357C207.894 207.357 207.795 207.379 207.9 207.272C208.324 206.24 208.641 205.314 208.958 204.389C208.962 204.28 209.012 204.203 209.309 204.14C211.366 203.977 213.222 203.833 215.077 203.688C215.077 203.688 215.068 203.65 215.086 203.746C215.396 203.859 215.687 203.875 215.978 203.892C218.668 204.36 221.401 204.66 224.033 205.359C225.699 205.801 226.175 205.167 226.559 203.766C227.328 200.96 228.085 198.143 229.028 195.395C230.274 191.762 232.99 190.312 236.619 191.305C244.11 193.357 251.571 195.528 259.064 197.573C265.755 199.399 272.489 201.059 279.172 202.916C282.55 203.855 284.944 205.264 284.999 208.763C285.008 209.305 284.918 209.849 284.726 210.471C283.807 213.216 283.036 215.881 282.265 218.546C282.265 218.546 282.259 218.506 282.17 218.569C281.54 220.788 280.999 222.944 280.458 225.101C280.458 225.101 280.434 225.122 280.305 225.141C279.808 226.729 279.439 228.297 279.071 229.865C279.071 229.865 279.036 229.894 278.934 229.904C278.503 231.332 278.173 232.751 277.844 234.17C275.601 241.95 273.376 249.736 271.11 257.509C268.997 264.757 266.863 272 264.69 279.23C263.901 281.854 261.218 283.46 258.631 282.883C256.497 282.407 254.377 281.848 252.28 281.223C243.971 278.749 235.678 276.217 227.367 273.746C224.909 273.015 222.414 272.416 219.809 271.794Z" fill="#054757"/>
<path d="M117.695 35.805C116.815 36.3824 116.726 36.9667 117.039 37.9157C117.973 40.747 118.908 43.594 119.57 46.499C120.88 52.2423 117.14 55.9131 111.739 56.734C108.2 57.272 105.039 55.9771 102.01 54.3066C100.767 53.6214 99.5481 52.8772 98.3897 52.0557C97.5895 51.4881 97.0265 51.5835 96.2925 52.1854C93.8794 54.1639 91.5404 56.2814 88.9308 57.9552C85.6926 60.0321 82.1047 60.7944 78.4323 58.9714C75.4974 57.5144 73.6355 53.6798 74.1466 50.2863C74.4628 48.1871 74.7578 46.0714 75.2865 44.0228C75.7063 42.3961 75.4761 41.3581 73.7911 40.8446C73.2576 40.682 72.7793 40.3322 72.1521 40.0369C69.8786 38.4377 67.6648 36.9514 65.596 35.2795C63.337 33.454 61.9403 31.0697 62.002 28.0247C62.0779 24.2735 64.6156 21.232 68.4875 20.4385C72.5337 19.6092 76.627 19.0193 80.6877 18.2585C81.0841 18.1842 81.5894 17.7084 81.7172 17.3104C82.9503 13.4719 83.9795 9.56063 85.3352 5.76928C86.6187 2.17947 89.5008 0.246717 93.1152 0.0167676C96.2857 -0.184943 98.9091 1.44485 100.515 4.27945C102.391 7.59194 104.061 11.0252 105.831 14.4007C106.012 14.7467 106.263 15.0553 106.394 15.252C110.22 14.7675 113.901 14.1124 117.608 13.875C123.628 13.4893 127.479 19.0068 125.457 24.8421C123.934 29.2387 120.946 32.5465 117.695 35.805ZM86.535 53.0126C88.6855 51.1541 90.861 49.3244 92.9804 47.43C95.8757 44.8421 97.3251 44.697 100.534 46.78C101.202 47.2141 101.876 47.6475 102.578 48.0191C104.969 49.2831 107.14 51.0799 110.006 51.2069C113.18 51.3476 114.641 49.721 113.851 46.6097C113.216 44.111 112.383 41.6489 111.442 39.2503C110.152 35.9626 110.551 34.7752 113.01 32.2717C115.429 29.81 117.621 27.0748 119.6 24.2345C120.258 23.2901 120.345 21.4934 119.926 20.3866C119.689 19.76 117.866 19.4176 116.806 19.5119C113.54 19.8025 110.292 20.3287 107.048 20.8331C104.387 21.2466 102.422 20.0436 101.231 17.5233C99.6397 14.1552 97.9943 10.7966 96.1088 7.59408C94.3874 4.67038 92.5908 4.75571 90.6572 7.55904C90.3661 7.98114 90.0826 8.44147 89.9351 8.92786C88.9532 12.1668 87.8594 15.3818 87.0983 18.6754C86.4396 21.5261 84.8729 23.2864 82.1679 24.0025C81.0263 24.3048 79.8163 24.3361 78.6393 24.5041C75.8983 24.8954 73.0899 25.0342 70.4351 25.7555C66.9399 26.7051 66.6207 28.6325 69.2314 31.2417C69.4733 31.4836 69.7214 31.7351 70.0083 31.9121C72.8607 33.672 75.5798 35.7584 78.6215 37.0685C81.5454 38.328 82.0816 40.5482 81.2493 43.5352C80.6337 45.7445 80.062 47.985 79.7209 50.2505C79.2324 53.4957 81.4071 55.1524 84.4575 53.9972C85.0933 53.7564 85.6992 53.4339 86.535 53.0126Z" fill="#03485A"/>
<path d="M178.576 130C176.122 129.761 175.165 128.149 176.373 126.099C180.247 119.528 181.27 112.307 180.967 104.847C180.726 98.9205 179.623 93.1674 176.127 88.1784C174.108 85.2961 171.244 83.5288 168.287 81.9156C161.253 78.077 153.72 75.6945 145.967 73.905C138.439 72.1673 130.835 71.393 123.132 71.1499C112.877 70.8264 102.846 72.2883 92.8453 74.3834C82.8469 76.4778 73.272 79.8357 64.123 84.3853C57.3502 87.7533 50.932 91.7949 45.2054 96.8613C42.3052 99.4271 39.5288 102.139 36.6959 104.785C36.4487 105.016 36.2166 105.409 35.9449 105.441C34.8988 105.567 33.5188 106.021 32.861 105.524C31.9073 104.802 31.6318 103.239 32.6225 102.152C34.786 99.777 36.9888 97.4251 39.3313 95.239C46.3813 88.6594 54.402 83.4892 62.9425 79.2701C67.8867 76.8276 73.1274 74.9124 78.3856 73.2654C84.5452 71.336 90.8357 69.8026 97.129 68.373C107.037 66.1224 117.121 65.7264 127.221 66.1493C136.713 66.5468 146.054 68.2262 155.121 71.07C160.214 72.667 165.068 75.0594 170.029 77.0927C170.541 77.3022 171.054 77.5066 171.695 77.6795C171.824 77.6456 171.816 77.6574 171.788 77.7494C171.846 77.9154 171.93 77.9894 172.015 78.0634C174.66 80.1594 177.598 81.9745 179.855 84.4424C181.584 86.3326 182.756 88.9335 183.648 91.417C186.067 98.1475 186.332 105.178 185.72 112.258C185.24 117.805 183.546 122.994 180.953 127.857C180.49 128.726 179.456 129.276 178.576 130Z" fill="#024758"/>
<path d="M188.717 155.759C188.928 155.395 189.066 154.937 189.365 154.683C190.258 153.924 191.214 153.245 192.234 152.467C192.058 153.407 191.264 154.663 193.154 155.026C193.109 154.635 193.073 154.321 193.041 154.039C194.012 153.652 195.032 153.246 196.186 152.716C197.019 152.028 197.718 151.464 198.539 150.896C200.508 149.84 200.56 149.778 200.439 148.727C200.676 148.47 200.868 148.302 201.134 148.096C201.299 147.988 201.365 147.899 201.451 147.694C201.797 147.316 202.099 147.034 202.476 146.839C203.911 147.075 204.648 146.456 204.727 145.026C204.729 145.028 204.725 145.026 204.725 145.026C206.451 144.899 208.203 144.913 209.896 144.592C210.881 144.404 211.772 143.679 213.084 143C213.084 144.246 213.084 145.387 213.084 146.492C211.895 146.844 210.668 147.206 209.356 147.78C209.088 148.044 208.904 148.095 208.683 148.093C208.567 148.103 208.488 148.167 208.341 148.314C207.75 148.769 207.226 149.141 206.583 149.518C206.228 149.784 205.992 150.044 205.727 150.366C205.642 150.507 205.57 150.56 205.348 150.58C204.839 151.051 204.464 151.529 204.047 152.088C203.83 152.331 203.656 152.495 203.355 152.649C202.401 152.572 201.918 152.768 202.4 153.825C202.166 154.06 201.975 154.212 201.704 154.4C201.554 154.532 201.485 154.628 201.412 154.713C201.409 154.701 201.431 154.708 201.352 154.749C201.21 154.89 201.147 154.99 201.058 155.158C200.987 155.315 200.916 155.375 200.728 155.454C200.563 155.703 200.493 155.902 200.417 156.09C200.411 156.079 200.431 156.093 200.316 156.11C200.062 156.379 199.922 156.633 199.705 156.982C199.543 157.974 199.195 158.951 199.422 159.752C200.073 162.039 200.935 164.263 201.756 166.495C202.944 169.724 204.143 172.949 205.389 176.154C206.365 178.664 207.419 181.141 208.313 183.657C207.56 184.331 206.9 184.953 206.328 185.654C206.196 185.816 206.368 186.246 206.4 186.553C206.682 186.489 206.984 186.47 207.243 186.351C207.913 186.043 208.564 185.691 209.332 185.388C209.76 186.016 210.129 186.589 210.39 187.211C211.408 189.63 211.719 189.804 214.299 189.279C215.538 189.026 216.78 188.789 218 188.656C217.018 189.472 216.88 190.676 216.36 191.648C215.463 191.212 214.798 190.985 213.82 191.922C213.425 192.3 211.714 191.206 210.61 190.76C210.424 190.685 210.28 190.497 209.943 190.218C209.625 190.801 209.357 191.293 209.094 191.776C208.34 191.501 208.194 189.687 206.795 190.901C205.947 189.32 205.185 187.673 204.447 185.887C204.469 185.747 204.489 185.648 204.489 185.648L204.401 185.786C203.279 183.521 201.95 181.339 201.077 178.975C198.743 172.651 196.606 166.249 194.384 159.88C194.272 159.56 194.104 159.26 193.819 158.837C193.602 158.791 193.527 158.859 193.453 158.927C193.315 159.016 193.177 159.106 192.868 159.227C192.61 159.346 192.525 159.431 192.439 159.517C192.178 159.634 191.916 159.752 191.509 159.824C191.267 159.837 191.17 159.895 191.073 159.953C190.825 160.039 190.576 160.125 190.099 160.219C189.321 160.487 188.771 160.748 188.221 161.009C186.271 161.542 184.345 162.381 182.366 162.55C176.185 163.079 169.984 163.357 163.79 163.725C162.368 163.81 161.483 163.051 161.1 161.684C160.664 160.125 161.724 159.408 162.847 158.625C168.286 158.308 173.648 158.103 179.006 157.823C180.299 157.755 181.579 157.44 183.031 157.252C183.198 157.267 183.348 157.288 183.348 157.288L183.462 157.169C183.937 157.064 184.412 156.959 185.103 156.92C186.452 156.578 187.584 156.168 188.717 155.759ZM200.262 151.182C200.142 151.18 200.022 151.178 199.903 151.184C199.9 151.184 199.898 151.325 199.901 151.326C200.02 151.335 200.14 151.336 200.262 151.182Z" fill="#03495B"/>
<path d="M208.561 253.541C208.814 253.984 209.055 254.435 209.323 254.869C209.476 255.117 209.812 255.33 209.827 255.573C209.903 256.832 210.32 257.103 211.413 256.34C211.634 256.186 212.21 256.539 212.73 256.768C212.863 256.892 212.887 256.906 212.912 256.921C212.877 256.879 212.843 256.837 212.809 256.796C212.608 255.812 212.407 254.829 212.207 253.846C212.345 253.843 212.483 253.841 212.621 253.839C213.035 254.173 213.45 254.507 213.985 254.95C214.108 255.203 214.11 255.348 214.066 255.599C213.665 257.474 214.618 256.832 215.518 256.514C215.986 256.967 216.358 257.371 216.614 257.778C215.788 258.339 215.788 258.339 216.514 259.189C216.691 258.827 216.87 258.466 217.133 258.169C217.383 258.624 217.548 259.013 217.628 259.412C217.491 259.562 217.441 259.702 217.39 259.842C217.603 259.806 217.816 259.771 218.104 259.793C218.235 260.031 218.29 260.21 218.274 260.449C218.364 260.792 218.525 261.077 218.767 261.432C218.899 261.781 218.949 262.06 219 262.338C217.986 261.619 217.045 260.742 215.934 260.234C215.121 259.862 214.103 260.012 213.762 261.339C209.249 257.314 203.258 257.124 197.513 260.596C194.641 262.331 191.964 264.388 189.218 266.327C188.054 267.148 186.834 267.278 185.763 266.379C184.64 265.437 184.876 264.214 185.701 263.176C186.296 262.427 186.968 261.666 187.767 261.165C190.737 259.301 193.773 257.543 196.967 255.828C197.268 255.913 197.386 255.915 197.504 255.916C197.355 255.87 197.206 255.825 197.057 255.779C197.071 255.647 197.084 255.514 197.119 255.283C197.793 254.955 198.445 254.727 199.298 254.472C199.583 254.373 199.668 254.3 199.754 254.228C199.864 253.648 199.974 253.069 200.229 252.324C200.506 250.664 200.64 249.168 200.773 247.673C200.766 247.617 200.759 247.561 200.885 247.389C201.356 245.993 201.695 244.712 202.102 243.394C202.256 243.29 202.317 243.207 202.355 243.105C202.357 243.105 202.354 243.101 202.474 243.1C202.925 242.954 203.257 242.808 203.589 242.662C203.564 242.538 203.539 242.415 203.513 242.291C203.128 242.237 202.742 242.182 202.304 242.053C202.083 241.92 201.915 241.861 201.747 241.802C201.773 241.613 201.799 241.425 202.002 241.193C202.24 241.153 202.301 241.156 202.437 241.214C203.114 241.339 203.715 241.408 204.33 241.565C204.438 241.755 204.534 241.857 204.63 241.958C204.685 241.893 204.741 241.828 204.796 241.764C204.636 241.668 204.477 241.572 204.33 241.363C204.135 239.817 204.157 238.431 205.025 237.162C205.068 237.099 204.575 236.488 204.261 236.409C203.885 236.313 203.433 236.515 203.016 236.473C203.123 236 203.23 235.642 203.434 235.268C203.574 234.936 203.616 234.617 203.659 234.178C203.66 233.815 203.661 233.572 203.662 233.248C203.663 233.11 203.663 233.055 203.663 233.001C203.664 233.001 203.663 233 203.663 233C206.381 233.08 206.877 233.84 205.959 236.474C205.722 237.152 205.588 237.82 206.825 237.691C206.823 238.159 206.72 238.517 206.488 238.874C206.019 239.045 205.679 239.218 205.339 239.39C205.653 239.868 205.967 240.346 206.357 240.902C206.162 242.558 205.892 244.136 205.539 245.636C205.335 245.221 205.214 244.883 205.065 244.467C204.482 244.643 203.963 244.799 202.985 245.095C203.965 245.912 204.637 246.472 205.306 247.173C205.195 248.302 205.085 249.29 204.853 250.263C203.994 250.247 203.258 250.247 202.522 250.247C202.513 250.486 202.504 250.724 202.496 250.963C203.316 251.061 204.137 251.158 204.957 251.378C204.921 251.928 204.885 252.356 204.858 252.688C205.544 252.893 206.074 253.05 206.618 253.302C206.734 253.498 206.836 253.599 206.938 253.701C207.043 253.542 207.149 253.382 207.369 253.222C207.842 253.328 208.202 253.434 208.561 253.541ZM214.732 258.348C214.708 258.334 214.683 258.319 214.659 258.305C214.694 258.346 214.729 258.388 214.798 258.508C214.822 258.522 214.847 258.537 214.871 258.551C214.836 258.509 214.801 258.468 214.732 258.348ZM212.444 258.045C212.904 258.279 213.364 258.512 213.824 258.746C213.877 258.508 213.931 258.269 213.984 258.031C213.429 257.98 212.874 257.928 212.444 258.045ZM199.446 254.944C199.28 255.004 199.113 255.063 198.947 255.122C199.034 255.223 199.12 255.323 199.207 255.423C199.33 255.309 199.453 255.194 199.446 254.944Z" fill="#024758"/>
<path d="M216 191.182C216.529 190.238 216.67 189.069 217.766 188.261C218.013 188.134 218.144 188.131 218.399 188.149C219.358 188.424 220.187 188.668 220.447 187.315C221.797 186.651 223.104 186.136 224.321 185.462C229.984 182.325 235.022 178.583 237.079 172.061C238.249 172.044 239.428 171.939 240.586 172.051C241.064 172.097 241.495 172.608 242 173.007C240.783 176.494 239.401 179.786 236.807 182.479C232.398 187.058 226.96 189.881 221.041 191.942C219.798 192.374 218.526 192.725 217.141 193C216.677 192.318 216.338 191.75 216 191.182Z" fill="#054C5D"/>
<path d="M203.417 233.957C203.296 234.326 203.175 234.695 203.046 235.32C202.797 237.05 202.554 238.525 202.312 240C202.243 239.998 202.173 239.995 202 239.986C202.156 237.935 202.323 235.876 202.692 233.847C204.209 225.502 205.784 217.166 207.353 208.829C207.465 208.234 207.703 207.659 208 207C207.654 209.713 207.22 212.505 206.721 215.287C205.763 220.637 204.769 225.981 203.788 231.468C203.786 231.609 203.787 231.61 203.731 231.641C203.655 231.708 203.607 231.759 203.619 231.776C203.664 231.839 203.728 231.892 203.785 231.948C203.784 232.197 203.783 232.447 203.691 232.895C203.539 233.382 203.478 233.669 203.417 233.957Z" fill="#09394F"/>
<path d="M306 214C306.871 211.365 307.879 208.663 309 206C308.121 208.67 307.129 211.302 306 214Z" fill="#09394F"/>
<path d="M304 221C304.571 218.758 305.22 216.412 306 214C305.446 216.255 304.763 218.576 304 221Z" fill="#09394F"/>
<path d="M201.56 241.031C201.697 240.952 201.813 241.018 201.964 241.301C202 241.789 202 242.059 202 242.329C202 242.329 202.002 242.334 201.953 242.376C201.845 242.491 201.803 242.584 201.779 242.697C201.545 244.119 201.312 245.541 201 247C201.127 245.083 201.333 243.129 201.56 241.031Z" fill="#09394F"/>
<path d="M214 202.5C212.745 202.719 211.42 202.858 210 203C210.758 201.711 211.85 201.973 212.921 202.144C213.26 202.199 213.593 202.326 214 202.5Z" fill="#09394F"/>
<path d="M201 247C200.817 248.559 200.534 250.258 200 252C200.132 250.408 200.516 248.774 201 247Z" fill="#09394F"/>
<path d="M303 227C303.254 225.086 303.573 223.045 304 221C303.76 222.955 303.412 224.914 303 227Z" fill="#09394F"/>
<path d="M278 234C278.261 232.436 278.572 230.73 279 229C278.761 230.603 278.406 232.231 278 234Z" fill="#09394F"/>
<path d="M216.126 192C216.419 192.24 216.71 192.543 217 192.916C216.951 192.993 216.902 193.001 216.779 193C215.907 192.827 215.897 192.473 216.126 192Z" fill="#03495B"/>
<path d="M188 156.001C187.06 156.36 186.071 156.716 185 157C185.801 156.67 186.684 156.413 187.656 156.074C187.815 155.996 187.882 155.998 188 156.001Z" fill="#09394F"/>
<path d="M209 204C208.783 204.931 208.456 205.934 208 207C208.211 206.066 208.55 205.069 209 204Z" fill="#09394F"/>
<path d="M200 254C200.005 254.269 199.667 254.59 199 255C199 254.744 199.328 254.398 200 254Z" fill="#054757"/>
<path d="M108.607 86.4831C115.564 85.9588 122.369 85.2701 129.188 85.0393C136.202 84.802 143.167 85.6365 149.95 87.5926C154.792 88.9892 159.601 90.5213 164.387 92.1156C167.717 93.2249 169.437 95.9759 170.247 99.287C172.292 107.651 172.474 116.095 171.176 124.624C169.876 133.173 166.574 140.853 161.711 147.747C159.341 151.107 156.352 154.051 153.382 156.891C145.744 164.198 136.318 167.792 126.474 170.595C116.055 173.56 105.434 174.495 94.7635 173.762C82.7786 172.939 71.4992 169.272 61.6805 161.845C56.8538 158.194 53.0125 153.514 49.9587 148.098C46.7289 142.369 44.2909 136.392 43.4545 129.807C43.101 127.024 42.9901 124.189 43.0007 121.378C43.0136 117.977 45.0461 115.393 47.0605 113.089C52.2627 107.14 58.4664 102.491 65.6237 99.3469C71.0887 96.9458 76.5473 94.4695 82.17 92.5272C90.7089 89.5776 99.5309 87.7425 108.607 86.4831ZM84.6841 98.235C83.1388 98.772 81.5781 99.2663 80.051 99.8541C75.1443 101.743 70.2918 103.81 66.1171 107.14C58.8156 112.964 55.9007 120.896 56.2934 130.26C56.657 138.928 59.7316 146.574 65.216 153.005C68.8819 157.303 73.5414 160.395 78.7447 162.564C84.0353 164.769 89.4587 166.605 95.1361 166.919C100.434 167.212 105.785 166.958 111.085 166.557C114.849 166.272 118.618 165.562 122.29 164.64C125.924 163.727 129.477 162.417 132.996 161.087C138.969 158.831 144.577 155.887 149.344 151.396C153.931 147.073 157.424 141.921 159.368 135.891C162.09 127.446 162.777 118.744 160.137 110.109C157.382 101.1 152.582 94.2588 142.649 92.7062C132.883 91.1795 123.126 91.4887 113.386 92.3754C107.664 92.8964 101.99 94.1165 96.3351 95.2394C92.4971 96.0015 88.7289 97.1407 84.6841 98.235Z" fill="#044A5C"/>
<path d="M188 161C188.261 160.678 188.592 160.337 189 160C188.742 160.329 188.405 160.655 188 161Z" fill="#034657"/>
<path d="M214 263C216.215 263.868 216.621 265.547 215.065 268C214.63 266.396 214.33 264.759 214 263Z" fill="#024758"/>
<path d="M124.781 217.809C126.687 216.711 128.606 215.635 130.498 214.508C133.41 212.774 133.232 207.842 130.084 206.111C127.952 204.938 125.294 204.271 122.886 204.312C117.498 204.405 112.11 204.985 106.74 205.551C102.486 206 98.2589 206.723 94.0202 207.326C90.8331 207.78 88.0286 209.226 85.3563 211.018C80.1956 214.478 75.1201 218.094 69.8146 221.288C68.3501 222.17 66.1891 222.015 64.3628 221.938C60.675 221.783 56.9982 221.348 53.3158 221.042C47.7876 220.584 42.2481 220.207 36.6875 218.192C38.819 217.192 40.8038 216.352 42.7066 215.342C44.9376 214.158 46.8493 212.576 47.1598 209.71C47.6821 204.89 44.144 202.596 40.1231 203.188C36.4272 203.733 32.7434 204.376 29.0676 205.056C28.0937 205.236 27.7318 204.938 27.3624 203.997C25.5708 199.432 23.7191 194.892 21.8179 190.376C19.825 185.643 17.765 180.94 15.7036 176.239C15.1957 175.081 14.4737 174.019 14.0455 172.834C13.8898 172.404 14.1578 171.399 14.4816 171.248C16.3448 170.382 18.2454 169.532 20.215 169.032C20.9294 168.851 22.0183 169.463 22.6824 170.037C27.1639 173.912 31.5437 177.918 36.0224 181.797C40.2831 185.487 44.6653 189.023 48.9119 192.731C50.9386 194.5 53.045 196.052 55.5914 196.804C58.7807 197.746 61.9646 197.045 65.0591 196.342C75.7383 193.913 86.3955 191.373 97.0371 188.768C102.828 187.35 108.555 185.646 114.338 184.19C123.849 181.797 133.353 179.36 142.915 177.211C149.379 175.758 155.947 175.063 162.495 176.869C163.964 177.274 165.378 177.899 166.817 178.422C166.842 178.594 166.866 178.766 166.89 178.938C164.073 179.882 161.221 180.727 158.454 181.811C156.995 182.383 155.487 183.146 154.357 184.232C152.789 185.738 152.784 189.108 153.991 191.031C154.894 192.47 156.827 192.914 159.103 192.353C165.476 190.784 171.368 187.942 177.198 184.916C177.562 184.727 178.203 184.695 178.522 184.909C181.266 186.754 184.033 188.575 186.662 190.593C190.519 193.553 190.922 196.443 188.445 200.749C186.315 204.451 183.161 206.924 179.436 208.291C174.735 210.017 169.844 211.171 164.775 212.6C161.983 213.087 159.459 213.602 156.918 213.995C151.405 214.848 145.891 215.717 140.361 216.433C135.081 217.117 129.78 217.614 124.488 218.193C124.488 218.193 124.49 218.05 124.563 217.963C124.636 217.875 124.781 217.809 124.781 217.809ZM136.902 193.372C136.68 190.767 135.812 189.736 133.847 190.265C131.448 190.91 130.12 191.045 130.807 194.414C130.876 194.753 130.857 195.111 130.919 195.452C131.305 197.547 132.358 198.276 134.345 197.839C136.866 197.285 137.313 196.571 136.902 193.372ZM120.826 198.583C121.909 200.141 123.488 200.513 125.477 199.622C126.975 198.951 126.905 197.615 126.692 196.237C126.595 195.61 126.71 194.844 126.403 194.378C125.886 193.596 125.075 192.413 124.449 192.453C123.143 192.537 121.476 192.166 120.596 193.745C120.366 194.157 120.317 194.751 120.358 195.246C120.441 196.269 120.641 197.281 120.826 198.583ZM111.488 201.205C112.919 201.168 114.358 201.202 115.776 201.039C116.105 201.002 116.631 200.279 116.611 199.897C116.532 198.356 116.479 196.748 115.992 195.326C115.774 194.688 114.501 193.996 113.803 194.093C112.569 194.265 110.648 194.068 110.538 195.989C110.444 197.638 111.021 199.33 111.488 201.205ZM72.7459 200.663C72.1273 201.315 71.0879 201.903 70.9855 202.635C70.8179 203.833 71.0664 205.211 71.5175 206.347C71.7872 207.026 72.726 207.711 73.4521 207.838C76.3048 208.339 77.6141 206.76 76.9784 203.815C76.8451 203.198 76.887 202.435 76.5476 201.996C76.0577 201.363 75.3454 200.835 74.6266 200.513C74.1887 200.316 73.5602 200.589 72.7459 200.663ZM84.5561 206.297C86.7868 205.983 87.2317 205.418 86.9964 203.166C86.9486 202.708 86.8065 202.256 86.8018 201.8C86.7709 198.807 85.392 198.383 82.2984 199.254C81.1517 199.576 80.843 200.52 80.9596 201.661C81.018 202.233 81.142 202.798 81.1938 203.371C81.4213 205.888 81.8484 206.301 84.5561 206.297ZM100.777 200.466C101.185 203.122 101.918 203.483 104.752 202.901C106.197 202.605 106.942 201.709 106.687 200.426C106.367 198.824 107.127 196.644 104.933 195.803C104.778 195.744 104.612 195.678 104.452 195.681C101.541 195.733 99.73 196.305 100.72 199.649C100.768 199.811 100.746 199.995 100.777 200.466ZM91.6854 197.863C90.7002 199.043 90.659 203.301 91.6422 204.328C91.8282 204.523 92.0917 204.672 92.3453 204.752C95.1606 205.64 97.0291 204.144 96.7394 201.109C96.6048 199.699 96.7678 197.86 94.993 197.42C94.0406 197.184 92.9445 197.59 91.6854 197.863Z" fill="#F6EDD6"/>
<path d="M216.699 258.201C216.317 257.771 215.935 257.342 215.402 256.76C214.838 256.33 214.424 256.052 214.01 255.774C214.007 255.62 214.005 255.467 214 255.198C215.634 250.081 217.266 245.078 218.909 240.079C220.801 234.324 222.734 228.584 224.594 222.818C226.458 217.038 228.222 211.224 230.092 205.446C231.15 202.176 232.289 198.931 233.519 195.727C233.678 195.314 234.687 194.896 235.167 195.023C239.263 196.11 243.326 197.327 247.402 198.495C252.387 199.924 257.375 201.344 262.363 202.764C267.821 204.319 273.28 205.876 278.741 207.419C279.742 207.702 280.265 208.073 279.865 209.356C278.208 214.665 276.644 220.006 275.068 225.342C274.161 228.411 273.307 231.496 272.408 234.568C270.288 241.814 268.142 249.051 266.032 256.301C264.449 261.74 262.903 267.191 261.345 272.638C260.983 273.904 260.55 275.157 260.308 276.447C260.012 278.025 259.066 278.209 257.853 277.836C252.96 276.333 248.095 274.733 243.187 273.282C235.696 271.067 228.178 268.949 220.675 266.777C220.303 266.67 219.963 266.448 219.496 266.224C219.305 265.214 219.226 264.26 219.09 263.178C218.981 262.755 218.929 262.459 218.791 261.971C218.59 261.513 218.474 261.246 218.359 260.98C218.303 260.789 218.247 260.598 218.076 260.272C217.897 260.043 217.814 259.974 217.712 259.93C217.541 259.516 217.371 259.103 217.077 258.545C216.888 258.309 216.803 258.242 216.699 258.201ZM230.306 240.827C232.263 246.099 235.841 249.902 240.989 251.504C251.194 254.677 262.292 248.762 264.799 237.268C267.073 226.844 262.396 217.227 251.949 213.478C243.736 210.53 234.229 215.032 230.376 224.426C228.189 229.757 228.169 235.173 230.306 240.827ZM236.638 260.637C235.663 260.396 234.675 260.197 233.715 259.904C231.994 259.379 231.808 260.654 231.443 261.834C231.054 263.088 230.797 264.262 232.396 264.76C235.114 265.606 237.831 266.463 240.579 267.197C242.615 267.741 242.56 265.883 243.01 264.683C243.462 263.476 243.073 262.702 241.842 262.328C240.184 261.824 238.544 261.256 236.638 260.637Z" fill="#025676"/>
<path d="M73.2908 225.762C77.4995 222.975 81.5799 220.212 85.7182 217.549C88.5099 215.752 91.0091 213.305 94.4397 212.827C98.7958 212.22 103.16 211.673 107.523 211.122C110.676 210.724 113.826 210.181 116.991 210.037C119.994 209.901 123.018 210.168 126.028 210.34C126.558 210.37 127.067 210.803 128 211.247C125.992 212.159 124.392 212.873 122.802 213.61C116.275 216.639 109.752 219.679 103.225 222.707C96.0549 226.033 88.8293 229.233 81.7269 232.71C76.1193 235.454 70.4583 237.974 64.4494 239.582C61.9445 240.253 57.1046 240.127 55 239.125C60.656 233.881 67.179 230.23 73.2908 225.762Z" fill="#F5ECD6"/>
<path d="M22.7748 219.462C17.2234 221.421 11.6756 220.961 6.15135 220.935C6.1009 220.774 6.05045 220.614 6 220.453C8.46498 218.964 10.859 217.269 13.4106 216.03C17.8765 213.862 22.4194 211.907 26.9758 210.017C28.0455 209.574 29.3057 209.816 30.4646 209.626C33.6001 209.112 36.7233 208.488 39.8632 208.018C40.5503 207.916 41.2864 208.272 42 208.417C41.5713 209.044 41.2489 209.906 40.6955 210.258C38.1829 211.86 35.6583 213.465 33.0377 214.791C29.7117 216.473 26.2888 217.887 22.7748 219.462Z" fill="#F4EDD7"/>
<path d="M99.6504 229.569C101.504 228.695 103.243 227.881 105.125 227C105.28 231.103 104.954 235.182 108 238.771C107.206 238.881 106.743 239.023 106.29 238.997C101.583 238.722 96.8752 238.458 92.1735 238.11C90.2237 237.965 89.034 236.66 88 234.769C91.8843 233.039 95.7095 231.335 99.6504 229.569Z" fill="#1393AB"/>
<path d="M40.4924 227.955C39.9266 226.859 39.4339 225.87 39 225C46.0009 225.908 52.9308 226.807 60 227.724C56.7499 231.155 51.3651 232.359 50.0622 238C45.6839 235.748 43.0403 231.994 40.4924 227.955Z" fill="#1393AB"/>
<path d="M114.013 236.962C111.967 237.288 110.339 235.508 110.096 232.56C109.93 230.558 110.02 228.523 110.066 226.504C110.079 225.95 110.223 225.282 110.521 224.878C111.08 224.123 111.853 222.928 112.431 223.003C113.212 223.105 114.238 224.067 114.555 224.949C115.645 227.987 116.657 231.148 115.459 234.488C115.147 235.356 114.572 236.099 114.013 236.962Z" fill="#1F7DA1"/>
<path d="M124 218.549C129.322 217.897 134.595 217.407 139.846 216.732C145.346 216.026 150.83 215.169 156.313 214.327C158.841 213.939 161.351 213.431 164 213C163.309 213.341 162.511 213.805 161.661 213.954C157.767 214.638 153.866 215.285 149.954 215.848C145.122 216.545 140.278 217.16 135.436 217.784C132.062 218.219 128.686 218.629 125.305 218.995C124.867 219.042 124.396 218.759 124 218.549Z" fill="#09394F"/>
<path d="M199.911 148.126C199.714 148.293 199.518 148.461 199.167 148.741C198.414 149.531 197.816 150.207 197.218 150.884C196.506 151.447 195.794 152.01 194.967 152.584C193.221 152.025 191.617 151.354 189.954 150.912C188.213 150.451 187.701 149.912 188.159 148.137C188.9 145.265 189.805 142.436 190.556 139.566C191.09 137.528 191.424 135.437 191.953 133.398C192.851 129.935 193.89 126.508 194.768 123.04C196.196 117.397 197.502 111.722 198.935 106.08C200.157 101.265 201.504 96.4833 202.758 91.6763C204.199 86.1532 205.605 80.6209 207.011 75.0887C208.329 69.9052 209.638 64.7195 210.93 59.5295C211.689 56.4854 212.424 53.4352 213.134 50.3794C213.425 49.1302 213.958 48.805 215.293 49.1032C227.13 51.7476 239 54.2391 250.834 56.8917C260.424 59.0411 269.98 61.3473 279.549 63.5917C281.292 64.0006 283.07 64.3177 284.756 64.9031C288.06 66.0503 289.451 68.2477 288.872 71.6781C288.237 75.4452 287.347 79.1684 286.539 82.9046C285.54 87.5293 284.573 92.1622 283.48 96.7642C282.468 101.028 281.295 105.252 280.22 109.501C279.492 112.378 278.82 115.269 278.108 118.15C276.999 122.638 275.831 127.111 274.778 131.611C274.064 134.662 273.571 137.767 272.862 140.819C271.698 145.825 270.421 150.803 269.226 155.801C268.301 159.671 267.356 163.539 266.558 167.437C265.969 170.308 262.502 172.91 258.332 171.693C250.068 169.28 241.767 166.999 233.499 164.6C228.763 163.226 224.064 161.724 219.344 160.292C218.974 160.179 218.577 160.161 218.307 160.117C219.09 157.804 219.998 155.543 220.619 153.203C222.054 147.788 217.978 142.735 212.256 142.201C208.941 141.892 206.186 142.594 203.696 144.923C203.641 145.025 203.646 145.027 203.529 145.042C202.7 145.62 201.987 146.183 201.274 146.747C200.967 147.028 200.66 147.31 200.234 147.726C200.023 147.931 199.955 148.019 199.911 148.126ZM239.117 143.649C243.94 143.159 248.287 141.395 252.12 138.413C261.542 131.083 265.616 117.298 260.648 105.698C257.83 99.1174 253.489 94.2271 246.798 91.5062C236.814 87.4469 227.745 88.9478 219.781 96.1153C208.363 106.391 207.488 124.157 217.675 135.712C221.189 139.698 225.629 142.15 231.081 143.196C232.659 143.36 234.236 143.524 236.032 143.712C236.177 143.696 236.322 143.68 236.687 143.757C237.401 143.713 238.116 143.668 239.117 143.649ZM268.33 84.6493C268.631 83.6726 268.932 82.696 269.233 81.7193C269.38 81.7327 269.527 81.7462 269.674 81.7596C269.998 82.899 270.446 84.0194 270.617 85.182C270.888 87.0294 272.019 87.3795 273.653 87.3606C273.179 85.5419 272.74 83.8561 272.304 82.1806C272.914 81.8643 273.563 81.7494 273.772 81.3782C274.407 80.2457 275.305 79.0022 275.273 77.8254C275.245 76.8109 274.291 75.4583 273.371 74.9227C272.124 74.1969 270.52 74.1082 268.971 73.7217C267.86 77.7978 266.807 81.6631 265.737 85.5893C266.929 85.868 268.006 86.7479 268.33 84.6493ZM260.98 84.4243C262.098 83.8721 263.727 83.6124 264.229 82.7062C265.24 80.8807 265.913 78.7446 266.214 76.6601C266.544 74.3754 265.207 72.7348 263.189 72.0936C261.298 71.493 259.028 72.1554 258.101 74.0522C257.253 75.7868 256.625 77.7587 256.449 79.6782C256.172 82.6895 257.7 84.1736 260.98 84.4243ZM222.19 75.0064C224.092 72.3953 224.092 72.3953 226.92 73.6485C227.155 76.9044 227.155 76.9044 228.993 76.7014C228.993 72.8051 229.012 68.9361 228.956 65.0683C228.951 64.7673 228.445 64.2646 228.125 64.2219C227.487 64.1369 226.459 64.0538 226.215 64.4108C223.949 67.7263 221.815 71.1357 219.522 74.7074C220.515 74.8646 221.228 74.9775 222.19 75.0064ZM241.872 77.3372C241.627 76.8476 241.381 76.3581 241.099 75.795C240.372 75.9743 239.691 76.1423 238.808 76.36C239.088 77.1079 239.243 77.769 239.564 78.3313C240.454 79.8881 243.055 80.6447 244.83 79.9256C246.17 79.3825 247.182 77.4429 246.54 75.8942C246.042 74.695 244.913 73.78 244.151 72.6767C243.738 72.0782 243.455 71.3661 243.244 70.6644C243.211 70.5527 244.107 69.9716 244.176 70.0377C244.724 70.5614 245.173 71.1911 245.659 71.783C245.726 71.8652 245.828 71.9184 245.985 72.0401C246.611 71.8252 247.281 71.5954 247.924 71.3748C247.647 69.0256 246.84 68.1422 244.711 67.7202C243.258 67.4322 241.999 67.7743 241.199 69.085C240.127 70.84 240.37 72.2665 241.888 73.8809C242.393 74.4187 243.023 74.8633 243.421 75.4696C243.746 75.9656 243.811 76.6387 243.992 77.2333C243.356 77.3188 242.721 77.4044 241.872 77.3372ZM234.622 75.7708C233.851 75.1737 233.079 74.5767 232.069 73.7945C231.818 73.8684 231.187 74.0544 230.512 74.2529C230.553 74.5634 230.567 74.787 230.614 75.0028C231.006 76.7907 232.322 77.9902 234.11 78.1836C235.66 78.3512 237.054 78.1358 237.846 76.5281C238.652 74.8897 238.283 73.2738 236.78 71.7751C236.137 71.1343 235.402 70.5485 234.923 69.7963C234.681 69.4164 234.916 68.7215 234.936 68.169C235.537 68.2453 236.237 68.1575 236.709 68.4498C237.089 68.6846 237.193 69.3798 237.441 69.9169C238.171 69.6118 238.781 69.3563 239.372 69.1089C238.991 66.8776 238.202 66.0302 236.317 65.7532C234.305 65.4573 233.13 66.0142 232.41 67.6045C231.691 69.1948 232.059 70.6094 233.561 72.0497C234.175 72.6379 234.833 73.189 235.377 73.8385C236.054 74.647 236.117 75.4007 234.622 75.7708ZM215.556 72.987C215.938 71.7561 216.319 70.5252 216.684 69.348C217.594 69.4377 218.374 69.5822 219.152 69.5771C220.809 69.5663 222.1 68.4689 222.493 66.7405C222.851 65.1647 222.648 63.6349 221.085 62.9041C219.787 62.2969 218.325 62.0251 216.91 61.7248C216.636 61.6666 216.03 62.1022 215.947 62.4125C214.983 66.0156 214.091 69.6385 213.044 73.7929C214.114 73.5618 214.808 73.412 215.556 72.987ZM250.595 69.4719C250.328 69.8135 249.923 70.1157 249.816 70.503C249.03 73.3602 248.261 76.2237 247.573 79.1066C247.058 81.2671 247.116 81.282 249.416 81.2088C249.802 79.9007 250.196 78.5651 250.587 77.2408C251.326 77.3616 251.875 77.4846 252.431 77.5362C254.47 77.7259 255.909 76.6497 256.379 74.6109C256.849 72.5727 256.014 71.0436 253.978 70.3551C252.965 70.0125 251.913 69.7897 250.595 69.4719ZM282.093 79.69C282.983 79.9279 283.646 79.6529 283.517 78.655C283.451 78.1407 282.983 77.3909 282.551 77.2647C280.625 76.7022 278.646 76.3263 276.714 75.8893C275.947 77.8032 275.964 77.7717 277.584 78.6823C277.864 78.8396 278.102 79.4133 278.06 79.7561C277.97 80.4835 277.664 81.1809 277.478 81.8989C276.954 83.9251 276.444 85.9556 275.893 88.1282C276.793 88.3167 277.467 88.4577 278.142 88.599C278.91 85.8094 279.666 83.2371 280.31 80.6362C280.541 79.7057 280.934 79.3562 282.093 79.69Z" fill="#025676"/>
<path d="M238 171.359C235.999 178.163 230.868 182.013 225.101 185.24C223.862 185.933 222.531 186.463 221.031 187.17C220.194 187.509 219.569 187.746 218.944 187.983C218.811 187.985 218.678 187.988 218.447 188.007C217.063 188.268 215.776 188.505 214.492 188.757C211.818 189.282 211.496 189.108 210.442 186.692C210.171 186.071 209.789 185.499 209.303 184.76C209.041 184.246 208.934 183.875 208.773 183.419C208.608 183.28 208.496 183.225 208.398 183.161C208.413 183.152 208.419 183.118 208.419 183.118C207.363 180.629 206.271 178.155 205.26 175.648C203.969 172.446 202.726 169.225 201.495 166C200.644 163.771 199.751 161.549 199.077 159.265C198.841 158.465 199.201 157.489 199.455 156.435C199.788 156.055 199.955 155.833 200.122 155.611C200.122 155.611 200.101 155.597 200.195 155.55C200.369 155.311 200.448 155.117 200.528 154.924C200.625 154.893 200.698 154.833 200.851 154.632C201.023 154.422 201.09 154.325 201.158 154.227C201.158 154.227 201.135 154.22 201.221 154.194C201.379 154.073 201.452 153.978 201.525 153.883C201.722 153.731 201.919 153.58 202.252 153.283C202.687 152.819 202.985 152.499 203.284 152.179C203.464 152.016 203.644 151.853 203.962 151.547C204.519 150.973 204.937 150.543 205.355 150.112C205.447 150.084 205.522 150.03 205.71 149.85C206.101 149.511 206.361 149.274 206.62 149.037C207.163 148.666 207.706 148.295 208.399 147.82C208.55 147.716 208.711 147.674 208.711 147.674C208.902 147.622 209.093 147.57 209.344 147.439C211.389 146.943 213.353 146.518 215.036 148.222C216.688 149.894 216.68 151.908 215.895 153.808C215.165 155.575 214.051 157.215 212.922 158.776C211.961 160.107 211.308 161.297 211.958 163.027C212.243 163.785 211.964 164.803 211.796 165.675C211.499 167.211 212.15 168.716 213.464 168.895C214.896 169.09 215.635 168.091 216.093 166.891C216.273 166.419 216.333 165.902 216.514 165.12C223.687 167.18 230.797 169.222 238 171.359Z" fill="#1192AA"/>
<path d="M206.766 252.657C206.23 252.493 205.694 252.329 205 252.117C205.028 251.771 205.064 251.325 205.106 250.626C205.114 250.118 205.116 249.864 205.119 249.61C205.23 248.581 205.341 247.553 205.529 246.314C205.659 245.914 205.712 245.725 205.767 245.453C205.769 245.37 205.766 245.203 205.768 245.117C205.77 244.974 205.771 244.917 205.772 244.86C206.046 243.218 206.32 241.577 206.566 239.735C206.62 238.938 206.7 238.342 206.78 237.745C206.884 237.373 206.989 237 207.09 236.505C207.407 234.51 207.772 232.645 208.039 230.765C208.851 225.052 209.607 219.33 210.426 213.618C210.694 211.747 211.045 209.887 211.442 208.041C211.663 207.016 212.313 206.844 213.327 207.114C216.757 208.03 220.217 208.827 224 209.75C223.472 211.638 222.988 213.617 222.364 215.548C220.765 220.497 219.111 225.428 217.465 230.361C215.124 237.374 212.79 244.39 210.387 251.381C210.171 252.009 209.471 252.462 208.872 253C208.383 252.893 208.02 252.782 207.431 252.667C207.059 252.661 206.913 252.659 206.766 252.657Z" fill="#025776"/>
<path d="M87.0363 53.6884C86.3041 54.0491 85.6944 54.3786 85.0547 54.6247C81.9853 55.805 79.7972 54.1123 80.2887 50.7965C80.6319 48.4817 81.2072 46.1925 81.8266 43.9351C82.664 40.8832 82.1245 38.6147 79.1824 37.3278C76.1219 35.9891 73.386 33.8574 70.5159 32.0592C70.2272 31.8783 69.9777 31.6214 69.7342 31.3743C67.1073 28.7083 67.4286 26.7389 70.9453 25.7687C73.6166 25.0318 76.4424 24.8899 79.2004 24.4902C80.3847 24.3185 81.6022 24.2865 82.7508 23.9776C85.4726 23.2459 87.049 21.4474 87.7118 18.5347C88.4776 15.1694 89.5782 11.8845 90.5662 8.57508C90.7146 8.07811 90.9999 7.60776 91.2928 7.17649C93.2383 4.31218 95.0461 4.225 96.7781 7.21229C98.6753 10.4844 100.331 13.9162 101.932 17.3575C103.13 19.9326 105.108 21.1618 107.785 20.7392C111.049 20.2239 114.317 19.6863 117.603 19.3893C118.67 19.2929 120.504 19.6428 120.743 20.2831C121.164 21.4139 121.076 23.2497 120.414 24.2146C118.423 27.1167 116.218 29.9114 113.784 32.4267C111.31 34.9846 110.908 36.1979 112.206 39.557C113.153 42.0079 113.992 44.5235 114.63 47.0765C115.425 50.2555 113.955 51.9175 110.761 51.7737C107.877 51.6439 105.693 49.8081 103.288 48.5166C102.581 48.1369 101.903 47.6941 101.23 47.2505C98.002 45.1222 96.5436 45.2704 93.6303 47.9146C91.4978 49.8503 89.3088 51.7197 87.0363 53.6884Z" fill="#1293AB"/>
<path d="M209.516 183.509C209.659 184.021 209.802 184.532 210 185.198C209.148 185.812 208.251 186.298 207.328 186.722C206.971 186.886 206.556 186.911 206.167 187C206.123 186.577 205.886 185.984 206.068 185.761C206.855 184.796 207.765 183.939 208.802 183.01C208.974 182.977 208.967 183.025 209.012 183.153C209.21 183.357 209.363 183.433 209.516 183.509Z" fill="#054C5D"/>
<path d="M202 146.973C202.876 146.621 203.858 146.315 204.998 146C205.048 146.766 204.014 147.101 202 146.973Z" fill="#034657"/>
<path d="M199 151C199.249 150.015 199.564 149.026 199.936 148C200.082 149.369 200.055 149.459 199 151Z" fill="#034657"/>
<path d="M205 150C204.769 150.644 204.423 151.276 204 152C204.243 151.391 204.564 150.69 205 150Z" fill="#034657"/>
<path d="M203 153.015C202.853 153.329 202.591 153.635 202.249 154C201.69 153.129 202.13 152.941 203 153.015Z" fill="#034657"/>
<path d="M206 149C205.82 149.31 205.477 149.628 205 150C205.19 149.705 205.513 149.357 206 149Z" fill="#034657"/>
<path d="M202 240.804C202.16 239.014 202.408 237.29 202.662 235.406C203.154 235.157 203.677 234.915 204.112 235.029C204.475 235.125 205.047 235.858 204.997 235.935C203.992 237.46 203.966 239.125 204.192 240.984C203.48 241.037 202.784 240.955 202 240.804Z" fill="#054757"/>
<path d="M204.943 245.934C205.005 246.04 205.004 246.084 204.965 246.218C204.952 246.377 204.976 246.446 205 246.516C204.96 246.661 204.92 246.806 204.823 247C204.256 246.602 203.746 246.155 203 245.502C203.744 245.266 204.139 245.141 204.582 245C204.696 245.333 204.788 245.603 204.943 245.934Z" fill="#054757"/>
<path d="M204.863 250.018C205.008 250.31 205.006 250.584 204.996 250.996C203.993 251.023 202.997 250.914 202 250.804C202.011 250.536 202.021 250.268 202.032 250C202.926 250 203.82 250 204.863 250.018Z" fill="#054757"/>
<path d="M205.987 238C206.03 238.626 205.962 239.251 205.851 240C205.539 239.604 205.27 239.083 205 238.563C205.292 238.375 205.584 238.186 205.987 238Z" fill="#054757"/>
<path d="M214.135 256C214.778 256.123 215.352 256.33 216 256.611C214.924 256.977 213.563 257.485 214.135 256Z" fill="#054757"/>
<path d="M213 258.026C213.307 257.944 213.654 258.073 214 258.203C213.967 258.802 213.933 259.401 213.9 260C213.613 259.413 213.326 258.825 213 258.026Z" fill="#054B5D"/>
<path d="M216.614 258C216.823 258.051 216.903 258.14 217 258.363C216.862 258.974 216.688 259.487 216.517 260C215.812 258.794 215.812 258.794 216.614 258Z" fill="#054B5D"/>
<path d="M202.192 243C201.999 242.45 201.999 241.898 202 241.071C202.627 240.918 203.252 241.042 203.878 241.166C203.918 241.446 203.959 241.726 204 242.006C203.462 242.337 202.924 242.668 202.192 243Z" fill="#054757"/>
<path d="M200 255.002C199.897 255.444 199.679 255.722 199.461 256C199.307 255.757 199.154 255.513 199 255.27C199.295 255.126 199.59 254.982 200 255.002Z" fill="#054757"/>
<path d="M218 261C218.446 261.239 218.72 261.551 219 262C218.613 261.782 218.221 261.428 218 261Z" fill="#054757"/>
<path d="M218 188.768C218.797 188.506 219.798 188.265 221 188C220.916 189.311 219.564 189.056 218 188.768Z" fill="#03495B"/>
<path d="M84.6723 98.5885C88.6115 97.548 92.396 96.3999 96.2507 95.6319C101.931 94.5002 107.629 93.2705 113.376 92.7455C123.158 91.8518 132.957 91.5402 142.766 93.0788C152.742 94.6435 157.564 101.538 160.33 110.618C162.981 119.32 162.292 128.09 159.558 136.602C157.605 142.679 154.097 147.872 149.49 152.228C144.703 156.754 139.07 159.721 133.071 161.995C129.536 163.335 125.968 164.655 122.319 165.575C118.631 166.505 114.845 167.221 111.065 167.508C105.742 167.912 100.367 168.167 95.0465 167.872C89.3444 167.556 83.8974 165.706 78.5838 163.483C73.3578 161.297 68.6781 158.182 64.9963 153.849C59.488 147.368 56.4001 139.662 56.0349 130.926C55.6404 121.49 58.568 113.495 65.9013 107.626C70.0942 104.27 74.9677 102.186 79.8958 100.283C81.4295 99.6902 82.997 99.1921 84.6723 98.5885ZM128.062 137.207C126.141 136.258 125.318 136.602 123.977 138.273C122.649 139.927 121.295 141.752 119.564 142.824C115.606 145.274 111.32 145.942 107.076 143.44C105.893 142.743 104.958 141.594 103.895 140.672C102.584 139.534 101.197 139.414 100.106 140.315C99.0803 141.163 98.9222 142.727 99.7548 144.257C101.763 147.947 104.967 149.896 108.846 150.634C111.698 151.176 114.546 151.019 117.414 150.245C121.951 149.021 125.681 146.709 128.264 142.586C129.416 140.747 129.396 138.879 128.062 137.207ZM142.51 122.334C142.502 119.682 141.848 117.251 140.308 115.095C138.224 112.178 134.234 111.733 132.179 114.096C128.691 118.107 129.023 124.916 131.429 128.503C133.487 131.57 138.963 132.491 140.975 128.305C141.813 126.562 142.059 124.511 142.51 122.334ZM81.147 123.467C79.4478 127.759 79.6496 131.913 82.18 135.786C84.5838 139.466 89.8552 139.112 91.7967 135.128C93.5638 131.502 93.2621 127.85 91.7804 124.131C90.7401 121.52 89.0169 120.046 86.4002 119.958C84.113 119.881 82.4317 121.222 81.147 123.467Z" fill="#FCDAA4"/>
<path d="M136.888 194.464C137.245 197.581 136.827 198.31 134.473 198.876C132.617 199.322 131.634 198.578 131.273 196.437C131.215 196.089 131.233 195.723 131.169 195.376C130.527 191.934 131.768 191.796 134.008 191.137C135.844 190.596 136.654 191.65 136.888 194.464Z" fill="#094A5C"/>
<path d="M121.431 199.271C121.275 198.057 121.09 196.997 121.012 195.926C120.974 195.408 121.02 194.786 121.233 194.354C122.051 192.701 123.598 193.089 124.811 193.001C125.392 192.959 126.145 194.198 126.625 195.017C126.91 195.505 126.804 196.307 126.894 196.964C127.091 198.407 127.156 199.807 125.765 200.51C123.918 201.443 122.452 201.052 121.431 199.271Z" fill="#08495B"/>
<path d="M110.855 200.948C110.486 199.192 109.917 197.518 110.01 195.886C110.119 193.985 112.013 194.179 113.23 194.009C113.918 193.913 115.174 194.598 115.389 195.229C115.869 196.637 115.922 198.228 115.999 199.753C116.019 200.131 115.501 200.846 115.176 200.884C113.777 201.044 112.358 201.011 110.855 200.948Z" fill="#094A5C"/>
<path d="M72.8848 201.2C73.5412 201.137 74.1492 200.882 74.5727 201.065C75.268 201.367 75.957 201.86 76.4308 202.452C76.7591 202.862 76.7187 203.576 76.8475 204.153C77.4625 206.907 76.196 208.382 73.4367 207.914C72.7343 207.795 71.8263 207.155 71.5653 206.52C71.129 205.458 70.8887 204.17 71.0508 203.049C71.1499 202.365 72.1553 201.816 72.8848 201.2Z" fill="#094A5C"/>
<path d="M83.8406 207C81.7455 207.003 81.3963 206.615 81.2103 204.248C81.1679 203.709 81.0666 203.178 81.0188 202.64C80.9235 201.566 81.1759 200.679 82.1134 200.376C84.6427 199.558 85.7701 199.955 85.7953 202.771C85.7991 203.199 85.9153 203.625 85.9544 204.055C86.1468 206.172 85.783 206.704 83.8406 207Z" fill="#094A5C"/>
<path d="M100.356 200.974C100.332 200.628 100.357 200.431 100.304 200.258C99.2014 196.669 101.217 196.056 104.457 196C104.635 195.997 104.821 196.068 104.993 196.131C107.435 197.034 106.589 199.372 106.945 201.09C107.229 202.468 106.399 203.428 104.791 203.746C101.637 204.371 100.821 203.983 100.356 200.974Z" fill="#08495B"/>
<path d="M91.8862 198.398C93.0646 198.22 94.1925 197.85 95.1725 198.066C96.9988 198.468 96.8311 200.149 96.9696 201.438C97.2677 204.212 95.345 205.58 92.448 204.768C92.1871 204.695 91.9159 204.558 91.7245 204.38C90.7128 203.442 90.7552 199.549 91.8862 198.398Z" fill="#094A5C"/>
<path d="M230.551 241.285C228.452 235.72 228.472 230.274 230.68 224.912C234.57 215.465 244.167 210.936 252.458 213.901C263.005 217.672 267.727 227.344 265.431 237.827C262.9 249.387 251.696 255.336 241.394 252.144C236.197 250.534 232.585 246.708 230.551 241.285ZM247.639 226.384C245.887 225.631 244.136 224.878 242.177 224.035C241.396 225.936 240.62 227.822 239.77 229.89C242.078 230.704 244.185 231.447 246.627 232.309C247.069 230.254 247.471 228.386 247.639 226.384ZM253.099 234.341C253.944 234.599 254.79 234.857 255.927 235.203C256.165 232.979 256.389 230.897 256.609 228.845C254.485 228.333 252.648 227.891 250.636 227.406C250.095 229.182 249.549 230.972 248.958 232.912C250.329 233.373 251.592 233.797 253.099 234.341ZM260.439 228.98C259.606 228.87 259.145 229.01 259.083 230.108C258.973 232.048 258.621 233.974 258.344 236.11C259.741 236.594 261.174 237.092 262.974 237.717C263.105 235.346 263.33 233.351 263.296 231.36C263.254 228.96 263.159 228.962 260.439 228.98ZM251.318 236.531C250.275 236.202 249.232 235.872 248.152 235.531C247.638 237.112 247.186 238.501 246.717 239.945C247.477 240.279 248.069 240.68 248.708 240.79C250.118 241.033 251.233 243.236 252.656 242.005C253.708 241.095 254.062 239.33 254.722 237.944C254.741 237.904 254.708 237.839 254.679 237.654C253.685 237.312 252.634 236.949 251.318 236.531ZM237.893 227.326C238.532 225.795 239.172 224.265 239.871 222.592C239.057 222.103 238.267 221.555 237.412 221.153C237.1 221.006 236.464 221.048 236.264 221.273C234.671 223.07 233.294 225.014 232.83 227.581C234.339 228.113 235.748 228.61 237.233 229.134C237.466 228.536 237.652 228.059 237.893 227.326ZM238.715 235.558C238.654 236.39 238.593 237.222 238.534 238.029C240.54 238.378 242.294 238.682 244.134 239.002C244.637 237.543 245.117 236.154 245.631 234.664C243.403 233.938 241.347 233.269 239.125 232.545C238.989 233.56 238.876 234.41 238.715 235.558ZM234.006 237.584C234.596 237.584 235.185 237.584 235.806 237.584C236.042 235.476 236.251 233.607 236.471 231.644C234.967 231.112 233.557 230.613 231.644 229.936C231.769 232.221 231.922 234.176 231.967 236.134C231.996 237.406 232.653 237.704 234.006 237.584ZM255.665 244.978C256.3 245.331 256.934 245.684 257.854 246.196C259.231 244.28 260.588 242.391 262.13 240.246C260.269 239.589 258.925 239.115 257.681 238.675C256.815 240.312 255.983 241.75 255.304 243.261C255.119 243.671 255.399 244.303 255.665 244.978ZM249.329 222.685C249.78 220.986 250.231 219.287 250.741 217.368C247.654 217.658 245.733 219.361 243.88 221.669C245.602 222.533 247.184 223.326 248.821 224.146C249.023 223.586 249.139 223.265 249.329 222.685ZM245.194 244.989C244.777 246.431 244.361 247.873 243.907 249.447C246.844 248.855 249.184 247.253 250.643 244.875C249.153 244.083 247.679 243.3 246.019 242.417C245.73 243.339 245.51 244.037 245.194 244.989ZM251.63 224.301C251.619 224.469 251.573 224.778 251.603 224.786C253.163 225.202 254.729 225.592 256.451 226.024C255.725 221.381 255.2 220.073 253.32 218.173C252.761 220.195 252.23 222.117 251.63 224.301ZM240.599 247.555C240.933 247.542 241.523 247.619 241.562 247.502C242.196 245.61 242.761 243.693 243.395 241.603C241.753 241.302 240.263 241.028 238.773 240.754C238.602 240.899 238.43 241.045 238.258 241.19C238.99 243.239 239.722 245.289 240.599 247.555ZM257.9 220.618C258.334 222.497 258.768 224.377 259.218 226.325C260.035 226.325 260.937 226.325 262.074 226.325C260.946 223.982 260.103 221.745 257.9 220.618ZM244.312 216.233C242.502 216.933 240.692 217.632 238.882 218.331C238.899 218.502 238.916 218.672 238.933 218.842C239.742 219.307 240.55 219.771 241.284 220.193C242.836 218.765 244.281 217.437 245.852 215.993C245.32 216.054 244.936 216.099 244.312 216.233ZM236.202 243.261C236.024 242.249 235.847 241.237 235.663 240.194C234.818 240.194 234.018 240.194 232.654 240.194C234.014 242.262 235.136 243.966 236.257 245.67C236.39 245.605 236.524 245.541 236.657 245.477C236.516 244.831 236.374 244.186 236.202 243.261ZM251.633 248.098C251.01 248.691 250.388 249.283 249.766 249.876C249.826 249.983 249.885 250.089 249.945 250.196C251.677 249.523 253.408 248.85 255.259 248.13C253.451 246.349 253.451 246.349 251.633 248.098Z" fill="#6CB6BE"/>
<path d="M236.598 260.833C238.369 261.373 240.002 261.902 241.655 262.372C242.881 262.721 243.269 263.442 242.818 264.567C242.37 265.685 242.425 267.416 240.396 266.909C237.658 266.226 234.95 265.427 232.241 264.638C230.649 264.175 230.905 263.08 231.292 261.912C231.656 260.812 231.841 259.624 233.556 260.113C234.513 260.386 235.497 260.572 236.598 260.833Z" fill="#6CB6BE"/>
<path d="M232.21 143.306C226.986 142.456 222.563 139.978 219.062 135.947C208.912 124.261 209.783 106.295 221.159 95.9035C229.094 88.6553 238.131 87.1375 248.077 91.2425C254.744 93.994 259.069 98.9394 261.877 105.594C266.826 117.325 262.768 131.265 253.38 138.677C249.561 141.693 245.23 143.477 240.189 143.871C239.231 143.843 238.508 143.915 237.785 143.988C237.64 144.004 237.496 144.02 237.154 143.922C235.375 143.641 233.792 143.473 232.21 143.306ZM250.25 95.4768C250.226 95.4807 250.203 95.4845 250.179 95.4883C250.212 95.5078 250.244 95.5272 250.284 95.8057C251.245 99.5058 252.206 103.206 253.224 107.126C255.103 107.387 257.345 107.699 259.801 108.04C258.594 104.195 256.728 101.03 254.052 98.4291C252.92 97.3284 251.527 96.5141 250.25 95.4768ZM254.072 122.462C253.057 122.203 252.042 121.945 251.053 121.693C249.862 124.568 248.728 127.304 247.498 130.273C249.639 131.247 251.758 132.25 253.916 133.151C254.266 133.297 254.972 133.143 255.214 132.858C257.347 130.333 259.202 127.625 260.07 124.195C258.093 123.63 256.213 123.092 254.072 122.462ZM221.02 110.982C222.364 111.305 223.707 111.628 224.887 111.913C226.034 108.994 227.123 106.221 228.281 103.274C225.87 102.236 223.37 101.16 220.866 100.082C218.696 103.076 216.606 105.969 215.863 109.616C217.607 110.081 219.178 110.499 221.02 110.982ZM260.92 121.086C260.952 118.171 261.017 115.255 260.981 112.341C260.975 111.863 260.597 111.042 260.272 110.972C257.841 110.451 255.381 110.079 252.929 109.66C252.502 112.957 252.113 115.966 251.691 119.227C254.687 119.914 257.711 120.608 260.92 121.086ZM223.874 117.618C224 116.613 224.126 115.608 224.268 114.481C221.207 113.723 218.256 112.992 215.194 112.234C214.471 115.796 214.555 119.09 215.323 122.369C215.384 122.627 215.748 122.992 215.977 122.996C218.402 123.042 220.828 123.025 223.294 123.025C223.469 121.453 223.665 119.69 223.874 117.618ZM239.783 114.954C240.063 115.336 240.272 115.944 240.633 116.063C242.179 116.571 243.768 116.939 245.343 117.35C246.613 117.682 247.886 118.002 249.404 118.391C249.756 115.173 250.071 112.279 250.395 109.316C247.719 108.897 245.341 108.578 242.984 108.133C241.827 107.915 241.378 108.349 241.141 109.463C240.769 111.212 240.272 112.932 239.783 114.954ZM235.141 106.158C233.68 105.628 232.218 105.099 230.555 104.497C229.48 107.294 228.462 109.943 227.402 112.698C230.796 113.545 233.832 114.303 237.053 115.107C237.737 112.507 238.416 109.926 239.111 107.282C237.775 106.905 236.588 106.571 235.141 106.158ZM247.746 123.392C247.774 122.491 249.164 121.284 247.636 120.75C244.85 119.775 241.953 119.14 238.937 118.319C238.248 120.945 237.615 123.362 236.954 125.882C238.194 126.318 239.261 126.631 240.281 127.063C245.639 129.333 245.635 129.344 247.746 123.392ZM231.953 124.753C232.394 124.832 232.858 125.037 233.269 124.955C233.741 124.861 234.448 124.612 234.564 124.259C235.259 122.138 235.814 119.968 236.452 117.682C233.274 116.84 230.208 116.028 226.768 115.117C226.48 117.681 226.237 120.071 225.934 122.453C225.799 123.515 226.235 123.888 227.2 124.006C228.696 124.189 230.178 124.488 231.953 124.753ZM242.159 95.3813C242.384 94.4631 242.608 93.5449 242.958 92.1163C237.86 94.2228 234.826 97.8652 231.988 102.182C234.681 103.101 237.14 103.939 239.699 104.812C240.561 101.551 241.34 98.6072 242.159 95.3813ZM242.575 104.189C242.811 104.665 242.98 105.495 243.294 105.558C245.514 106.007 247.765 106.297 249.999 106.637C250.628 102.41 247.882 94.8295 245.345 93.5695C244.448 97.0263 243.554 100.471 242.575 104.189ZM232.099 133.773C232.596 131.802 233.093 129.832 233.636 127.681C230.917 127.223 228.524 126.819 225.907 126.378C226.258 131.407 227.108 135.997 230.015 139.883C230.196 139.869 230.378 139.855 230.559 139.841C231.058 137.913 231.556 135.985 232.099 133.773ZM239.02 137.056C240.595 135.25 242.171 133.444 243.972 131.379C241.106 130.286 238.739 129.383 236.266 128.44C235.157 132.643 234.14 136.498 233.059 140.598C235.574 140.127 237.243 138.739 239.02 137.056ZM223.404 97.5691C223.708 97.9178 223.947 98.408 224.325 98.5908C226.042 99.4207 227.798 100.164 229.319 100.84C232.021 97.7899 234.673 94.7963 237.311 91.8176C232.121 91.8155 227.694 94.1986 223.404 97.5691ZM218.225 130.194C220.091 133.459 222.472 136.179 225.492 137.845C224.845 134.328 224.224 130.726 223.479 127.152C223.378 126.666 222.686 125.992 222.23 125.959C220.366 125.823 218.486 125.902 216.277 125.902C216.9 127.313 217.49 128.65 218.225 130.194ZM242.333 137.341C240.989 138.659 239.645 139.976 238.08 141.51C243.603 141.03 248.376 139.561 252.6 135.604C250.202 134.493 248.095 133.517 246.074 132.581C244.8 134.202 243.642 135.676 242.333 137.341Z" fill="#6DB6BE"/>
<path d="M268.677 84.3485C268.379 86.3704 267.25 85.4672 266 85.1812C267.122 81.1512 268.226 77.1838 269.391 73C271.015 73.3967 272.698 73.4877 274.005 74.2327C274.969 74.7825 275.97 76.1708 275.999 77.2121C276.033 78.42 275.091 79.6963 274.425 80.8587C274.207 81.2398 273.526 81.3577 272.886 81.6823C273.344 83.4022 273.804 85.1325 274.3 86.9993C272.588 87.0186 271.401 86.6593 271.117 84.7631C270.938 83.5698 270.468 82.4197 270.129 81.2503C269.974 81.2365 269.82 81.2227 269.666 81.2089C269.35 82.2114 269.035 83.2138 268.677 84.3485ZM270.504 78.8054C271.012 78.9126 271.63 79.2506 272.001 79.0736C272.574 78.8005 273.355 78.1703 273.35 77.6996C273.344 77.1875 272.632 76.4723 272.063 76.2281C271.24 75.875 270.787 76.4456 270.722 77.3203C270.693 77.7214 270.54 78.1134 270.504 78.8054Z" fill="#71B9BF"/>
<path d="M261.039 84C258.173 83.7442 256.776 82.2059 257.029 79.0845C257.19 77.0947 257.764 75.0507 258.539 73.2527C259.387 71.2865 261.461 70.5999 263.189 71.2224C265.034 71.887 266.256 73.5877 265.954 75.956C265.679 78.1167 265.064 80.3309 264.14 82.2231C263.681 83.1625 262.193 83.4317 261.039 84ZM259.201 78.2C259.113 79.6113 259.085 81.0248 260.594 81.4945C261.657 81.8254 262.953 80.6947 263.396 79.0126C263.646 78.0598 263.927 77.0012 263.795 76.0651C263.675 75.2148 263.145 74.0256 262.558 73.7944C261.952 73.556 260.795 74.0445 260.353 74.6649C259.743 75.5222 259.577 76.8007 259.201 78.2Z" fill="#71B9BF"/>
<path d="M222.417 74.3596C221.621 74.2922 220.944 74.1849 220 74.0355C222.179 70.641 224.205 67.4007 226.358 64.2497C226.59 63.9103 227.566 63.9893 228.172 64.0701C228.476 64.1107 228.957 64.5885 228.962 64.8745C229.015 68.5505 228.997 72.2276 228.997 75.9306C227.251 76.1236 227.251 76.1236 227.028 73.0291C224.342 71.8381 224.342 71.8381 222.417 74.3596ZM226.079 68.6149C225.836 69.0668 225.592 69.5188 225.296 70.0684C225.946 70.217 226.44 70.3299 226.943 70.4447C226.943 69.4126 226.943 68.4917 226.943 67.2154C226.558 67.8211 226.369 68.1191 226.079 68.6149Z" fill="#71B9BF"/>
<path d="M242.783 78.1201C243.434 78.1106 243.992 78.0221 244.549 77.9336C244.391 77.3189 244.334 76.6231 244.048 76.1103C243.699 75.4834 243.146 75.0237 242.703 74.4677C241.371 72.7985 241.157 71.3238 242.098 69.5092C242.8 68.1542 243.905 67.8005 245.18 68.0982C247.049 68.5345 247.757 69.4479 248 71.8767C247.436 72.1047 246.848 72.3423 246.298 72.5645C246.16 72.4386 246.071 72.3837 246.012 72.2987C245.586 71.6868 245.191 71.0357 244.711 70.4943C244.65 70.4259 243.864 71.0267 243.893 71.1422C244.078 71.8677 244.326 72.6039 244.689 73.2226C245.358 74.3634 246.349 75.3094 246.785 76.5493C247.349 78.1504 246.461 80.1558 245.285 80.7172C243.727 81.4607 241.444 80.6785 240.664 79.0689C240.382 78.4875 240.246 77.804 240 77.0307C240.774 76.8057 241.372 76.632 242.01 76.4466C242.258 77.0288 242.474 77.535 242.783 78.1201Z" fill="#71B9BF"/>
<path d="M235.788 75.446C237.326 75.0691 237.254 74.2886 236.491 73.4514C235.877 72.7788 235.134 72.2081 234.441 71.5991C232.746 70.1075 232.33 68.6427 233.142 66.9958C233.954 65.3491 235.281 64.7724 237.552 65.0788C239.679 65.3657 240.57 66.2431 241 68.5537C240.333 68.8099 239.644 69.0745 238.821 69.3905C238.541 68.8342 238.422 68.1144 237.994 67.8712C237.461 67.5686 236.671 67.6595 235.992 67.5804C235.971 68.1525 235.705 68.8721 235.978 69.2656C236.519 70.0445 237.349 70.6512 238.074 71.3147C239.771 72.8666 240.187 74.54 239.277 76.2365C238.384 77.9014 236.81 78.1245 235.061 77.9509C233.043 77.7507 231.557 76.5085 231.115 74.6571C231.061 74.4336 231.046 74.2021 231 73.8805C231.761 73.6749 232.474 73.4824 232.757 73.4058C233.897 74.2159 234.768 74.8341 235.788 75.446Z" fill="#73BAC0"/>
<path d="M216.33 72.3357C215.654 72.6214 215.003 72.7703 214 73C214.981 68.8708 215.818 65.27 216.721 61.6888C216.799 61.3803 217.368 60.9474 217.624 61.0052C218.95 61.3037 220.321 61.5738 221.538 62.1774C223.003 62.9037 223.194 64.4242 222.858 65.9905C222.489 67.7084 221.279 68.799 219.726 68.8098C218.996 68.8149 218.266 68.6712 217.413 68.5821C217.071 69.7521 216.713 70.9756 216.33 72.3357ZM218.477 63.7659C218.276 64.5436 218.076 65.3213 217.843 66.2244C218.469 66.3274 218.959 66.5803 219.25 66.4183C219.774 66.1267 220.543 65.604 220.562 65.1467C220.612 63.9342 219.654 63.6965 218.477 63.7659Z" fill="#71B9BF"/>
<path d="M251.354 69C252.505 69.3294 253.534 69.5762 254.526 69.9556C256.518 70.7182 257.335 72.412 256.875 74.6696C256.415 76.9279 255.007 78.1199 253.012 77.9098C252.468 77.8526 251.931 77.7164 251.207 77.5826C250.825 79.0495 250.44 80.5288 250.062 81.9778C247.811 82.0589 247.754 82.0423 248.259 79.6492C248.932 76.456 249.685 73.2842 250.454 70.1195C250.558 69.6905 250.954 69.3558 251.354 69ZM252.05 73.5432C251.991 74.0609 251.933 74.5786 251.865 75.1794C253.03 75.2577 254.2 75.8025 254.477 74.1815C254.562 73.6814 253.941 72.8408 253.465 72.4354C252.72 71.8013 252.283 72.3556 252.05 73.5432Z" fill="#71B9BF"/>
<path d="M281.561 79.8481C280.618 79.546 280.259 79.9036 280.047 80.8553C279.457 83.5156 278.765 86.1467 278.06 89C277.442 88.8555 276.825 88.7112 276 88.5184C276.506 86.2962 276.972 84.2194 277.453 82.1469C277.623 81.4124 277.903 80.6992 277.985 79.9551C278.024 79.6045 277.806 79.0177 277.55 78.8567C276.066 77.9254 276.05 77.9576 276.752 76C278.522 76.447 280.335 76.8315 282.1 77.4068C282.496 77.5359 282.924 78.3029 282.985 78.8289C283.104 79.8495 282.496 80.1308 281.561 79.8481Z" fill="#71B9BF"/>
<path d="M232 143C233.25 143.126 234.588 143.461 236 144C234.746 143.872 233.417 143.541 232 143Z" fill="#73BAC0"/>
<path d="M127.064 136.557C128.287 138.138 128.307 139.973 127.151 141.78C124.558 145.831 120.814 148.102 116.26 149.304C113.382 150.064 110.523 150.218 107.661 149.685C103.767 148.961 100.552 147.046 98.5363 143.421C97.7007 141.919 97.8593 140.382 98.8886 139.55C99.9835 138.664 101.376 138.782 102.692 139.9C103.759 140.806 104.697 141.934 105.884 142.619C110.144 145.077 114.446 144.421 118.418 142.014C120.156 140.961 121.515 139.168 122.848 137.543C124.194 135.902 125.02 135.564 127.064 136.557Z" fill="#06485B"/>
<path d="M142 121.594C141.478 123.577 141.212 125.567 140.306 127.259C138.131 131.32 132.212 130.426 129.987 127.45C127.386 123.97 127.027 117.364 130.798 113.472C133.019 111.179 137.332 111.612 139.585 114.442C141.25 116.533 141.956 118.893 142 121.594Z" fill="#06495B"/>
<path d="M81.0621 123.137C82.2028 121.172 83.76 119.932 85.8783 120.003C88.3019 120.084 89.8979 121.447 90.8614 123.861C92.2337 127.299 92.5131 130.675 90.8765 134.027C89.0783 137.71 84.196 138.038 81.9696 134.636C79.626 131.056 79.4392 127.215 81.0621 123.137Z" fill="#064A5C"/>
<path d="M248 225.628C247.75 227.733 247.398 229.765 247.01 232C244.87 231.063 243.023 230.255 241 229.369C241.746 227.119 242.425 225.068 243.11 223C244.827 223.917 246.362 224.736 248 225.628Z" fill="#045473"/>
<path d="M252.678 233.172C251.41 232.737 250.255 232.356 249 231.943C249.541 230.201 250.04 228.594 250.535 227C252.376 227.435 254.057 227.832 256 228.291C255.799 230.134 255.595 232.002 255.376 234C254.336 233.689 253.562 233.457 252.678 233.172Z" fill="#045473"/>
<path d="M260.723 228.035C263.83 228.009 263.946 228.007 263.996 230.472C264.037 232.516 263.765 234.565 263.606 237C261.426 236.358 259.691 235.847 258 235.349C258.335 233.156 258.761 231.178 258.894 229.186C258.969 228.058 259.528 227.915 260.723 228.035Z" fill="#045473"/>
<path d="M251.136 235.901C252.17 236.243 253.089 236.561 253.957 236.861C253.983 237.023 254.012 237.08 253.995 237.115C253.418 238.33 253.109 239.876 252.189 240.674C250.946 241.754 249.972 239.822 248.74 239.609C248.181 239.513 247.664 239.161 247 238.869C247.41 237.603 247.805 236.386 248.254 235C249.198 235.299 250.109 235.587 251.136 235.901Z" fill="#045272"/>
<path d="M238.721 226.542C238.479 227.067 238.268 227.481 238.003 228C236.315 227.545 234.714 227.114 233 226.652C233.528 224.425 235.091 222.738 236.902 221.179C237.129 220.983 237.851 220.947 238.206 221.075C239.177 221.423 240.075 221.899 241 222.323C240.205 223.775 239.479 225.103 238.721 226.542Z" fill="#045473"/>
<path d="M239.202 235.661C239.337 234.733 239.449 233.944 239.583 233C241.775 233.672 243.803 234.295 246 234.969C245.493 236.353 245.02 237.644 244.523 239C242.709 238.703 240.979 238.419 239 238.095C239.058 237.346 239.119 236.573 239.202 235.661Z" fill="#045473"/>
<path d="M233.832 236.977C232.836 237.095 232.292 236.785 232.268 235.46C232.231 233.419 232.104 231.382 232 229C233.585 229.706 234.754 230.225 236 230.78C235.818 232.825 235.645 234.773 235.449 236.97C234.934 236.97 234.446 236.97 233.832 236.977Z" fill="#045473"/>
<path d="M255.328 244.628C255.159 243.987 254.874 243.315 255.062 242.878C255.752 241.27 256.598 239.741 257.478 238C258.743 238.467 260.109 238.972 262 239.67C260.433 241.952 259.053 243.963 257.654 246C256.719 245.456 256.074 245.08 255.328 244.628Z" fill="#045272"/>
<path d="M249.521 221.821C249.365 222.22 249.248 222.503 249.041 223C247.371 222.273 245.758 221.572 244 220.807C245.891 218.764 247.851 217.256 251 217C250.48 218.699 250.02 220.202 249.521 221.821Z" fill="#045272"/>
<path d="M245.388 244.434C245.666 243.612 245.894 242.918 246.195 242C247.92 242.879 249.452 243.659 251 244.448C249.484 246.815 247.053 248.41 244 249C244.472 247.432 244.905 245.997 245.388 244.434Z" fill="#045272"/>
<path d="M252.058 224.111C252.524 222.019 252.961 220.06 253.422 218C254.97 219.935 255.403 221.269 256 226C254.582 225.56 253.292 225.162 252.008 224.739C251.983 224.731 252.021 224.416 252.058 224.111Z" fill="#045473"/>
<path d="M240.766 246.882C240.14 244.664 239.57 242.556 239 240.448C239.134 240.298 239.268 240.149 239.401 240C240.561 240.281 241.721 240.563 243 240.873C242.506 243.022 242.067 244.993 241.573 246.939C241.542 247.06 241.083 246.98 240.766 246.882Z" fill="#045473"/>
<path d="M258 221C260.091 222.062 260.907 223.985 262 226C260.899 226 260.024 226 259.232 226C258.797 224.325 258.376 222.709 258 221Z" fill="#045473"/>
<path d="M244.574 216.232C245.08 216.126 245.466 216.073 246 216C244.423 217.719 242.972 219.3 241.412 221C240.675 220.498 239.863 219.945 239.051 219.391C239.034 219.189 239.017 218.986 239 218.784C240.818 217.951 242.635 217.119 244.574 216.232Z" fill="#045272"/>
<path d="M236.561 242.928C236.717 243.645 236.859 244.235 237 244.824C236.867 244.883 236.734 244.941 236.6 245C235.48 243.444 234.359 241.888 233 240C234.363 240 235.163 240 236.007 240C236.19 240.952 236.368 241.876 236.561 242.928Z" fill="#045272"/>
<path d="M251.792 247.095C253.354 245.62 253.354 245.62 255 247.185C253.315 247.817 251.739 248.409 250.163 249C250.109 248.906 250.054 248.813 250 248.719C250.566 248.198 251.133 247.678 251.792 247.095Z" fill="#045272"/>
<path d="M253.4 122.85C255.319 123.459 257.113 124.019 259 124.608C258.171 128.183 256.401 131.005 254.365 133.636C254.134 133.934 253.46 134.094 253.127 133.942C251.066 133.003 249.044 131.957 247 130.942C248.174 127.848 249.257 124.997 250.394 122C251.338 122.263 252.306 122.532 253.4 122.85Z" fill="#035574"/>
<path d="M220.257 111.023C218.471 110.566 216.826 110.142 215 109.671C215.778 105.971 217.966 103.037 220.238 100C222.86 101.094 225.476 102.185 228 103.238C226.788 106.227 225.648 109.039 224.448 112C223.212 111.712 221.806 111.384 220.257 111.023Z" fill="#035574"/>
<path d="M259.86 122C257.179 121.34 254.577 120.558 252 119.784C252.363 116.108 252.698 112.717 253.065 109C255.174 109.472 257.291 109.891 259.381 110.478C259.661 110.557 259.987 111.483 259.992 112.022C260.022 115.307 259.966 118.593 259.86 122Z" fill="#035574"/>
<path d="M223.582 117.644C223.37 119.599 223.165 121.395 222.982 122.997C220.406 122.997 217.871 123.014 215.337 122.968C215.098 122.963 214.718 122.591 214.655 122.329C213.852 118.987 213.764 115.631 214.52 112C217.719 112.773 220.802 113.517 224 114.29C223.852 115.439 223.72 116.463 223.582 117.644Z" fill="#035574"/>
<path d="M240 114.527C240.441 112.707 240.91 111.038 241.261 109.342C241.485 108.262 241.909 107.841 243.002 108.053C245.227 108.484 247.473 108.794 250 109.2C249.695 112.073 249.396 114.88 249.065 118C247.631 117.623 246.429 117.313 245.229 116.991C243.742 116.592 242.241 116.235 240.782 115.742C240.441 115.627 240.243 115.038 240 114.527Z" fill="#035574"/>
<path d="M235.065 105.763C236.415 106.15 237.631 106.497 239 106.888C238.287 109.629 237.592 112.304 236.891 115C233.589 114.166 230.478 113.381 227 112.503C228.085 109.646 229.129 106.9 230.231 104C231.935 104.624 233.434 105.173 235.065 105.763Z" fill="#035574"/>
<path d="M247.312 123.12C245.141 128.854 245.145 128.844 239.504 126.609C238.429 126.183 237.305 125.875 236 125.445C236.695 122.965 237.363 120.585 238.088 118C241.264 118.809 244.315 119.434 247.249 120.393C248.858 120.919 247.394 122.107 247.312 123.12Z" fill="#035574"/>
<path d="M231.596 124.768C230.048 124.507 228.642 124.203 227.224 124.018C226.308 123.898 225.895 123.52 226.023 122.442C226.31 120.026 226.541 117.601 226.814 115C230.077 115.924 232.985 116.748 236 117.602C235.394 119.921 234.868 122.123 234.209 124.274C234.099 124.632 233.428 124.886 232.981 124.981C232.591 125.064 232.15 124.855 231.596 124.768Z" fill="#045474"/>
<path d="M241.178 95.9514C240.377 98.6242 239.597 101.175 238.732 104C236.166 103.244 233.701 102.518 231 101.722C233.846 97.9812 236.888 94.8252 242 93C241.65 94.2378 241.424 95.0334 241.178 95.9514Z" fill="#045474"/>
<path d="M241 103.626C242.128 100.337 243.204 97.1743 244.284 94C247.341 95.157 250.647 102.118 249.891 106C247.199 105.688 244.489 105.421 241.814 105.009C241.436 104.951 241.233 104.188 241 103.626Z" fill="#045474"/>
<path d="M231.588 133.256C231.116 135.248 230.665 137.104 230.214 138.959C230.049 138.973 229.885 138.986 229.721 139C227.088 135.259 226.318 130.841 226 126C228.37 126.425 230.537 126.813 233 127.255C232.509 129.325 232.058 131.222 231.588 133.256Z" fill="#045474"/>
<path d="M237.919 137.302C236.218 139.013 234.535 140.497 232 141C233.09 136.616 234.115 132.494 235.233 128C237.726 129.009 240.111 129.974 243 131.143C241.184 133.351 239.596 135.282 237.919 137.302Z" fill="#045474"/>
<path d="M223 97.6433C227.264 94.3751 231.746 91.9979 237 92C234.329 94.9713 231.644 97.9575 228.909 101C227.369 100.326 225.591 99.5842 223.853 98.7564C223.47 98.574 223.228 98.085 223 97.6433Z" fill="#045474"/>
<path d="M217.832 129.223C217.185 127.778 216.608 126.438 216 125.023C218.157 125.023 219.993 124.944 221.815 125.08C222.26 125.113 222.936 125.789 223.035 126.277C223.761 129.861 224.369 133.473 225 137C222.05 135.329 219.725 132.602 217.832 129.223Z" fill="#045473"/>
<path d="M242.472 136.701C243.746 135.119 244.942 133.634 246.258 132C248.346 132.944 250.523 133.928 253 135.047C248.637 139.035 243.706 140.516 238 141C239.616 139.454 241.005 138.126 242.472 136.701Z" fill="#045474"/>
<path d="M250 95.0004C251.201 95.9849 252.514 96.8338 253.582 97.9812C256.104 100.693 257.862 103.992 259 108C256.685 107.644 254.572 107.32 252.801 107.048C251.841 102.961 250.936 99.1035 250.02 95.1169C250.011 94.9874 250 95.0004 250 95.0004Z" fill="#045474"/>
<path d="M270 79.3796C270.069 78.6544 270.229 78.1319 270.26 77.5973C270.327 76.4313 270.8 75.6706 271.658 76.1414C272.252 76.4669 272.994 77.4202 273 78.1029C273.006 78.7303 272.191 79.5703 271.594 79.9343C271.207 80.1704 270.562 79.7198 270 79.3796Z" fill="#045272"/>
<path d="M259.041 78.8643C259.435 77.7465 259.613 76.6019 260.268 75.8344C260.742 75.279 261.985 74.8417 262.635 75.0551C263.266 75.2621 263.835 76.3268 263.964 77.0879C264.105 77.9259 263.804 78.8737 263.535 79.7266C263.061 81.2324 261.668 82.2447 260.527 81.9485C258.907 81.528 258.937 80.2626 259.041 78.8643Z" fill="#045474"/>
<path d="M227.012 69.2083C227.303 68.8396 227.533 68.5626 228 68C228 69.1857 228 70.0412 228 71C227.39 70.8934 226.79 70.7885 226 70.6504C226.36 70.1398 226.656 69.72 227.012 69.2083Z" fill="#045474"/>
<path d="M218.826 64.0005C219.996 63.9873 221.053 64.2454 220.998 65.5619C220.977 66.0585 220.128 66.6261 219.551 66.9426C219.23 67.1186 218.69 66.844 218 66.7321C218.257 65.7516 218.478 64.9071 218.826 64.0005Z" fill="#045473"/>
<path d="M253.087 73.176C253.16 72.1792 253.326 71.6535 253.611 72.2548C253.793 72.6393 254.03 73.4366 253.997 73.9108C253.891 75.4482 253.445 74.9315 253 74.8573C253.026 74.2874 253.048 73.7964 253.087 73.176Z" fill="#045272"/>
</svg>
