<svg width="16" height="15" viewBox="0 0 16 15" fill="none" xmlns="http://www.w3.org/2000/svg">
<path d="M12.3412 13.006C13.4809 13.7083 14.273 12.4828 15.4883 13.6657C14.9936 14.8947 12.6239 14.8192 11.2682 13.6492C11.2888 12.5073 11.8403 12.9277 12.3412 13.006Z" fill="#0C3F4D"/>
<path d="M7.60714 10.6095C8.28504 11.7325 9.58875 11.0113 10.1008 12.5891C9.06123 13.4459 6.97898 12.3245 6.33525 10.6953C6.90842 9.70381 7.19726 10.3178 7.60714 10.6095Z" fill="#0C3F4D"/>
<path d="M4.83747 6.01924C4.95492 7.21 6.31391 7.35594 6.11565 8.79832C4.92127 8.89157 3.64485 6.96658 3.75464 5.41708C4.61736 4.97931 4.61411 5.58752 4.83747 6.01924Z" fill="#0C3F4D"/>
<path d="M1.8375 1.01924C1.95495 2.21 3.31395 2.35594 3.11568 3.79832C1.9213 3.89157 0.644883 1.96658 0.754666 0.417076C1.61739 -0.0206884 1.61414 0.587524 1.8375 1.01924Z" fill="#0C3F4D"/>
</svg>
