<svg width="292" height="130" viewBox="0 0 292 130" fill="none" xmlns="http://www.w3.org/2000/svg">
<path d="M148.491 13.2767C146.244 8.47368 140.425 6.70371 139.107 1.18499C143.894 1.86631 152.006 10.5854 153.847 16.6047C150.938 17.5745 150.051 15.1768 148.491 13.2767Z" fill="#0C3F4D"/>
<path d="M210.46 116.181C213.148 120.752 219.108 121.968 220.937 127.339C216.108 127.11 207.213 119.19 204.815 113.37C207.621 112.132 208.729 114.436 210.46 116.181Z" fill="#0C3F4D"/>
<path d="M231.222 124.737C235.094 124.217 237.784 120.647 241.913 120.904C240.233 124.002 232.183 127.677 227.577 127.669C227.646 125.498 229.52 125.397 231.222 124.737Z" fill="#0C3F4D"/>
<path d="M27.67 79.3543C31.7634 82.725 37.7785 81.8215 41.3405 86.2379C36.7259 87.6804 25.6532 83.2952 21.4035 78.6518C23.6133 76.5256 25.4447 78.3092 27.67 79.3543Z" fill="#0C3F4D"/>
<path d="M105.143 11.2591C101.549 15.1583 102.116 21.2144 97.5085 24.5249C96.3253 19.8371 101.32 9.02588 106.193 5.04139C108.193 7.36614 106.31 9.09539 105.143 11.2591Z" fill="#0C3F4D"/>
<path d="M87.844 48.1131C91.1993 44.0071 90.2732 37.9954 94.6762 34.4168C96.136 39.026 91.7924 50.115 87.1651 54.3822C85.0306 52.1804 86.8073 50.3423 87.844 48.1131Z" fill="#0C3F4D"/>
<path d="M283.782 124.943C280.867 120.514 274.853 119.601 272.754 114.329C277.589 114.314 286.873 121.774 289.562 127.465C286.823 128.844 285.6 126.599 283.782 124.943Z" fill="#0C3F4D"/>
<path d="M260.656 117.663C255.394 117.01 250.799 120.995 245.425 119.175C248.549 115.484 260.247 113.255 266.323 114.899C265.597 117.878 263.095 117.353 260.656 117.663Z" fill="#0C3F4D"/>
<path d="M52.0277 87.532C57.323 87.8089 61.6227 83.5065 67.1124 84.9402C64.2592 88.8434 52.7488 91.8998 46.5711 90.6925C47.084 87.6691 49.617 88.0146 52.0277 87.532Z" fill="#0C3F4D"/>
<path d="M76.2103 76.8048C80.1744 73.2831 80.2138 67.2007 85.1287 64.3659C85.8388 69.1483 79.7911 79.4078 74.5455 82.8869C72.7873 80.3744 74.8331 78.8414 76.2103 76.8048Z" fill="#0C3F4D"/>
<path d="M7.46007 63.1796C10.1493 67.7497 16.1094 68.9638 17.9409 74.334C13.1114 74.1064 4.2141 66.1899 1.81447 60.3707C4.61937 59.1313 5.72808 61.4348 7.46007 63.1796Z" fill="#0C3F4D"/>
<path d="M197.088 105.277C196.536 101.211 192.025 99.6211 192.482 94.9729C196.416 95.6318 200.899 103.086 200.749 108.164C197.958 108.923 197.885 106.898 197.088 105.277Z" fill="#0C3F4D"/>
</svg>
