<svg width="134" height="188" viewBox="0 0 134 188" fill="none" xmlns="http://www.w3.org/2000/svg">
<path d="M5.67249 131.638C10.9426 131.052 14.487 126.109 20.1366 126.632C17.9547 130.947 7.0929 135.831 0.80124 135.642C0.816639 132.576 3.37211 132.505 5.67249 131.638Z" fill="#0C3F4D"/>
<path d="M105.373 64.1879C100.323 65.8055 97.8275 71.3524 92.186 71.9572C93.4707 67.2962 103.151 60.3591 109.356 59.2988C109.947 62.3077 107.456 62.8823 105.373 64.1879Z" fill="#0C3F4D"/>
<path d="M126.791 51.4285C121.608 52.5476 118.584 57.8257 112.911 57.8793C114.642 53.3652 124.951 47.4018 131.229 46.9497C131.526 50.0018 128.991 50.3316 126.791 51.4285Z" fill="#0C3F4D"/>
<path d="M83.25 80.8806C78.6764 83.5638 77.4545 89.5224 72.082 91.3468C72.3159 86.5176 80.244 77.6307 86.0663 75.2387C87.3021 78.0452 84.9971 79.1509 83.25 80.8806Z" fill="#0C3F4D"/>
<path d="M30.391 120.484C35.3876 118.709 37.7086 113.086 43.3284 112.305C42.1903 117.004 32.732 124.241 26.5637 125.495C25.8779 122.506 28.3497 121.854 30.391 120.484Z" fill="#0C3F4D"/>
<path d="M55.2242 103.994C59.939 101.567 61.4882 95.6855 66.9533 94.1606C66.453 98.9695 58.046 107.405 52.1005 109.472C51.0217 106.601 53.3842 105.624 55.2242 103.994Z" fill="#0C3F4D"/>
</svg>
