<svg width="89" height="82" viewBox="0 0 89 82" fill="none" xmlns="http://www.w3.org/2000/svg">
<path d="M48.9231 37.1254C49.0397 37.8952 48.7154 38.4567 48.1271 37.8053C47.4055 37.0062 46.786 35.9588 47.1307 34.6842C48.5509 35.1915 48.4554 36.2375 48.9231 37.1254Z" fill="#0C3F4D"/>
<path d="M45.6534 63.3527C45.1245 64.0738 44.9557 65.0766 44.0263 65.0238C43.3577 64.1267 44.5216 63.0739 43.5652 62.2641C40.6918 62.2741 37.7134 63.8986 34.6438 62.6854C34.9201 61.5559 35.5132 61.6398 35.975 61.7053C38.7306 62.0961 41.2756 60.7086 43.9667 60.516C45.2952 60.4209 46.3555 59.6431 46.676 57.9544C46.8225 57.1825 47.1297 56.4191 48.3019 56.6594C48.0269 58.2994 49.1461 60.3126 46.8582 61.2851C46.1722 61.5768 46.1812 62.6272 45.6534 63.3527Z" fill="#0C3F4D"/>
<path d="M31.9383 76.492C31.6646 77.0845 31.2875 77.5638 30.7302 77.8201C26.5909 79.7238 22.315 80.4254 17.8843 79.6681C17.6799 79.6332 17.5122 79.329 17.2287 79.0548C18.2492 77.6648 19.5932 77.8065 20.748 78.1084C23.5076 78.8298 25.9891 77.6519 28.5153 76.8757C29.5806 76.5483 30.5743 76.1701 31.8106 76.4786C31.9474 76.5021 31.9383 76.492 31.9383 76.492Z" fill="#0C3F4D"/>
<path d="M27.2052 60.9291C29.2756 61.9271 31.6093 60.6605 33.5903 62.2211C31.8906 63.5425 26.8629 63.0515 24.5751 61.4816C25.2154 60.1789 26.175 60.754 27.2052 60.9291Z" fill="#0C3F4D"/>
<path d="M11.8145 26.0435C10.6077 27.4412 10.5782 29.6424 8.95312 30.5134C8.19337 30.0751 8.459 29.4911 8.68547 29.0033C9.71839 26.7779 10.8695 24.6479 12.7035 23.1134C13.106 22.7766 13.5159 22.2158 14.0007 22.8253C14.4536 23.3949 14.0298 23.9112 13.6664 24.3016C13.1174 24.8913 12.5146 25.4173 11.8145 26.0435Z" fill="#0C3F4D"/>
<path d="M19.3591 19.3827C18.3737 21.1353 16.8653 21.7119 15.1606 21.8564C15.9104 19.8133 17.2515 19.0074 19.2499 19.3563C19.3684 19.397 19.3591 19.3827 19.3591 19.3827Z" fill="#0C3F4D"/>
<path d="M19.3732 19.4035C19.7778 17.6262 21.1823 17.6593 22.367 17.3308C22.7457 17.2258 23.1556 17.3646 23.2314 17.8974C23.2967 18.3571 23.1094 18.7867 22.7128 18.9231C21.705 19.2699 20.7252 19.8858 19.4846 19.4351C19.3591 19.3823 19.3684 19.3966 19.3732 19.4035Z" fill="#0C3F4D"/>
<path d="M8.05215 31.7267C8.86695 32.2824 8.90644 32.2942 8.73308 33.0276C8.49108 34.0513 8.18297 35.0553 7.89938 36.0814C6.48627 35.2367 6.5301 33.9554 8.05215 31.7267Z" fill="#0C3F4D"/>
<path d="M6.98259 37.6081C8.56085 38.4563 7.98982 40.0298 7.77848 41.2226C7.64476 41.9773 6.77941 41.5353 6.5227 40.8772C6.09142 39.7716 6.10077 38.6562 6.98259 37.6081Z" fill="#0C3F4D"/>
<path d="M2.78225 74.3125C4.32297 74.2676 5.78997 74.2428 6.6295 76.0525C5.35799 75.3496 3.33549 77.2018 2.78225 74.3125Z" fill="#0C3F4D"/>
<path d="M48.9132 40.214C49.6475 39.2713 49.9312 39.9624 50.1781 40.5455C50.6273 41.6064 50.6753 42.7225 50.4051 43.9943C48.531 43.4385 49.2929 41.5715 48.9132 40.214Z" fill="#0C3F4D"/>
<path d="M12.9586 77.5117C14.4961 76.3207 15.3641 77.8315 16.5729 78.3475C15.3528 79.6639 14.124 79.3724 12.9586 77.5117Z" fill="#0C3F4D"/>
<path d="M30.0509 18.4607C29.2399 17.893 29.1555 17.3759 30.0546 17.1644C31.3224 16.8662 32.5277 16.9771 33.3741 18.4872C32.2521 19.608 31.2086 18.5184 30.0509 18.4607Z" fill="#0C3F4D"/>
<path d="M49.7709 58.4558C50.8357 58.0365 51.6377 56.7825 52.951 57.7443C52.512 59.0908 51.5407 59.5372 50.4783 59.6792C49.9256 59.753 49.2315 59.5701 49.7709 58.4558Z" fill="#0C3F4D"/>
<path d="M49.0567 46.9202C49.2002 46.2048 49.2516 45.5948 49.9177 45.5311C50.853 47.425 50.7606 48.3596 49.5264 49.4477C48.7797 48.8182 49.0601 47.9129 49.0567 46.9202Z" fill="#0C3F4D"/>
<path d="M27.8133 17.6413C26.6179 18.2202 25.443 19.2092 24.0654 17.2053C25.6163 17.1626 26.7745 15.346 27.8133 17.6413Z" fill="#0C3F4D"/>
<path d="M10.2256 75.736C10.8961 76.1249 11.5937 76.2009 11.8707 76.966C10.4807 77.8955 9.44555 77.5908 8.37661 75.9561C8.85761 75.1438 9.49931 75.6145 10.2256 75.736Z" fill="#0C3F4D"/>
<path d="M31.9509 76.5081C32.6355 74.7352 33.8821 73.9252 35.5881 73.8919C34.8964 75.4412 33.8381 76.3977 32.0856 76.4854C31.9384 76.4922 31.9474 76.5024 31.9509 76.5081Z" fill="#0C3F4D"/>
<path d="M48.333 52.5822C48.6375 51.853 48.5947 50.7402 49.4836 51.0641C50.3799 51.3906 49.836 52.2685 49.6446 52.893C49.4109 53.6559 49.4034 54.6388 48.4381 54.8632C47.578 54.1993 48.2394 53.4374 48.333 52.5822Z" fill="#0C3F4D"/>
<path d="M20.9932 59.2019C21.9328 59.6794 23.0081 59.6363 23.5225 60.9639C22.2482 61.7001 21.235 61.1752 20.3861 60.3344C19.7687 59.7229 19.9714 59.186 20.9932 59.2019Z" fill="#0C3F4D"/>
<path d="M37.1264 71.8024C37.9623 70.9619 38.6298 69.9719 39.9597 70.6466C39.5078 71.7691 38.7362 72.4905 37.8568 72.9565C36.8581 73.4856 36.5096 73.06 37.1264 71.8024Z" fill="#0C3F4D"/>
<path d="M36.543 19.0732C37.1064 19.4966 37.6959 19.7456 37.4622 20.7508C36.0477 21.0626 35.2036 19.8623 33.9975 19.1565C34.9125 18.0364 35.6737 18.6517 36.543 19.0732Z" fill="#0C3F4D"/>
<path d="M43.6724 27.0551C43.2913 26.5772 42.9862 26.2141 42.7137 25.8221C42.497 25.5103 42.4858 25.1435 42.7257 24.8438C43.0528 24.4351 43.4467 24.5488 43.7254 24.8778C44.4066 25.682 45.2366 26.4091 45.2139 27.6958C44.4747 28.2549 44.1704 27.5386 43.6724 27.0551Z" fill="#0C3F4D"/>
<path d="M41.2406 67.5517C41.6456 67.0098 41.9375 66.5375 42.3091 66.1676C42.4271 66.0501 42.8235 66.1179 42.9728 66.2605C43.1251 66.406 43.2619 66.87 43.1788 66.9844C42.5121 67.9017 42.1958 69.3036 40.8707 69.4028C40.298 68.5893 40.8538 68.1577 41.2406 67.5517Z" fill="#0C3F4D"/>
<path d="M8.19109 46.9543C7.06705 46.0721 6.87412 44.8514 7.11939 43.5371C7.18016 43.2114 7.70809 43.0698 7.93338 43.3602C8.75913 44.4247 8.75338 45.6567 8.19109 46.9543Z" fill="#0C3F4D"/>
<path d="M56.1167 55.0693C56.5858 54.8975 56.9418 54.7861 57.3325 54.6638C56.8979 56.4353 55.8195 57.2464 54.1067 57.0896C54.1202 55.6501 55.3438 55.7231 56.1167 55.0693Z" fill="#0C3F4D"/>
<path d="M73.4675 36.9396C74.1113 36.3469 74.4444 35.3343 75.4102 35.8372C75.1269 37.4635 74.9791 37.6717 73.3452 38.7565C72.4568 38.1768 72.999 37.6152 73.4675 36.9396Z" fill="#0C3F4D"/>
<path d="M70.538 40.591C70.9945 40.1189 71.324 39.6239 72.0541 40.0105C71.9637 41.5789 71.0944 42.3545 69.8378 42.9061C69.212 41.7707 70.0129 41.2988 70.538 40.591Z" fill="#0C3F4D"/>
<path d="M68.2724 45.4193C67.598 46.1898 67.2072 47.2579 65.9695 46.9232C66.226 45.2324 67.2596 44.5562 68.3049 43.8932C68.9006 44.4627 68.5989 44.8819 68.2724 45.4193Z" fill="#0C3F4D"/>
<path d="M76.5222 33.3898C77.2358 32.5176 77.6237 31.323 78.9642 31.4678C78.9857 33.1774 77.9053 33.8335 77.0295 34.4348C76.4237 34.8507 76.1651 34.2225 76.5222 33.3898Z" fill="#0C3F4D"/>
<path d="M11.9851 53.2094C13.2446 53.6871 14.15 54.4452 14.2019 56.0733C13.2127 55.3701 11.5441 55.4484 11.9851 53.2094Z" fill="#0C3F4D"/>
<path d="M17.6146 59.0303C16.7285 58.5076 15.6149 58.4896 15.5208 56.9919C16.7464 56.6066 17.6969 57.1997 18.3952 58.0436C19.0829 58.8746 18.6096 59.2501 17.6146 59.0303Z" fill="#0C3F4D"/>
<path d="M80.7531 28.7814C81.3509 28.1963 81.7401 27.3798 82.6867 27.995C82.5583 29.6232 81.371 29.9606 80.3937 30.5658C79.7242 29.7589 80.3336 29.3627 80.7531 28.7814Z" fill="#0C3F4D"/>
<path d="M9.39014 50.9752C9.05129 50.1786 8.46593 49.5797 8.99555 48.6074C10.2608 49.2171 10.7931 50.2802 10.8614 51.7387C10.0285 52.2778 9.79926 51.5584 9.39014 50.9752Z" fill="#0C3F4D"/>
<path d="M63.9401 48.3623C64.5777 47.9517 65.4183 47.7127 65.0292 48.7478C64.6443 49.7715 63.8175 50.8302 62.4298 50.8678C62.3627 49.5262 63.3479 49.171 63.9401 48.3623Z" fill="#0C3F4D"/>
<path d="M46.5578 31.79C46.1381 30.9589 45.5888 30.3247 45.7606 28.8752C47.2661 29.8076 47.6654 30.9787 47.7326 32.4204C47.0383 32.8527 46.8696 32.3021 46.5578 31.79Z" fill="#0C3F4D"/>
<path d="M59.9881 52.0627C60.4184 51.8177 60.7407 51.3783 61.1034 51.7504C61.4555 52.1116 61.2516 52.5648 60.9936 52.8804C60.3235 53.7004 59.5882 54.3971 58.4412 54.202C58.5168 52.9492 59.4151 52.7549 59.9881 52.0627Z" fill="#0C3F4D"/>
<path d="M85.2509 24.8585C85.7883 24.5225 86.2118 24.1224 86.7603 24.8099C86.3033 26.1533 85.3305 26.6561 84.063 26.958C83.7956 25.7243 84.6518 25.4543 85.2509 24.8585Z" fill="#0C3F4D"/>
<path d="M39.565 21.2444C40.6289 21.719 41.5076 22.2158 41.6507 23.7465C40.2569 23.8367 39.5227 22.9369 38.9298 21.8824C38.7164 21.5029 39.0787 21.2751 39.565 21.2444Z" fill="#0C3F4D"/>
</svg>
