<svg width="124" height="169" viewBox="0 0 124 169" fill="none" xmlns="http://www.w3.org/2000/svg">
<path d="M118.468 132.673C118.714 127.144 114.277 122.976 115.707 117.162C119.724 119.853 122.936 131.612 121.743 138.126C118.643 137.808 118.979 135.147 118.468 132.673Z" fill="#0C3F4D"/>
<path d="M66.1021 22.502C66.9346 27.9048 72.1491 31.0433 71.8628 36.9606C67.3517 35.167 61.8746 24.4317 61.7898 17.8849C64.9282 17.5672 65.1129 20.2103 66.1021 22.502Z" fill="#0C3F4D"/>
<path d="M60.6091 10.3907C60.1196 6.86774 55.9606 6.67893 56.4058 2.35004C60.0366 1.85669 64.1403 7.35555 63.9766 11.9873C61.3949 13.4461 61.3377 11.6353 60.6091 10.3907Z" fill="#0C3F4D"/>
<path d="M79.4678 47.1187C81.4542 52.1321 87.2881 53.9885 88.2785 59.7467C83.4299 59.0276 75.7012 49.9194 74.2082 43.6382C77.2444 42.6318 77.996 45.1341 79.4678 47.1187Z" fill="#0C3F4D"/>
<path d="M111.118 105.908C110.118 100.545 104.799 97.5805 104.904 91.6684C109.477 93.3135 115.292 103.848 115.579 110.376C112.446 110.793 112.179 108.163 111.118 105.908Z" fill="#0C3F4D"/>
<path d="M98.3893 78.4975C96.6851 73.3628 90.9809 71.1742 90.3084 65.3493C95.094 66.3431 102.29 75.904 103.434 82.281C100.358 83.1181 99.746 80.5688 98.3893 78.4975Z" fill="#0C3F4D"/>
<path d="M120.298 160.177C122.062 154.921 119.487 149.431 122.33 144.291C124.967 148.217 124.371 160.63 121.53 166.524C119.001 165.191 120.033 162.735 120.298 160.177Z" fill="#0C3F4D"/>
</svg>
