<svg width="30" height="28" viewBox="0 0 30 28" fill="none" xmlns="http://www.w3.org/2000/svg">
<path d="M15 27.5C14.5483 27.4994 14.1073 27.363 13.7343 27.1084C8.20847 23.3572 5.81574 20.7852 4.49597 19.1771C1.68347 15.7494 0.336988 12.2302 0.374957 8.4193C0.419254 4.05219 3.92293 0.5 8.18527 0.5C11.2846 0.5 13.4313 2.24586 14.6814 3.69992C14.721 3.74552 14.77 3.78208 14.8249 3.80714C14.8799 3.8322 14.9396 3.84516 15 3.84516C15.0604 3.84516 15.12 3.8322 15.175 3.80714C15.2299 3.78208 15.2789 3.74552 15.3185 3.69992C16.5686 2.24445 18.7153 0.5 21.8146 0.5C26.077 0.5 29.5807 4.05219 29.625 8.42C29.6629 12.2316 28.315 15.7508 25.5039 19.1778C24.1842 20.7859 21.7914 23.3579 16.2656 27.1091C15.8925 27.3634 15.4515 27.4996 15 27.5Z" fill="#455A64"/>
</svg>
