<svg width="440" height="445" viewBox="0 0 440 445" fill="none" xmlns="http://www.w3.org/2000/svg">
<g clip-path="url(#clip0_206_68)">
<path d="M211.561 395.872C313.554 395.872 396.235 349.59 396.235 292.498C396.235 235.407 313.554 189.125 211.561 189.125C109.568 189.125 26.8871 235.407 26.8871 292.498C26.8871 349.59 109.568 395.872 211.561 395.872Z" fill="#F5F5F5"/>
<path d="M276.519 407.789L418.111 328.535C421.214 326.799 421.214 323.987 418.111 322.251L157.84 177.199C156.098 176.343 154.174 175.898 152.222 175.898C150.269 175.898 148.345 176.343 146.603 177.199L5.01115 256.409C1.90831 258.189 1.90831 260.966 5.01115 262.701L265.292 407.771C267.03 408.629 268.952 409.078 270.903 409.081C272.854 409.084 274.778 408.642 276.519 407.789Z" fill="#E0E0E0"/>
<path d="M383.576 413.53C382.979 413.518 382.394 413.363 381.873 413.079C381.352 412.795 380.912 412.39 380.593 411.901L357.165 380.03C356.739 379.532 356.47 378.926 356.388 378.284C356.307 377.642 356.417 376.991 356.706 376.408C356.991 375.89 357.42 375.46 357.944 375.166C358.468 374.872 359.066 374.726 359.671 374.743C360.033 374.747 360.393 374.789 360.745 374.868L419.204 388.343C422.013 388.992 422.068 390.915 422.022 391.484C421.976 392.054 421.581 393.941 418.699 394.154L389.818 395.934L386.918 410.557C386.824 411.361 386.433 412.104 385.817 412.649C385.201 413.195 384.401 413.504 383.567 413.521L383.576 413.53Z" fill="#E0E0E0"/>
<path d="M275.683 95.773C275.65 95.5151 275.548 95.2701 275.387 95.0624C275.226 94.8547 275.012 94.6915 274.765 94.5893C274.089 94.2555 273.34 94.0815 272.581 94.0815C271.821 94.0815 271.073 94.2555 270.396 94.5893C270.151 94.6937 269.938 94.8575 269.777 95.0648C269.616 95.272 269.513 95.5159 269.478 95.773V232.984H275.656V95.773H275.683Z" fill="#37474F"/>
<path d="M275.683 95.773C275.683 94.883 274.306 94.082 272.599 94.082C270.891 94.082 269.514 94.8385 269.514 95.773C269.514 96.7075 270.891 97.4729 272.599 97.4729C274.306 97.4729 275.683 96.7075 275.683 95.773Z" fill="#455A64"/>
<path d="M290.335 125.873L250.035 103.302L243.976 106.693L250.035 116.866L290.335 139.445V125.873Z" fill="#1995B3"/>
<g opacity="0.4">
<path d="M290.335 125.873L250.035 103.302L243.976 106.693L250.035 116.866L290.335 139.445V125.873Z" fill="black"/>
</g>
<path d="M250.034 103.302L253.064 101.603L293.419 124.209L290.335 125.873L250.034 103.302Z" fill="#1995B3"/>
<g opacity="0.3">
<path d="M250.034 103.302L253.064 101.603L293.419 124.209L290.335 125.873L250.034 103.302Z" fill="black"/>
</g>
<path d="M293.419 137.781L290.335 139.445V125.873L293.419 124.208V137.781Z" fill="#1995B3"/>
<path opacity="0.55" d="M293.419 137.781L290.335 139.445V125.873L293.419 124.208V137.781Z" fill="black"/>
<path d="M252.7 113.66C252.646 113.63 252.6 113.584 252.561 113.523C252.527 113.464 252.51 113.404 252.51 113.343V112.746C252.51 112.707 252.52 112.654 252.539 112.586C252.559 112.513 252.61 112.464 252.693 112.438L253.453 112.012C253.843 111.891 254.162 111.784 254.41 111.689C254.664 111.592 254.851 111.485 254.973 111.37C255.095 111.254 255.156 111.115 255.156 110.952C255.156 110.762 255.112 110.58 255.024 110.407C254.941 110.231 254.795 110.084 254.586 109.965C254.444 109.885 254.325 109.854 254.228 109.872C254.135 109.886 254.064 109.936 254.016 110.02C253.967 110.105 253.933 110.2 253.913 110.307C253.894 110.369 253.86 110.4 253.811 110.4C253.767 110.403 253.718 110.39 253.665 110.359L252.751 109.841C252.707 109.817 252.671 109.779 252.641 109.729C252.612 109.679 252.598 109.628 252.598 109.578C252.602 109.312 252.651 109.087 252.744 108.905C252.841 108.725 252.975 108.593 253.146 108.511C253.321 108.425 253.528 108.4 253.767 108.434C254.011 108.472 254.284 108.576 254.586 108.747C255 108.982 255.351 109.256 255.638 109.571C255.931 109.888 256.152 110.226 256.303 110.586C256.454 110.941 256.53 111.3 256.53 111.664C256.53 111.938 256.476 112.166 256.369 112.346C256.267 112.523 256.118 112.666 255.923 112.774C255.733 112.879 255.507 112.972 255.243 113.052L254.571 113.452L256.45 114.517C256.503 114.547 256.547 114.592 256.581 114.65C256.62 114.712 256.64 114.773 256.64 114.835V115.683C256.64 115.745 256.62 115.784 256.581 115.801C256.547 115.821 256.503 115.816 256.45 115.786L252.7 113.66ZM257.578 116.425C257.524 116.395 257.481 116.35 257.446 116.292C257.412 116.233 257.395 116.173 257.395 116.112V112.163C257.395 112.101 257.412 112.06 257.446 112.041C257.481 112.021 257.524 112.026 257.578 112.056L258.419 112.533C258.472 112.563 258.516 112.608 258.55 112.666C258.584 112.725 258.601 112.785 258.601 112.846V113.166C258.728 113.064 258.894 113.012 259.098 113.01C259.303 113.009 259.544 113.087 259.822 113.244C260.105 113.404 260.353 113.618 260.567 113.885C260.787 114.155 260.957 114.467 261.079 114.822C261.206 115.174 261.269 115.554 261.269 115.963V118.307C261.269 118.369 261.25 118.408 261.211 118.425C261.177 118.445 261.135 118.441 261.086 118.414L260.165 117.892C260.117 117.864 260.073 117.82 260.034 117.758C260 117.7 259.983 117.64 259.983 117.578V115.285C259.983 115.021 259.927 114.788 259.815 114.584C259.707 114.378 259.547 114.214 259.332 114.092C259.132 113.979 258.972 113.961 258.85 114.037C258.733 114.111 258.674 114.28 258.674 114.543V116.837C258.674 116.898 258.655 116.938 258.616 116.955C258.582 116.975 258.54 116.971 258.492 116.943L257.578 116.425ZM263.503 119.867C263.269 119.735 263.057 119.573 262.867 119.381C262.682 119.186 262.521 118.966 262.385 118.721C262.253 118.473 262.151 118.208 262.078 117.925C262.005 117.637 261.963 117.334 261.953 117.015C261.948 116.9 261.946 116.801 261.946 116.717C261.946 116.627 261.948 116.53 261.953 116.427C261.963 116.13 262.005 115.881 262.078 115.682C262.151 115.483 262.253 115.333 262.385 115.234C262.516 115.135 262.677 115.095 262.867 115.113C263.057 115.125 263.269 115.198 263.503 115.33C263.747 115.469 263.956 115.635 264.132 115.83C264.307 116.019 264.456 116.22 264.577 116.435V114.637C264.577 114.576 264.594 114.535 264.629 114.515C264.663 114.495 264.706 114.5 264.76 114.531L265.652 115.036C265.701 115.064 265.742 115.107 265.776 115.165C265.815 115.227 265.835 115.288 265.835 115.35V120.895C265.835 120.956 265.815 120.996 265.776 121.013C265.742 121.033 265.701 121.029 265.652 121.001L264.826 120.533C264.772 120.503 264.728 120.458 264.694 120.4C264.66 120.341 264.643 120.281 264.643 120.22V119.951C264.526 120.047 264.375 120.096 264.19 120.097C264.005 120.099 263.776 120.022 263.503 119.867ZM263.898 118.965C264.063 119.059 264.192 119.093 264.285 119.067C264.382 119.038 264.453 118.972 264.497 118.868C264.546 118.767 264.572 118.642 264.577 118.494C264.582 118.384 264.585 118.279 264.585 118.178C264.585 118.078 264.582 117.973 264.577 117.863C264.572 117.721 264.546 117.577 264.497 117.431C264.448 117.281 264.375 117.141 264.278 117.013C264.18 116.879 264.054 116.768 263.898 116.68C263.737 116.589 263.608 116.555 263.51 116.578C263.418 116.604 263.352 116.673 263.313 116.785C263.274 116.898 263.25 117.032 263.24 117.189C263.225 117.355 263.225 117.528 263.24 117.71C263.25 117.878 263.274 118.04 263.313 118.197C263.352 118.353 263.418 118.497 263.51 118.628C263.608 118.762 263.737 118.874 263.898 118.965ZM254.63 125.838C254.142 125.562 253.738 125.254 253.416 124.915C253.095 124.57 252.851 124.222 252.685 123.871C252.52 123.519 252.432 123.195 252.422 122.898C252.422 122.853 252.437 122.823 252.466 122.805C252.5 122.786 252.539 122.788 252.583 122.813L253.504 123.335C253.572 123.374 253.623 123.417 253.657 123.464C253.696 123.514 253.73 123.57 253.76 123.631C253.799 123.737 253.852 123.849 253.921 123.966C253.994 124.086 254.086 124.203 254.198 124.317C254.315 124.428 254.459 124.532 254.63 124.628C254.912 124.788 255.124 124.858 255.265 124.837C255.412 124.819 255.485 124.724 255.485 124.55C255.485 124.427 255.446 124.304 255.368 124.181C255.29 124.053 255.163 123.908 254.988 123.747C254.817 123.584 254.588 123.387 254.301 123.156C253.93 122.857 253.614 122.563 253.35 122.273C253.092 121.981 252.895 121.682 252.758 121.375C252.622 121.062 252.554 120.732 252.554 120.385C252.554 120.043 252.637 119.785 252.802 119.61C252.973 119.438 253.209 119.362 253.511 119.382C253.813 119.402 254.171 119.529 254.586 119.764C254.922 119.955 255.217 120.172 255.47 120.417C255.728 120.664 255.945 120.921 256.121 121.189C256.296 121.456 256.428 121.71 256.515 121.95C256.608 122.187 256.657 122.397 256.661 122.579C256.661 122.624 256.647 122.657 256.618 122.68C256.588 122.697 256.552 122.693 256.508 122.668L255.543 122.121C255.49 122.091 255.443 122.054 255.404 122.009C255.365 121.965 255.331 121.909 255.302 121.842C255.273 121.702 255.195 121.552 255.068 121.39C254.946 121.226 254.785 121.087 254.586 120.974C254.371 120.852 254.203 120.802 254.081 120.822C253.964 120.84 253.906 120.939 253.906 121.118C253.906 121.23 253.938 121.346 254.001 121.466C254.069 121.588 254.179 121.723 254.33 121.871C254.486 122.021 254.698 122.205 254.966 122.424C255.409 122.771 255.767 123.094 256.04 123.395C256.313 123.689 256.513 123.987 256.64 124.289C256.766 124.585 256.83 124.903 256.83 125.245C256.83 125.626 256.735 125.903 256.545 126.075C256.359 126.244 256.101 126.308 255.77 126.266C255.438 126.224 255.058 126.081 254.63 125.838ZM259.425 128.472C259.113 128.295 258.843 128.086 258.614 127.844C258.39 127.6 258.217 127.322 258.095 127.012C257.973 126.697 257.912 126.346 257.912 125.96V124.346L257.342 124.023C257.288 123.993 257.242 123.947 257.203 123.886C257.169 123.827 257.152 123.767 257.152 123.705V123.025C257.152 122.963 257.169 122.923 257.203 122.903C257.242 122.886 257.288 122.892 257.342 122.923L257.912 123.246V121.859C257.912 121.798 257.929 121.757 257.963 121.737C258.002 121.72 258.046 121.725 258.095 121.753L258.943 122.234C258.996 122.264 259.04 122.308 259.074 122.367C259.108 122.426 259.126 122.486 259.126 122.547V123.933L260.039 124.451C260.093 124.482 260.137 124.526 260.171 124.585C260.205 124.643 260.222 124.703 260.222 124.765V125.445C260.222 125.507 260.205 125.548 260.171 125.568C260.137 125.588 260.093 125.582 260.039 125.552L259.126 125.034V126.53C259.126 126.72 259.157 126.889 259.221 127.037C259.284 127.185 259.391 127.302 259.542 127.387L260.105 127.706C260.159 127.737 260.202 127.781 260.237 127.84C260.271 127.898 260.288 127.958 260.288 128.02V128.751C260.288 128.813 260.271 128.853 260.237 128.873C260.202 128.893 260.159 128.888 260.105 128.857L259.425 128.472ZM261.169 129.461C261.107 129.426 261.057 129.374 261.018 129.307C260.978 129.239 260.959 129.17 260.959 129.099V124.548C260.959 124.484 260.978 124.44 261.018 124.417C261.057 124.388 261.107 124.391 261.169 124.426L262.138 124.975C262.2 125.01 262.25 125.064 262.29 125.138C262.329 125.206 262.349 125.272 262.349 125.336V125.724C262.5 125.609 262.68 125.556 262.888 125.564C263.101 125.576 263.34 125.656 263.604 125.806L263.974 126.016C264.03 126.047 264.078 126.097 264.117 126.165C264.162 126.235 264.185 126.306 264.185 126.377V127.374C264.185 127.439 264.162 127.484 264.117 127.51C264.078 127.533 264.03 127.529 263.974 127.497L263.157 127.034C262.927 126.903 262.747 126.876 262.618 126.951C262.495 127.023 262.433 127.191 262.433 127.456V129.935C262.433 130.006 262.41 130.051 262.365 130.071C262.326 130.094 262.276 130.088 262.214 130.053L261.169 129.461ZM266.773 132.733C266.11 132.358 265.582 131.852 265.189 131.216C264.796 130.58 264.591 129.851 264.574 129.028C264.574 128.983 264.574 128.925 264.574 128.854C264.574 128.783 264.574 128.728 264.574 128.689C264.591 128.189 264.689 127.809 264.869 127.549C265.054 127.286 265.307 127.152 265.627 127.146C265.953 127.137 266.332 127.255 266.764 127.5C267.258 127.78 267.665 128.124 267.986 128.531C268.311 128.942 268.556 129.387 268.718 129.866C268.881 130.346 268.963 130.834 268.963 131.331V131.564C268.963 131.635 268.94 131.68 268.895 131.7C268.856 131.723 268.808 131.718 268.752 131.686L266.057 130.159C266.057 130.165 266.057 130.175 266.057 130.188C266.057 130.201 266.057 130.214 266.057 130.226C266.062 130.417 266.09 130.604 266.141 130.787C266.191 130.971 266.27 131.138 266.377 131.289C266.483 131.44 266.612 131.558 266.764 131.644C266.876 131.708 266.969 131.741 267.042 131.744C267.121 131.743 267.185 131.731 267.236 131.708C267.286 131.679 267.326 131.653 267.354 131.63C267.404 131.594 267.444 131.577 267.472 131.58C267.505 131.58 267.556 131.599 267.623 131.637L268.668 132.229C268.724 132.261 268.769 132.306 268.803 132.364C268.842 132.418 268.859 132.476 268.853 132.538C268.848 132.644 268.8 132.75 268.71 132.854C268.62 132.958 268.488 133.038 268.314 133.094C268.146 133.147 267.932 133.149 267.674 133.099C267.416 133.049 267.115 132.928 266.773 132.733ZM266.057 129.2L267.48 130.007V129.988C267.48 129.781 267.452 129.584 267.396 129.398C267.345 129.214 267.264 129.048 267.152 128.901C267.045 128.757 266.916 128.641 266.764 128.555C266.612 128.469 266.483 128.438 266.377 128.462C266.276 128.488 266.197 128.563 266.141 128.686C266.085 128.809 266.057 128.974 266.057 129.181V129.2ZM271.774 135.568C271.111 135.193 270.584 134.687 270.19 134.051C269.797 133.415 269.592 132.686 269.575 131.863C269.575 131.817 269.575 131.759 269.575 131.688C269.575 131.617 269.575 131.563 269.575 131.524C269.592 131.023 269.691 130.643 269.87 130.384C270.056 130.121 270.308 129.987 270.628 129.981C270.954 129.972 271.333 130.09 271.766 130.335C272.26 130.615 272.667 130.959 272.987 131.366C273.313 131.777 273.557 132.222 273.72 132.701C273.883 133.181 273.964 133.669 273.964 134.166V134.399C273.964 134.47 273.942 134.515 273.897 134.535C273.857 134.558 273.81 134.553 273.754 134.521L271.058 132.993C271.058 133 271.058 133.01 271.058 133.022C271.058 133.035 271.058 133.048 271.058 133.061C271.064 133.252 271.092 133.439 271.142 133.622C271.193 133.806 271.271 133.973 271.378 134.124C271.485 134.275 271.614 134.393 271.766 134.479C271.878 134.543 271.971 134.576 272.044 134.578C272.122 134.578 272.187 134.566 272.237 134.543C272.288 134.514 272.327 134.487 272.355 134.465C272.406 134.429 272.445 134.412 272.473 134.415C272.507 134.415 272.557 134.434 272.625 134.472L273.669 135.064C273.726 135.096 273.77 135.141 273.804 135.199C273.843 135.253 273.86 135.311 273.855 135.372C273.849 135.479 273.801 135.584 273.711 135.688C273.622 135.792 273.49 135.872 273.316 135.929C273.147 135.982 272.934 135.983 272.675 135.934C272.417 135.884 272.117 135.762 271.774 135.568ZM271.058 132.035L272.482 132.842V132.822C272.482 132.616 272.454 132.419 272.397 132.232C272.347 132.049 272.265 131.883 272.153 131.736C272.046 131.591 271.917 131.476 271.766 131.39C271.614 131.304 271.485 131.273 271.378 131.296C271.277 131.323 271.198 131.398 271.142 131.521C271.086 131.644 271.058 131.809 271.058 132.016V132.035ZM276.986 138.426C276.627 138.222 276.315 137.981 276.051 137.702C275.793 137.42 275.594 137.1 275.453 136.743C275.313 136.38 275.243 135.975 275.243 135.53V133.671L274.586 133.298C274.524 133.263 274.47 133.211 274.426 133.14C274.386 133.072 274.367 133.003 274.367 132.932V132.148C274.367 132.077 274.386 132.03 274.426 132.007C274.47 131.987 274.524 131.995 274.586 132.03L275.243 132.402V130.805C275.243 130.734 275.262 130.687 275.302 130.664C275.347 130.644 275.397 130.65 275.453 130.682L276.43 131.236C276.492 131.271 276.543 131.322 276.582 131.39C276.621 131.457 276.641 131.526 276.641 131.597V133.195L277.694 133.792C277.756 133.827 277.806 133.878 277.846 133.945C277.885 134.013 277.905 134.082 277.905 134.153V134.937C277.905 135.008 277.885 135.055 277.846 135.078C277.806 135.101 277.756 135.095 277.694 135.06L276.641 134.463V136.187C276.641 136.406 276.677 136.601 276.75 136.772C276.823 136.942 276.947 137.077 277.121 137.175L277.77 137.543C277.832 137.578 277.882 137.629 277.921 137.697C277.961 137.764 277.98 137.833 277.98 137.904V138.747C277.98 138.818 277.961 138.865 277.921 138.888C277.882 138.911 277.832 138.905 277.77 138.87L276.986 138.426Z" fill="white"/>
<path d="M390.158 300.936L385.228 296.815C385.228 296.815 385.421 282.077 389.864 270.222C396.125 253.552 409.39 249.903 413.439 252.422C417.487 254.941 417.487 260.245 407.573 268.691C401.716 273.693 393.215 284.951 390.158 300.936Z" fill="#1995B3"/>
<g opacity="0.15">
<path d="M390.158 300.936L385.228 296.815C385.228 296.815 385.421 282.077 389.864 270.222C396.125 253.552 409.39 249.903 413.439 252.422C417.487 254.941 417.487 260.245 407.573 268.691C401.716 273.693 393.215 284.951 390.158 300.936Z" fill="black"/>
</g>
<path d="M389.525 293.7H389.58C389.633 293.702 389.686 293.695 389.736 293.677C389.786 293.66 389.832 293.633 389.871 293.598C389.91 293.563 389.942 293.521 389.964 293.475C389.987 293.428 390 293.378 390.002 293.326C390.92 276.799 401.165 260.396 410.088 254.718C410.132 254.691 410.171 254.655 410.201 254.614C410.231 254.572 410.252 254.525 410.263 254.475C410.274 254.426 410.275 254.374 410.265 254.324C410.256 254.274 410.236 254.227 410.207 254.184C410.147 254.098 410.056 254.038 409.951 254.017C409.847 253.995 409.738 254.014 409.647 254.068C400.55 259.862 390.149 276.505 389.194 293.282C389.186 293.379 389.215 293.475 389.276 293.553C389.337 293.63 389.426 293.683 389.525 293.7Z" fill="white"/>
<path d="M404.69 312.479C405.47 313.129 407.499 312.399 408.279 312.079C409.627 311.524 410.801 310.637 411.685 309.507C412.688 308.222 413.253 306.667 413.301 305.057C413.329 304.207 413.292 303.356 413.191 302.511L412.97 300.019C412.839 299.204 412.88 298.371 413.09 297.572C413.622 296.005 415.33 295.151 416.863 294.43C418.57 293.629 420.397 292.499 420.783 290.558C420.984 289.035 420.661 287.49 419.865 286.162C419.139 284.8 418.212 283.545 417.597 282.148C417.084 281.154 416.941 280.019 417.193 278.935C417.414 278.277 417.774 277.671 418.249 277.155C419.305 276.105 420.272 274.974 421.141 273.773C421.546 273.164 421.768 272.457 421.781 271.732C421.794 271.007 421.597 270.293 421.214 269.67C420.797 269.224 420.293 268.864 419.73 268.61C419.167 268.356 418.557 268.214 417.937 268.193C416.772 268.11 415.603 268.278 414.513 268.682C410.987 269.795 408.435 273.132 404.8 273.782C403.38 273.936 401.951 274.002 400.522 273.978C399.806 273.974 399.097 274.114 398.439 274.39C397.782 274.666 397.191 275.071 396.703 275.58C394.987 277.743 396.703 281.133 395.308 283.519C394.078 285.628 391.636 286.064 389.974 287.853C389.276 288.652 388.861 289.647 388.79 290.692C388.554 292.436 388.65 294.207 389.075 295.916C389.582 297.634 390.223 299.312 390.993 300.936C391.067 300.998 404.58 312.39 404.69 312.479Z" fill="#1995B3"/>
<path d="M396.621 306.16C396.673 306.169 396.727 306.168 396.779 306.157C396.831 306.145 396.88 306.124 396.924 306.094C396.967 306.065 397.004 306.027 397.033 305.983C397.061 305.939 397.08 305.891 397.089 305.84C399.494 290.469 410.281 275.046 416.652 271.174C416.739 271.118 416.801 271.031 416.825 270.932C416.849 270.833 416.833 270.728 416.78 270.64C416.752 270.596 416.715 270.558 416.672 270.528C416.628 270.498 416.579 270.476 416.527 270.465C416.475 270.453 416.421 270.451 416.368 270.46C416.316 270.469 416.265 270.488 416.22 270.516C409.721 274.458 398.732 290.14 396.29 305.715C396.274 305.816 396.3 305.92 396.362 306.003C396.424 306.086 396.517 306.143 396.621 306.16Z" fill="white"/>
<path d="M402.597 288.556H402.716C406.638 288.264 410.581 288.386 414.476 288.921C414.583 288.936 414.692 288.91 414.779 288.849C414.867 288.787 414.926 288.695 414.944 288.592C414.953 288.541 414.952 288.488 414.939 288.438C414.927 288.388 414.904 288.34 414.872 288.299C414.841 288.257 414.801 288.222 414.754 288.196C414.708 288.17 414.657 288.153 414.604 288.147C410.637 287.602 406.62 287.476 402.624 287.773C402.529 287.787 402.442 287.834 402.379 287.905C402.316 287.976 402.281 288.066 402.281 288.16C402.281 288.254 402.316 288.344 402.379 288.415C402.442 288.486 402.529 288.533 402.624 288.547L402.597 288.556Z" fill="white"/>
<path d="M132.76 122.206L128.17 124.778C128.183 124.583 128.183 124.386 128.17 124.191V122.9C128.17 120.604 126.508 119.678 124.498 120.827C123.617 121.351 122.863 122.052 122.286 122.882C121.955 119.999 119.614 118.922 116.778 120.515C115.169 121.539 113.832 122.917 112.875 124.536C111.918 126.155 111.368 127.97 111.27 129.833V131.72C111.252 132.489 111.412 133.253 111.738 133.954L107.928 136.09C107.332 136.471 106.836 136.981 106.479 137.581C106.122 138.18 105.914 138.852 105.872 139.543C105.872 140.816 106.79 141.323 107.928 140.7L132.797 126.781C133.393 126.4 133.889 125.889 134.246 125.29C134.603 124.69 134.811 124.018 134.853 123.327C134.798 122.09 133.88 121.574 132.76 122.206Z" fill="#EBEBEB"/>
<path d="M151.827 133.669L148.458 135.556C148.467 135.411 148.467 135.265 148.458 135.12V134.176C148.458 132.494 147.237 131.809 145.704 132.654C145.058 133.039 144.507 133.555 144.088 134.167C143.84 132.049 142.133 131.266 140.049 132.387C138.865 133.137 137.879 134.146 137.173 135.334C136.466 136.521 136.058 137.854 135.982 139.223V140.638C135.966 141.202 136.082 141.762 136.322 142.275L133.568 143.842C133.128 144.117 132.763 144.49 132.501 144.93C132.239 145.369 132.089 145.863 132.062 146.369C132.062 147.304 132.733 147.678 133.568 147.215L151.827 137.06C152.266 136.784 152.632 136.411 152.894 135.972C153.156 135.533 153.306 135.039 153.332 134.532C153.332 133.58 152.662 133.206 151.827 133.669Z" fill="#EBEBEB"/>
<path d="M405.681 304.255C407.637 305.724 407.426 307.815 405.057 309.124L275.445 381.676C273.983 382.392 272.368 382.764 270.731 382.764C269.093 382.764 267.479 382.392 266.017 381.676L18.3222 243.023C15.917 241.679 15.7242 239.57 17.7622 238.111C16.5504 239 15.5526 240.134 14.8377 241.434C14.1228 242.734 13.708 244.169 13.622 245.64V251.683C13.7066 253.271 14.1784 254.817 14.9987 256.194C15.8189 257.571 16.9642 258.739 18.3405 259.604L265.999 398.275C267.461 398.995 269.077 399.37 270.717 399.37C272.357 399.37 273.974 398.995 275.436 398.275L405.048 325.74C406.421 324.875 407.563 323.707 408.382 322.332C409.2 320.957 409.672 319.413 409.757 317.828V311.776C409.674 310.312 409.267 308.883 408.564 307.585C407.861 306.288 406.878 305.152 405.681 304.255Z" fill="#455A64"/>
<path d="M405.057 303.855L157.353 165.202C155.891 164.489 154.276 164.117 152.639 164.117C151.002 164.117 149.388 164.489 147.925 165.202L18.3222 237.755C15.715 239.205 15.715 241.573 18.3222 243.023L266.017 381.677C267.479 382.392 269.093 382.764 270.731 382.764C272.368 382.764 273.983 382.392 275.445 381.677L405.057 309.124C407.655 307.673 407.655 305.27 405.057 303.855Z" fill="#37474F"/>
<path d="M17.7622 238.111C16.5504 239 15.5526 240.134 14.8377 241.434C14.1228 242.734 13.708 244.169 13.622 245.64V251.683C13.7081 253.271 14.1805 254.816 15.0006 256.193C15.8207 257.569 16.9652 258.738 18.3405 259.604L265.999 398.275C267.453 399.024 269.08 399.401 270.726 399.37V382.762C269.084 382.793 267.461 382.419 266.008 381.676L18.3222 243.023C15.917 241.679 15.7242 239.57 17.7622 238.111Z" fill="#263238"/>
<path d="M81.6825 214.152C83.0044 213.413 83.0044 212.212 81.6825 211.482C80.9411 211.113 80.1198 210.921 79.2865 210.921C78.4533 210.921 77.632 211.113 76.8905 211.482C75.5594 212.22 75.5594 213.422 76.8905 214.152C77.6333 214.516 78.4541 214.706 79.2865 214.706C80.119 214.706 80.9397 214.516 81.6825 214.152Z" fill="black"/>
<path d="M88.1636 210.093L106.661 199.743C107.772 199.129 107.827 198.15 106.79 197.571C106.183 197.289 105.517 197.148 104.844 197.16C104.171 197.173 103.511 197.338 102.916 197.642L84.4182 208.002C83.3166 208.616 83.2615 209.586 84.2897 210.165C84.8956 210.449 85.5623 210.591 86.2354 210.579C86.9086 210.566 87.5692 210.4 88.1636 210.093Z" fill="black"/>
<path d="M165.744 176.327C163.522 175.081 161.154 175.802 158.969 177.057L37.793 244.821C35.5622 246.067 35.553 248.088 37.793 249.342L257.645 372.429C258.898 373.044 260.284 373.365 261.689 373.365C263.093 373.365 264.479 373.044 265.732 372.429L386.908 304.656C389.148 303.41 389.139 301.381 386.908 300.135L165.744 176.327Z" fill="#1995B3"/>
<path opacity="0.96" d="M165.744 176.327C163.522 175.081 161.154 175.802 158.969 177.057L37.793 244.821C35.5622 246.067 35.553 248.088 37.793 249.342L257.645 372.429C258.898 373.044 260.284 373.365 261.689 373.365C263.093 373.365 264.479 373.044 265.732 372.429L386.908 304.656C389.148 303.41 389.139 301.381 386.908 300.135L165.744 176.327Z" fill="white"/>
<g opacity="0.4">
<path d="M261.721 370.436L307.382 344.893L299.717 342.748C287.708 339.39 275.125 338.415 262.719 339.882C250.313 341.348 238.34 345.226 227.516 351.283L261.721 370.436Z" fill="#1995B3"/>
<path d="M315.231 340.487L383.411 302.324L337.777 276.79L310.852 339.268L315.231 340.487Z" fill="#1995B3"/>
<path d="M330.176 272.527L303.554 337.221C287.819 332.379 273.701 331.641 257.535 334.337L283.239 272.981L320.583 267.16L330.176 272.527Z" fill="#1995B3"/>
<path d="M245.757 336.82L255.084 314.57L182.626 306.24L170.462 319.359L220.952 347.625C228.694 342.981 237.034 339.348 245.757 336.82Z" fill="#1995B3"/>
<path d="M292.29 251.345L314.965 264.009L285.029 268.7L292.29 251.345Z" fill="#1995B3"/>
<path d="M147.641 262.141C152.097 262.141 155.71 260.12 155.71 257.628C155.71 255.136 152.097 253.116 147.641 253.116C143.184 253.116 139.572 255.136 139.572 257.628C139.572 260.12 143.184 262.141 147.641 262.141Z" fill="#1995B3"/>
<path d="M271.993 273.417L159.914 260.539C158.73 263.155 156.711 263.743 152.001 264.739L183.268 299.449L257.81 307.94L271.993 273.417Z" fill="#1995B3"/>
<path d="M218.74 240.629L210.478 259.987L159.584 254.13C158.359 252.911 156.865 251.977 155.214 251.398L162.2 234.132L218.74 240.629Z" fill="#1995B3"/>
<path d="M283.597 246.459L274.848 267.383L219.034 260.966L227.801 240.042L283.597 246.459Z" fill="#1995B3"/>
<path d="M273.131 240.593L180.68 188.849L164.67 228.125L273.131 240.593Z" fill="#1995B3"/>
<path d="M140.875 264.125L175.016 301.977L162.852 315.06L96.8571 278.125L137.552 262.639C138.595 263.26 139.711 263.759 140.875 264.125Z" fill="#1995B3"/>
<path d="M157.151 227.261L174.263 185.253L162.852 178.872L90.1648 219.554L157.151 227.261Z" fill="#1995B3"/>
<path d="M80.434 224.903L41.162 246.984L90.5963 274.654L134.201 257.993C134.109 255.964 135.119 254.015 138.314 252.199C140.939 250.731 144.217 250.179 147.843 250.099L154.645 233.269L80.434 224.903Z" fill="#1995B3"/>
</g>
<path d="M168.479 225.829V212.648L189.474 215.06V228.232L168.479 225.829Z" fill="#1995B3"/>
<path d="M189.474 215.06L193.798 203.321V217.854L189.474 228.232V215.06Z" fill="#1995B3"/>
<path d="M193.798 203.32L173.253 200.917L168.479 212.648L189.474 215.06L193.798 203.32Z" fill="#1995B3"/>
<path opacity="0.8" d="M168.479 225.829V212.648L189.474 215.06V228.232L168.479 225.829Z" fill="white"/>
<path opacity="0.75" d="M189.474 215.06L193.798 203.321V217.854L189.474 228.232V215.06Z" fill="white"/>
<path opacity="0.9" d="M193.798 203.32L173.253 200.917L168.479 212.648L189.474 215.06L193.798 203.32Z" fill="white"/>
<path d="M182.24 253.97V248.07L203.244 250.473V256.382L182.24 253.97Z" fill="#1995B3"/>
<path d="M203.244 250.473L206.99 240.3V247.562L203.244 256.382V250.473Z" fill="#1995B3"/>
<path d="M206.99 240.3L186.436 237.897L182.24 248.07L203.244 250.473L206.99 240.3Z" fill="#1995B3"/>
<path opacity="0.8" d="M182.24 253.97V248.07L203.244 250.473V256.382L182.24 253.97Z" fill="white"/>
<path opacity="0.75" d="M203.244 250.473L206.99 240.3V247.562L203.244 256.382V250.473Z" fill="white"/>
<path opacity="0.9" d="M206.99 240.3L186.436 237.897L182.24 248.07L203.244 250.473L206.99 240.3Z" fill="white"/>
<path d="M222.678 331.676V318.504L243.673 320.907V334.088L222.678 331.676Z" fill="#1995B3"/>
<path d="M243.673 320.907L248.006 309.177V323.711L243.673 334.088V320.907Z" fill="#1995B3"/>
<path d="M248.006 309.177L227.461 306.774L222.678 318.504L243.673 320.907L248.006 309.177Z" fill="#1995B3"/>
<path opacity="0.8" d="M222.678 331.676V318.504L243.673 320.907V334.088L222.678 331.676Z" fill="white"/>
<path opacity="0.75" d="M243.673 320.907L248.006 309.177V323.711L243.673 334.088V320.907Z" fill="white"/>
<path opacity="0.9" d="M248.006 309.177L227.461 306.774L222.678 318.504L243.673 320.907L248.006 309.177Z" fill="white"/>
<path d="M222.32 231.756V226.906L232.951 228.125V232.975L222.32 231.756Z" fill="#1995B3"/>
<path d="M232.951 228.125L235.135 222.179V227.724L232.951 232.975V228.125Z" fill="#1995B3"/>
<path d="M235.135 222.18L224.734 220.969L222.32 226.906L232.951 228.125L235.135 222.18Z" fill="#1995B3"/>
<path opacity="0.8" d="M222.32 231.756V226.906L232.951 228.125V232.975L222.32 231.756Z" fill="white"/>
<path opacity="0.75" d="M232.951 228.125L235.135 222.179V227.724L232.951 232.975V228.125Z" fill="white"/>
<path opacity="0.9" d="M235.135 222.18L224.734 220.969L222.32 226.906L232.951 228.125L235.135 222.18Z" fill="white"/>
<path d="M144.859 208.865V201.799L160.318 203.57V210.636L144.859 208.865Z" fill="#1995B3"/>
<path d="M160.318 203.57L163.504 194.937V203L160.318 210.636V203.57Z" fill="#1995B3"/>
<path d="M163.504 194.937L148.375 193.166L144.859 201.799L160.318 203.57L163.504 194.937Z" fill="#1995B3"/>
<path opacity="0.8" d="M144.859 208.865V201.799L160.318 203.57V210.636L144.859 208.865Z" fill="white"/>
<path opacity="0.75" d="M160.318 203.57L163.504 194.937V203L160.318 210.636V203.57Z" fill="white"/>
<path opacity="0.9" d="M163.504 194.937L148.375 193.166L144.859 201.799L160.318 203.57L163.504 194.937Z" fill="white"/>
<path d="M224.165 259.257V252.965L237.954 254.54V260.841L224.165 259.257Z" fill="#1995B3"/>
<path d="M237.954 254.54L240.79 246.842V254.033L237.954 260.841V254.54Z" fill="#1995B3"/>
<path d="M240.79 246.841L227.305 245.266L224.165 252.965L237.954 254.54L240.79 246.841Z" fill="#1995B3"/>
<path opacity="0.8" d="M224.165 259.257V252.965L237.954 254.54V260.841L224.165 259.257Z" fill="white"/>
<path opacity="0.75" d="M237.954 254.54L240.79 246.842V254.033L237.954 260.841V254.54Z" fill="white"/>
<path opacity="0.9" d="M240.79 246.841L227.305 245.266L224.165 252.965L237.954 254.54L240.79 246.841Z" fill="white"/>
<path d="M161.631 251.745V245.266L175.814 246.886V253.374L161.631 251.745Z" fill="#1995B3"/>
<path d="M175.814 246.886L178.733 238.965V246.361L175.814 253.374V246.886Z" fill="#1995B3"/>
<path d="M178.733 238.965L164.862 237.345L161.631 245.266L175.814 246.886L178.733 238.965Z" fill="#1995B3"/>
<path opacity="0.8" d="M161.631 251.745V245.266L175.814 246.886V253.374L161.631 251.745Z" fill="white"/>
<path opacity="0.75" d="M175.814 246.886L178.733 238.965V246.361L175.814 253.374V246.886Z" fill="white"/>
<path opacity="0.9" d="M178.733 238.965L164.862 237.345L161.631 245.266L175.814 246.886L178.733 238.965Z" fill="white"/>
<path d="M242.002 261.251V254.949L255.79 256.534V262.835L242.002 261.251Z" fill="#1995B3"/>
<path d="M255.79 256.533L258.627 248.835V256.017L255.79 262.835V256.533Z" fill="#1995B3"/>
<path d="M258.627 248.835L245.142 247.251L242.002 254.949L255.79 256.533L258.627 248.835Z" fill="#1995B3"/>
<path opacity="0.8" d="M242.002 261.251V254.949L255.79 256.534V262.835L242.002 261.251Z" fill="white"/>
<path opacity="0.75" d="M255.79 256.533L258.627 248.835V256.017L255.79 262.835V256.533Z" fill="white"/>
<path opacity="0.9" d="M258.627 248.835L245.142 247.251L242.002 254.949L255.79 256.533L258.627 248.835Z" fill="white"/>
<path d="M259.839 263.244V256.943L273.618 258.527V264.819L259.839 263.244Z" fill="#1995B3"/>
<path d="M273.618 258.527L276.464 250.82V258.011L273.618 264.82V258.527Z" fill="#1995B3"/>
<path d="M276.464 250.82L262.978 249.244L259.839 256.943L273.618 258.527L276.464 250.82Z" fill="#1995B3"/>
<path opacity="0.8" d="M259.839 263.244V256.943L273.618 258.527V264.819L259.839 263.244Z" fill="white"/>
<path opacity="0.75" d="M273.618 258.527L276.464 250.82V258.011L273.618 264.82V258.527Z" fill="white"/>
<path opacity="0.9" d="M276.464 250.82L262.978 249.244L259.839 256.943L273.618 258.527L276.464 250.82Z" fill="white"/>
<path d="M94.8741 242.231V235.93L108.663 237.514V243.816L94.8741 242.231Z" fill="#1995B3"/>
<path d="M108.663 237.514L111.499 229.816V236.998L108.663 243.815V237.514Z" fill="#1995B3"/>
<path d="M111.499 229.816L98.0137 228.231L94.8741 235.93L108.663 237.514L111.499 229.816Z" fill="#1995B3"/>
<path opacity="0.8" d="M94.8741 242.231V235.93L108.663 237.514V243.816L94.8741 242.231Z" fill="white"/>
<path opacity="0.75" d="M108.663 237.514L111.499 229.816V236.998L108.663 243.815V237.514Z" fill="white"/>
<path opacity="0.9" d="M111.499 229.816L98.0137 228.231L94.8741 235.93L108.663 237.514L111.499 229.816Z" fill="white"/>
<path d="M112.711 244.225V237.924L126.499 239.508V245.8L112.711 244.225Z" fill="#1995B3"/>
<path d="M126.499 239.508L129.336 231.801V238.992L126.499 245.8V239.508Z" fill="#1995B3"/>
<path d="M129.336 231.8L115.85 230.225L112.711 237.924L126.499 239.508L129.336 231.8Z" fill="#1995B3"/>
<path opacity="0.8" d="M112.711 244.225V237.924L126.499 239.508V245.8L112.711 244.225Z" fill="white"/>
<path opacity="0.75" d="M126.499 239.508L129.336 231.801V238.992L126.499 245.8V239.508Z" fill="white"/>
<path opacity="0.9" d="M129.336 231.8L115.85 230.225L112.711 237.924L126.499 239.508L129.336 231.8Z" fill="white"/>
<path d="M130.548 246.21V239.917L144.327 241.501V247.794L130.548 246.21Z" fill="#1995B3"/>
<path d="M144.327 241.501L147.173 233.794V240.985L144.327 247.794V241.501Z" fill="#1995B3"/>
<path d="M147.173 233.794L133.678 232.219L130.548 239.917L144.327 241.501L147.173 233.794Z" fill="#1995B3"/>
<path opacity="0.8" d="M130.548 246.21V239.917L144.327 241.501V247.794L130.548 246.21Z" fill="white"/>
<path opacity="0.75" d="M144.327 241.501L147.173 233.794V240.985L144.327 247.794V241.501Z" fill="white"/>
<path opacity="0.9" d="M147.173 233.794L133.678 232.219L130.548 239.917L144.327 241.501L147.173 233.794Z" fill="white"/>
<path d="M308.529 222.019V218.272L320.216 219.607V223.354L308.529 222.019Z" fill="#1995B3"/>
<path opacity="0.8" d="M308.529 222.019V218.272L320.216 219.607V223.354L308.529 222.019Z" fill="white"/>
<path d="M320.216 219.607L321.923 214.748V219.305L320.216 223.354V219.607Z" fill="#1995B3"/>
<path opacity="0.75" d="M320.216 219.607L321.923 214.748V219.305L320.216 223.354V219.607Z" fill="white"/>
<path d="M321.923 214.748L310.503 213.422L308.529 218.272L320.216 219.607L321.923 214.748Z" fill="#1995B3"/>
<path opacity="0.9" d="M321.923 214.748L310.503 213.422L308.529 218.272L320.216 219.607L321.923 214.748Z" fill="white"/>
<path d="M225.671 301.292V294.99L239.459 296.575V302.876L225.671 301.292Z" fill="#1995B3"/>
<path d="M239.459 296.575L242.296 288.867V296.058L239.459 302.876V296.575Z" fill="#1995B3"/>
<path d="M242.296 288.867L228.81 287.292L225.671 294.991L239.459 296.575L242.296 288.867Z" fill="#1995B3"/>
<path opacity="0.8" d="M225.671 301.292V294.99L239.459 296.575V302.876L225.671 301.292Z" fill="white"/>
<path opacity="0.75" d="M239.459 296.575L242.296 288.867V296.058L239.459 302.876V296.575Z" fill="white"/>
<path opacity="0.9" d="M242.296 288.867L228.81 287.292L225.671 294.991L239.459 296.575L242.296 288.867Z" fill="white"/>
<path d="M242.874 303.276V296.984L256.662 298.559V304.861L242.874 303.276Z" fill="#1995B3"/>
<path d="M256.662 298.559L259.508 290.861V298.043L256.662 304.861V298.559Z" fill="#1995B3"/>
<path d="M259.508 290.861L246.014 289.286L242.874 296.984L256.662 298.559L259.508 290.861Z" fill="#1995B3"/>
<path opacity="0.8" d="M242.874 303.276V296.984L256.662 298.559V304.861L242.874 303.276Z" fill="white"/>
<path opacity="0.75" d="M256.662 298.559L259.508 290.861V298.043L256.662 304.861V298.559Z" fill="white"/>
<path opacity="0.9" d="M259.508 290.861L246.014 289.286L242.874 296.984L256.662 298.559L259.508 290.861Z" fill="white"/>
<path d="M182.121 322.394V316.101L195.909 317.677V323.978L182.121 322.394Z" fill="#1995B3"/>
<path d="M195.909 317.677L198.746 309.978V317.169L195.909 323.978V317.677Z" fill="#1995B3"/>
<path d="M198.746 309.978L185.26 308.394L182.121 316.101L195.909 317.676L198.746 309.978Z" fill="#1995B3"/>
<path opacity="0.8" d="M182.121 322.394V316.101L195.909 317.677V323.978L182.121 322.394Z" fill="white"/>
<path opacity="0.75" d="M195.909 317.677L198.746 309.978V317.169L195.909 323.978V317.677Z" fill="white"/>
<path opacity="0.9" d="M198.746 309.978L185.26 308.394L182.121 316.101L195.909 317.676L198.746 309.978Z" fill="white"/>
<path d="M199.324 324.387V318.086L213.113 319.67V325.962L199.324 324.387Z" fill="#1995B3"/>
<path d="M213.113 319.67L215.958 311.963V319.154L213.113 325.962V319.67Z" fill="#1995B3"/>
<path d="M215.958 311.963L202.464 310.387L199.324 318.086L213.113 319.67L215.958 311.963Z" fill="#1995B3"/>
<path opacity="0.8" d="M199.324 324.387V318.086L213.113 319.67V325.962L199.324 324.387Z" fill="white"/>
<path opacity="0.75" d="M213.113 319.67L215.958 311.963V319.154L213.113 325.962V319.67Z" fill="white"/>
<path opacity="0.9" d="M215.958 311.963L202.464 310.387L199.324 318.086L213.113 319.67L215.958 311.963Z" fill="white"/>
<path d="M303.939 292.498V286.197L317.719 287.781V294.074L303.939 292.498Z" fill="#1995B3"/>
<path d="M317.719 287.781L320.564 280.074V287.265L317.719 294.074V287.781Z" fill="#1995B3"/>
<path d="M320.564 280.074L307.07 278.499L303.939 286.197L317.719 287.781L320.564 280.074Z" fill="#1995B3"/>
<path opacity="0.8" d="M303.939 292.498V286.197L317.719 287.781V294.074L303.939 292.498Z" fill="white"/>
<path opacity="0.75" d="M317.719 287.781L320.564 280.074V287.265L317.719 294.074V287.781Z" fill="white"/>
<path opacity="0.9" d="M320.564 280.074L307.07 278.499L303.939 286.197L317.719 287.781L320.564 280.074Z" fill="white"/>
<path d="M298.532 305.475V299.173L312.312 300.758V307.059L298.532 305.475Z" fill="#1995B3"/>
<path d="M312.312 300.758L315.157 293.05V300.242L312.312 307.059V300.758Z" fill="#1995B3"/>
<path d="M315.157 293.05L301.663 291.475L298.532 299.173L312.312 300.758L315.157 293.05Z" fill="#1995B3"/>
<path opacity="0.8" d="M298.532 305.475V299.173L312.312 300.758V307.059L298.532 305.475Z" fill="white"/>
<path opacity="0.75" d="M312.312 300.758L315.157 293.05V300.242L312.312 307.059V300.758Z" fill="white"/>
<path opacity="0.9" d="M315.157 293.05L301.663 291.475L298.532 299.173L312.312 300.758L315.157 293.05Z" fill="white"/>
<path d="M293.116 318.451V312.15L306.905 313.734V320.035L293.116 318.451Z" fill="#1995B3"/>
<path d="M306.905 313.734L309.75 306.026V313.218L306.905 320.035V313.734Z" fill="#1995B3"/>
<path d="M309.75 306.026L296.256 304.451L293.116 312.15L306.905 313.734L309.75 306.026Z" fill="#1995B3"/>
<path opacity="0.8" d="M293.116 318.451V312.15L306.905 313.734V320.035L293.116 318.451Z" fill="white"/>
<path opacity="0.75" d="M306.905 313.734L309.75 306.026V313.218L306.905 320.035V313.734Z" fill="white"/>
<path opacity="0.9" d="M309.75 306.026L296.256 304.451L293.116 312.15L306.905 313.734L309.75 306.026Z" fill="white"/>
<path d="M287.709 331.427V325.135L301.498 326.71V333.011L287.709 331.427Z" fill="#1995B3"/>
<path d="M301.498 326.71L304.343 319.011V326.194L301.498 333.011V326.71Z" fill="#1995B3"/>
<path d="M304.343 319.011L290.849 317.427L287.709 325.135L301.498 326.71L304.343 319.011Z" fill="#1995B3"/>
<path opacity="0.8" d="M287.709 331.427V325.135L301.498 326.71V333.011L287.709 331.427Z" fill="white"/>
<path opacity="0.75" d="M301.498 326.71L304.343 319.011V326.194L301.498 333.011V326.71Z" fill="white"/>
<path opacity="0.9" d="M304.343 319.011L290.849 317.427L287.709 325.135L301.498 326.71L304.343 319.011Z" fill="white"/>
<path d="M280.531 289.855V283.563L294.319 285.138V291.439L280.531 289.855Z" fill="#1995B3"/>
<path d="M294.319 285.138L297.165 277.44V284.622L294.319 291.439V285.138Z" fill="#1995B3"/>
<path d="M297.165 277.44L283.67 275.855L280.531 283.563L294.319 285.138L297.165 277.44Z" fill="#1995B3"/>
<path opacity="0.8" d="M280.531 289.855V283.563L294.319 285.138V291.439L280.531 289.855Z" fill="white"/>
<path opacity="0.75" d="M294.319 285.138L297.165 277.44V284.622L294.319 291.439V285.138Z" fill="white"/>
<path opacity="0.9" d="M297.165 277.44L283.67 275.855L280.531 283.563L294.319 285.138L297.165 277.44Z" fill="white"/>
<path d="M275.123 302.831V296.539L288.912 298.114V304.416L275.123 302.831Z" fill="#1995B3"/>
<path d="M288.912 298.114L291.758 290.416V297.607L288.912 304.415V298.114Z" fill="#1995B3"/>
<path d="M291.758 290.416L278.263 288.841L275.123 296.539L288.912 298.114L291.758 290.416Z" fill="#1995B3"/>
<path opacity="0.8" d="M275.123 302.831V296.539L288.912 298.114V304.416L275.123 302.831Z" fill="white"/>
<path opacity="0.75" d="M288.912 298.114L291.758 290.416V297.607L288.912 304.415V298.114Z" fill="white"/>
<path opacity="0.9" d="M291.758 290.416L278.263 288.841L275.123 296.539L288.912 298.114L291.758 290.416Z" fill="white"/>
<path d="M269.716 315.816V309.515L283.505 311.099V317.392L269.716 315.816Z" fill="#1995B3"/>
<path d="M283.505 311.099L286.351 303.392V310.583L283.505 317.392V311.099Z" fill="#1995B3"/>
<path d="M286.351 303.392L272.856 301.817L269.716 309.515L283.505 311.099L286.351 303.392Z" fill="#1995B3"/>
<path opacity="0.8" d="M269.716 315.816V309.515L283.505 311.099V317.392L269.716 315.816Z" fill="white"/>
<path opacity="0.75" d="M283.505 311.099L286.351 303.392V310.583L283.505 317.392V311.099Z" fill="white"/>
<path opacity="0.9" d="M286.351 303.392L272.856 301.817L269.716 309.515L283.505 311.099L286.351 303.392Z" fill="white"/>
<path d="M264.309 328.793V322.491L278.098 324.076V330.368L264.309 328.793Z" fill="#1995B3"/>
<path d="M278.098 324.076L280.944 316.368V323.559L278.098 330.368V324.076Z" fill="#1995B3"/>
<path d="M280.944 316.368L267.449 314.793L264.309 322.491L278.098 324.076L280.944 316.368Z" fill="#1995B3"/>
<path opacity="0.8" d="M264.309 328.793V322.491L278.098 324.076V330.368L264.309 328.793Z" fill="white"/>
<path opacity="0.75" d="M278.098 324.076L280.944 316.368V323.559L278.098 330.368V324.076Z" fill="white"/>
<path opacity="0.9" d="M280.944 316.368L267.449 314.793L264.309 322.491L278.098 324.076L280.944 316.368Z" fill="white"/>
<path d="M326.779 313.591V308.643L337.63 309.889V314.837L326.779 313.591Z" fill="#1995B3"/>
<path d="M337.63 309.889L339.861 303.828V309.48L337.63 314.837V309.889Z" fill="#1995B3"/>
<path d="M339.861 303.828L329.249 302.582L326.779 308.643L337.63 309.889L339.861 303.828Z" fill="#1995B3"/>
<path opacity="0.8" d="M326.779 313.591V308.643L337.63 309.889V314.837L326.779 313.591Z" fill="white"/>
<path opacity="0.75" d="M337.63 309.889L339.861 303.828V309.48L337.63 314.837V309.889Z" fill="white"/>
<path opacity="0.9" d="M339.861 303.828L329.249 302.582L326.779 308.643L337.63 309.889L339.861 303.828Z" fill="white"/>
<path d="M321.363 328.188V323.23L332.205 324.476V329.425L321.363 328.188Z" fill="#1995B3"/>
<path d="M332.205 324.476L334.445 318.415V324.067L332.205 329.425V324.476Z" fill="#1995B3"/>
<path d="M334.445 318.415L323.833 317.169L321.363 323.23L332.205 324.476L334.445 318.415Z" fill="#1995B3"/>
<path opacity="0.8" d="M321.363 328.188V323.23L332.205 324.476V329.425L321.363 328.188Z" fill="white"/>
<path opacity="0.75" d="M332.205 324.476L334.445 318.415V324.067L332.205 329.425V324.476Z" fill="white"/>
<path opacity="0.9" d="M334.445 318.415L323.833 317.169L321.363 323.23L332.205 324.476L334.445 318.415Z" fill="white"/>
<path d="M204.915 298.684V275.081L222.008 277.039V300.633L204.915 298.684Z" fill="#1995B3"/>
<path opacity="0.8" d="M204.915 298.684V275.081L222.008 277.039V300.633L204.915 298.684Z" fill="white"/>
<path d="M222.008 277.039L224.22 271.281V296.058L222.008 300.633V277.039Z" fill="#1995B3"/>
<path opacity="0.75" d="M222.008 277.039L224.22 271.281V296.058L222.008 300.633V277.039Z" fill="white"/>
<path d="M224.22 271.281L207.522 269.341L204.915 275.081L222.008 277.039L224.22 271.281Z" fill="#1995B3"/>
<path opacity="0.9" d="M224.22 271.281L207.522 269.341L204.915 275.081L222.008 277.039L224.22 271.281Z" fill="white"/>
<path d="M118.513 219.358V191.448L128.363 192.516V220.417L118.513 219.358Z" fill="#1995B3"/>
<path opacity="0.8" d="M118.513 219.358V191.448L128.363 192.516V220.417L118.513 219.358Z" fill="white"/>
<path d="M128.363 192.516L130.575 186.758V215.843L128.363 220.417V192.516Z" fill="#1995B3"/>
<path opacity="0.75" d="M128.363 192.516L130.575 186.758V215.843L128.363 220.417V192.516Z" fill="white"/>
<path d="M130.575 186.757L121.12 185.707L118.513 191.448L128.363 192.516L130.575 186.757Z" fill="#1995B3"/>
<path opacity="0.9" d="M130.575 186.757L121.12 185.707L118.513 191.448L128.363 192.516L130.575 186.757Z" fill="white"/>
<path d="M129.464 218.379V193.771L134.679 194.314V218.931L129.464 218.379Z" fill="#1995B3"/>
<path opacity="0.8" d="M129.464 218.379V193.771L134.679 194.314V218.931L129.464 218.379Z" fill="white"/>
<path d="M134.679 194.314L135.496 191.795V217.409L134.679 218.931V194.314Z" fill="#1995B3"/>
<path opacity="0.75" d="M134.679 194.314L135.496 191.795V217.409L134.679 218.931V194.314Z" fill="white"/>
<path d="M135.496 191.795L130.612 191.252L129.464 193.771L134.679 194.314L135.496 191.795Z" fill="#1995B3"/>
<path opacity="0.9" d="M135.496 191.795L130.612 191.252L129.464 193.771L134.679 194.314L135.496 191.795Z" fill="white"/>
<path d="M184.48 296.325V272.723L201.573 274.672V298.275L184.48 296.325Z" fill="#1995B3"/>
<path opacity="0.8" d="M184.48 296.325V272.723L201.573 274.672V298.275L184.48 296.325Z" fill="white"/>
<path d="M201.573 274.672L203.795 268.922V293.7L201.573 298.275V274.672Z" fill="#1995B3"/>
<path opacity="0.75" d="M201.573 274.672L203.795 268.922V293.7L201.573 298.275V274.672Z" fill="white"/>
<path d="M203.795 268.922L187.096 266.982L184.48 272.723L201.573 274.672L203.795 268.922Z" fill="#1995B3"/>
<path opacity="0.9" d="M203.795 268.922L187.096 266.982L184.48 272.723L201.573 274.672L203.795 268.922Z" fill="white"/>
<path d="M139.581 222.019V214.953L155.031 216.724V223.79L139.581 222.019Z" fill="#1995B3"/>
<path d="M155.031 216.724L158.225 208.091V216.154L155.031 223.79V216.724Z" fill="#1995B3"/>
<path d="M158.225 208.091L143.097 206.32L139.581 214.953L155.031 216.724L158.225 208.091Z" fill="#1995B3"/>
<path opacity="0.8" d="M139.581 222.019V214.953L155.031 216.724V223.79L139.581 222.019Z" fill="white"/>
<path opacity="0.75" d="M155.031 216.724L158.225 208.091V216.154L155.031 223.79V216.724Z" fill="white"/>
<path opacity="0.9" d="M158.225 208.091L143.097 206.32L139.581 214.953L155.031 216.724L158.225 208.091Z" fill="white"/>
<path d="M126.095 272.651L115.024 278.846L106.156 273.915L117.797 267.4L126.095 272.651Z" fill="#1995B3"/>
<path opacity="0.9" d="M126.095 272.651L115.024 278.846L106.156 273.915L117.797 267.4L126.095 272.651Z" fill="white"/>
<path d="M106.156 279.024V273.915L115.024 278.846V283.981L106.156 279.024Z" fill="#1995B3"/>
<path opacity="0.8" d="M106.156 279.024V273.915L115.024 278.846V283.981L106.156 279.024Z" fill="white"/>
<path d="M126.095 272.651V277.787L115.024 283.981V278.846L126.095 272.651Z" fill="#1995B3"/>
<path opacity="0.75" d="M126.095 272.651V277.787L115.024 283.981V278.846L126.095 272.651Z" fill="white"/>
<path d="M138.47 279.727L127.399 285.921L118.54 280.991L130.18 274.485L138.47 279.727Z" fill="#1995B3"/>
<path opacity="0.9" d="M138.47 279.727L127.399 285.921L118.54 280.991L130.18 274.485L138.47 279.727Z" fill="white"/>
<path d="M118.54 286.099V280.991L127.399 285.921V291.057L118.54 286.099Z" fill="#1995B3"/>
<path opacity="0.8" d="M118.54 286.099V280.991L127.399 285.921V291.057L118.54 286.099Z" fill="white"/>
<path d="M138.47 279.727V284.862L127.399 291.057V285.921L138.47 279.727Z" fill="#1995B3"/>
<path opacity="0.75" d="M138.47 279.727V284.862L127.399 291.057V285.921L138.47 279.727Z" fill="white"/>
<path d="M151.102 286.74L140.031 292.926L131.163 288.004L142.803 281.489L151.102 286.74Z" fill="#1995B3"/>
<path opacity="0.9" d="M151.102 286.74L140.031 292.926L131.163 288.004L142.803 281.489L151.102 286.74Z" fill="white"/>
<path d="M131.163 293.104V288.004L140.031 292.926V298.07L131.163 293.104Z" fill="#1995B3"/>
<path opacity="0.8" d="M131.163 293.104V288.004L140.031 292.926V298.07L131.163 293.104Z" fill="white"/>
<path d="M151.102 286.74V291.876L140.031 298.07V292.926L151.102 286.74Z" fill="#1995B3"/>
<path opacity="0.75" d="M151.102 286.74V291.876L140.031 298.07V292.926L151.102 286.74Z" fill="white"/>
<path d="M169.021 289.9L157.95 296.094L149.082 291.163L160.722 284.657L169.021 289.9Z" fill="#1995B3"/>
<path opacity="0.9" d="M169.021 289.9L157.95 296.094L149.082 291.163L160.722 284.657L169.021 289.9Z" fill="white"/>
<path d="M149.082 303.454V291.164L157.95 296.094V308.421L149.082 303.454Z" fill="#1995B3"/>
<path opacity="0.8" d="M149.082 303.454V291.164L157.95 296.094V308.421L149.082 303.454Z" fill="white"/>
<path d="M169.021 289.9V302.217L157.95 308.421V296.094L169.021 289.9Z" fill="#1995B3"/>
<path opacity="0.75" d="M169.021 289.9V302.217L157.95 308.421V296.094L169.021 289.9Z" fill="white"/>
<path d="M102.824 261.001L90.8258 265.353L81.9579 260.432L94.5345 255.759L102.824 261.001Z" fill="#1995B3"/>
<path opacity="0.9" d="M102.824 261.001L90.8258 265.353L81.9579 260.432L94.5345 255.759L102.824 261.001Z" fill="white"/>
<path d="M81.9579 265.531V260.432L90.8258 265.353V270.498L81.9579 265.531Z" fill="#1995B3"/>
<path opacity="0.8" d="M81.9579 265.531V260.432L90.8258 265.353V270.498L81.9579 265.531Z" fill="white"/>
<path d="M102.824 261.001V266.137L90.8258 270.498V265.354L102.824 261.001Z" fill="#1995B3"/>
<path opacity="0.75" d="M102.824 261.001V266.137L90.8258 270.498V265.354L102.824 261.001Z" fill="white"/>
<path d="M122.065 253.881L110.058 258.242L101.19 253.312L113.767 248.639L122.065 253.881Z" fill="#1995B3"/>
<path opacity="0.9" d="M122.065 253.881L110.058 258.242L101.19 253.312L113.767 248.639L122.065 253.881Z" fill="white"/>
<path d="M101.19 258.42V253.312L110.058 258.242V263.378L101.19 258.42Z" fill="#1995B3"/>
<path opacity="0.8" d="M101.19 258.42V253.312L110.058 258.242V263.378L101.19 258.42Z" fill="white"/>
<path d="M122.065 253.881V259.026L110.058 263.378V258.242L122.065 253.881Z" fill="#1995B3"/>
<path opacity="0.75" d="M122.065 253.881V259.026L110.058 263.378V258.242L122.065 253.881Z" fill="white"/>
<path d="M194.909 228.338V220.898L217.345 223.461V230.902L194.909 228.338Z" fill="#1995B3"/>
<path opacity="0.75" d="M194.909 228.338V220.898L217.345 223.461V230.902L194.909 228.338Z" fill="white"/>
<path d="M217.345 223.461L222.081 210.601V219.536L217.345 230.901V223.461Z" fill="#1995B3"/>
<path opacity="0.65" d="M217.345 223.461L222.081 210.601V219.536L217.345 230.901V223.461Z" fill="white"/>
<path d="M222.081 210.601L200.141 208.037L194.909 220.898L217.345 223.461L222.081 210.601Z" fill="#1995B3"/>
<path opacity="0.9" d="M222.081 210.601L200.141 208.037L194.909 220.898L217.345 223.461L222.081 210.601Z" fill="white"/>
<path d="M197.791 219.047V182.752L215.362 184.755V221.049L197.791 219.047Z" fill="#1995B3"/>
<path opacity="0.75" d="M197.791 219.047V182.752L215.362 184.755V221.049L197.791 219.047Z" fill="white"/>
<path d="M215.362 184.755L219.199 174.342V211.838L215.362 221.049V184.755Z" fill="#1995B3"/>
<path opacity="0.65" d="M215.362 184.755L219.199 174.342V211.838L215.362 221.049V184.755Z" fill="white"/>
<path d="M219.199 174.342L202.032 172.34L197.791 182.753L215.362 184.755L219.199 174.342Z" fill="#1995B3"/>
<path opacity="0.9" d="M219.199 174.342L202.032 172.34L197.791 182.753L215.362 184.755L219.199 174.342Z" fill="white"/>
<path d="M203.272 180.412V160.627L212.856 161.722V181.507L203.272 180.412Z" fill="#1995B3"/>
<path opacity="0.75" d="M203.272 180.412V160.627L212.856 161.722V181.507L203.272 180.412Z" fill="white"/>
<path d="M212.856 161.722L214.949 156.044V176.487L212.856 181.507V161.722Z" fill="#1995B3"/>
<path opacity="0.65" d="M212.856 161.722L214.949 156.044V176.487L212.856 181.507V161.722Z" fill="white"/>
<path d="M214.949 156.044L205.576 154.949L203.272 160.627L212.856 161.722L214.949 156.044Z" fill="#1995B3"/>
<path opacity="0.9" d="M214.949 156.044L205.576 154.949L203.272 160.627L212.856 161.722L214.949 156.044Z" fill="white"/>
<path d="M304.885 280.546V223.354L322.465 225.357V282.548L304.885 280.546Z" fill="#1995B3"/>
<path opacity="0.75" d="M304.885 280.546V223.354L322.465 225.357V282.548L304.885 280.546Z" fill="white"/>
<path d="M322.465 225.357L325.035 218.068V276.461L322.465 282.548V225.357Z" fill="#1995B3"/>
<path opacity="0.65" d="M322.465 225.357L325.035 218.068V276.461L322.465 282.548V225.357Z" fill="white"/>
<path d="M325.035 218.068L307.859 216.065L304.885 223.354L322.465 225.357L325.035 218.068Z" fill="#1995B3"/>
<path opacity="0.9" d="M325.035 218.068L307.859 216.065L304.885 223.354L322.465 225.357L325.035 218.068Z" fill="white"/>
<path d="M333.325 298.791V245.836L348.646 247.482V300.446L333.325 298.791Z" fill="#1995B3"/>
<path opacity="0.75" d="M333.325 298.791V245.836L348.646 247.482V300.446L333.325 298.791Z" fill="white"/>
<path d="M348.646 247.482L352.098 238.538V293.326L348.646 300.446V247.482Z" fill="#1995B3"/>
<path opacity="0.65" d="M348.646 247.482L352.098 238.538V293.326L348.646 300.446V247.482Z" fill="white"/>
<path d="M352.098 238.538L337.382 236.891L333.325 245.836L348.646 247.482L352.098 238.538Z" fill="#1995B3"/>
<path opacity="0.9" d="M352.098 238.538L337.382 236.891L333.325 245.836L348.646 247.482L352.098 238.538Z" fill="white"/>
<path d="M350.372 297.278V249.449L358.487 250.295V298.123L350.372 297.278Z" fill="#1995B3"/>
<path opacity="0.75" d="M350.372 297.278V249.449L358.487 250.295V298.123L350.372 297.278Z" fill="white"/>
<path d="M358.487 250.295L359.745 246.37V295.774L358.487 298.123V250.295Z" fill="#1995B3"/>
<path opacity="0.65" d="M358.487 250.295L359.745 246.37V295.774L358.487 298.123V250.295Z" fill="white"/>
<path d="M359.745 246.37L352.153 245.533L350.372 249.449L358.487 250.295L359.745 246.37Z" fill="#1995B3"/>
<path opacity="0.9" d="M359.745 246.37L352.153 245.533L350.372 249.449L358.487 250.295L359.745 246.37Z" fill="white"/>
<path d="M48.0745 240.451L70.4554 252.973V259.782L48.0745 247.26V240.451Z" fill="#1995B3"/>
<path opacity="0.35" d="M48.0745 240.451L70.4554 252.973V259.782L48.0745 247.26V240.451Z" fill="black"/>
<path d="M92.827 247.26V240.451L70.4554 252.973V259.782" fill="#1995B3"/>
<path opacity="0.15" d="M92.827 240.451L70.4554 252.973V259.782L92.827 247.26V240.451Z" fill="black"/>
<path d="M92.827 240.451L70.4554 227.929L48.0745 240.451L70.4554 252.974L92.827 240.451Z" fill="#1995B3"/>
<path opacity="0.5" d="M92.827 240.451L70.4554 227.929L48.0745 240.451L70.4554 252.974L92.827 240.451Z" fill="black"/>
<path d="M48.0745 239.401L70.4554 251.923V249.841L48.0745 237.318V239.401Z" fill="#1995B3"/>
<path opacity="0.35" d="M48.0745 239.401L70.4554 251.923V249.841L48.0745 237.318V239.401Z" fill="black"/>
<path d="M70.4554 251.923L92.827 239.401V237.318L70.4554 249.841V251.923Z" fill="#1995B3"/>
<path opacity="0.15" d="M70.4554 251.923L92.827 239.401V237.318L70.4554 249.841V251.923Z" fill="black"/>
<path d="M92.827 237.318L70.4554 224.796L48.0745 237.318L70.4554 249.841L92.827 237.318Z" fill="#1995B3"/>
<path opacity="0.5" d="M92.827 237.318L70.4554 224.796L48.0745 237.318L70.4554 249.841L92.827 237.318Z" fill="black"/>
<path d="M48.0745 236.037L70.4554 248.559V246.477L48.0745 233.954V236.037Z" fill="#1995B3"/>
<path opacity="0.35" d="M48.0745 236.037L70.4554 248.559V246.477L48.0745 233.954V236.037Z" fill="black"/>
<path d="M70.4554 248.559L92.827 236.037V233.954L70.4554 246.477V248.559Z" fill="#1995B3"/>
<path opacity="0.15" d="M70.4554 248.559L92.827 236.037V233.954L70.4554 246.477V248.559Z" fill="black"/>
<path d="M92.827 233.954L70.4554 221.432L48.0745 233.954L70.4554 246.476L92.827 233.954Z" fill="#1995B3"/>
<path opacity="0.5" d="M92.827 233.954L70.4554 221.432L48.0745 233.954L70.4554 246.476L92.827 233.954Z" fill="black"/>
<path d="M70.4554 244.127V191.546L51.8108 181.115V233.687L70.4554 244.127Z" fill="#1995B3"/>
<path d="M70.4554 191.546L89.1 181.115V233.687L70.4554 244.127V191.546Z" fill="#1995B3"/>
<path d="M89.1 181.115L70.4554 170.675L51.8108 181.115L70.4554 191.546L89.1 181.115Z" fill="#1995B3"/>
<path opacity="0.4" d="M89.1 181.115L70.4554 170.675L51.8108 181.115L70.4554 191.546L89.1 181.115Z" fill="black"/>
<path opacity="0.2" d="M70.4554 244.127V191.546L51.8108 181.115V233.687L70.4554 244.127Z" fill="black"/>
<path d="M70.4553 189.463V145.177L55.5378 136.633V181.115L70.4553 189.463Z" fill="#1995B3"/>
<path d="M70.4554 189.463V145.177L85.3637 136.633V181.115L70.4554 189.463Z" fill="#1995B3"/>
<path d="M85.3637 136.633L70.4553 128.383L55.5378 136.633L70.4553 145.177L85.3637 136.633Z" fill="#1995B3"/>
<path opacity="0.4" d="M85.3637 136.633L70.4553 128.383L55.5378 136.633L70.4553 145.177L85.3637 136.633Z" fill="black"/>
<path opacity="0.2" d="M70.4553 189.463V145.177L55.5378 136.633V181.115L70.4553 189.463Z" fill="black"/>
<path d="M70.4554 141.946V135.689L79.7731 130.465V136.731L70.4554 141.946Z" fill="#1995B3"/>
<path d="M61.1285 136.731V130.465L70.4554 135.689V141.946L61.1285 136.731Z" fill="#1995B3"/>
<path opacity="0.2" d="M61.1285 136.731V130.465L70.4554 135.689V141.946L61.1285 136.731Z" fill="black"/>
<path d="M79.7731 130.465L70.4554 125.25L61.1285 130.465L70.4554 135.689L79.7731 130.465Z" fill="#1995B3"/>
<path opacity="0.4" d="M79.7731 130.465L70.4554 125.25L61.1285 130.465L70.4554 135.689L79.7731 130.465Z" fill="black"/>
<path d="M70.4554 133.598V104.379L76.046 130.465L70.4554 133.598Z" fill="#1995B3"/>
<path opacity="0.1" d="M70.4554 133.598V104.379L76.046 130.465L70.4554 133.598Z" fill="black"/>
<path d="M64.7913 130.465L70.4554 104.379V133.598L64.7913 130.465Z" fill="#1995B3"/>
<path opacity="0.25" d="M64.7913 130.465L70.4554 104.379V133.598L64.7913 130.465Z" fill="black"/>
<path d="M311.155 343.219C311.082 343.217 311.011 343.202 310.944 343.175C310.825 343.113 298.477 337.105 279.493 336.26C260.509 335.414 251.457 338.93 251.366 338.93C251.281 338.962 251.189 338.969 251.1 338.951C251.011 338.933 250.929 338.89 250.865 338.827C250.801 338.765 250.757 338.686 250.738 338.6C250.719 338.514 250.727 338.424 250.76 338.342L278.676 271.45L213.406 264.072C213.335 264.063 213.266 264.039 213.206 264.001C213.146 263.962 213.096 263.911 213.059 263.851C213.023 263.79 213.001 263.723 212.996 263.653C212.991 263.583 213.003 263.513 213.03 263.449L223.376 238.636L91.3124 223.434C91.2514 223.429 91.1923 223.412 91.1385 223.383C91.0847 223.355 91.0375 223.316 90.9997 223.269C90.9619 223.223 90.9343 223.169 90.9186 223.112C90.9029 223.054 90.8995 222.995 90.9085 222.936C90.9223 222.817 90.9841 222.708 91.0804 222.633C91.1767 222.558 91.2997 222.523 91.4225 222.535L224.101 237.835C224.171 237.844 224.238 237.869 224.297 237.908C224.356 237.946 224.405 237.997 224.441 238.057C224.472 238.119 224.489 238.188 224.489 238.257C224.489 238.327 224.472 238.395 224.441 238.458L214.086 263.28L279.355 270.658C279.426 270.666 279.495 270.689 279.555 270.726C279.615 270.763 279.666 270.813 279.704 270.871C279.736 270.935 279.753 271.005 279.753 271.076C279.753 271.147 279.736 271.217 279.704 271.281L251.944 337.773C254.781 336.883 263.639 334.658 279.484 335.361C298.679 336.206 311.192 342.303 311.32 342.365C311.375 342.391 311.424 342.428 311.464 342.473C311.503 342.518 311.534 342.57 311.553 342.626C311.571 342.683 311.578 342.742 311.573 342.801C311.568 342.86 311.551 342.918 311.522 342.97C311.487 343.038 311.436 343.097 311.371 343.14C311.307 343.184 311.233 343.211 311.155 343.219Z" fill="#455A64"/>
<path d="M54.3812 64.356V61.686C54.4258 58.2637 55.0141 54.8686 56.1254 51.6201C58.962 43.1206 64.9382 34.986 71.8507 31.1501C76.2479 28.6848 80.2596 28.3822 83.3349 29.8596L77.2853 26.4865C75.7935 25.5327 74.0415 25.0336 72.2546 25.0536C71.9724 25.0509 71.6903 25.0657 71.4101 25.0981C71.1163 25.0981 70.8226 25.1515 70.4921 25.196C70.1829 25.2306 69.8763 25.2841 69.5741 25.3562C69.264 25.4207 68.9576 25.5009 68.6561 25.5965C68.0081 25.7814 67.3733 26.0074 66.7558 26.2729C66.4345 26.4064 66.1132 26.5666 65.7827 26.7179C65.4523 26.8692 65.1218 27.0561 64.8005 27.2341C55.2074 32.6097 47.3952 46.2801 47.3952 57.8501V60.5201C47.3952 72.0278 63.3592 84.5501 63.3592 84.5501L69.7852 88.1101C69.6722 88.0377 69.5648 87.9574 69.4639 87.8698C64.7362 83.4999 54.3812 73.2115 54.3812 64.356ZM73.4389 40.1569C73.4951 40.4509 73.5319 40.7482 73.549 41.0469C73.549 41.1537 73.549 41.2516 73.549 41.3584C73.5583 41.5333 73.5583 41.7085 73.549 41.8835C73.549 47.2769 69.6475 53.8451 64.8188 56.5418L64.2956 56.8177C64.1212 56.9067 63.9467 56.9779 63.7815 57.0491L63.2766 57.2538H63.2215C63.9743 61.3834 67.5178 62.8252 71.814 60.44C76.6335 57.77 80.535 51.1662 80.535 45.7728C80.5717 40.9935 77.4964 38.724 73.4389 40.1569Z" fill="#1995B3"/>
<path opacity="0.3" d="M54.3812 64.356V61.686C54.4258 58.2637 55.0141 54.8686 56.1254 51.6201C58.962 43.1206 64.9382 34.986 71.8507 31.1501C76.2479 28.6848 80.2596 28.3822 83.3349 29.8596L77.2853 26.4865C75.7935 25.5327 74.0415 25.0336 72.2546 25.0536C71.9724 25.0509 71.6903 25.0657 71.4101 25.0981C71.1163 25.0981 70.8226 25.1515 70.4921 25.196C70.1829 25.2306 69.8763 25.2841 69.5741 25.3562C69.264 25.4207 68.9576 25.5009 68.6561 25.5965C68.0081 25.7814 67.3733 26.0074 66.7558 26.2729C66.4345 26.4064 66.1132 26.5666 65.7827 26.7179C65.4523 26.8692 65.1218 27.0561 64.8005 27.2341C55.2074 32.6097 47.3952 46.2801 47.3952 57.8501V60.5201C47.3952 72.0278 63.3592 84.5501 63.3592 84.5501L69.7852 88.1101C69.6722 88.0377 69.5648 87.9574 69.4639 87.8698C64.7362 83.4999 54.3812 73.2115 54.3812 64.356Z" fill="black"/>
<path opacity="0.5" d="M73.4388 40.1569C73.4951 40.451 73.5319 40.7483 73.549 41.0469C73.549 41.1537 73.549 41.2516 73.549 41.3584C73.5583 41.5333 73.5583 41.7086 73.549 41.8835C73.549 47.2769 69.6475 53.8451 64.8188 56.5418L64.2956 56.8177C64.1211 56.9067 63.9467 56.9779 63.7815 57.0491L63.2766 57.2538H63.2215C63.9743 61.3834 67.5177 62.8252 71.814 60.44C76.6335 57.77 80.535 51.1662 80.535 45.7728C80.5717 40.9935 77.4964 38.724 73.4388 40.1569Z" fill="black"/>
<path d="M89.3019 42.186C89.3019 30.6783 81.4897 25.721 71.8599 31.1233C62.2301 36.5256 54.4179 50.2227 54.4179 61.7304V64.4004C54.4179 73.3004 64.7729 83.5443 69.5374 87.8074C69.8065 88.0417 70.1278 88.2125 70.4762 88.3067C70.8246 88.4009 71.1907 88.4159 71.5461 88.3504C71.9014 88.2849 72.2364 88.1409 72.5249 87.9293C72.8134 87.7178 73.0476 87.4446 73.2094 87.131C77.322 78.9697 89.3019 54.379 89.3019 44.8471V42.186ZM71.8599 60.4399C67.0404 63.1099 63.1297 60.9561 63.1297 55.5538C63.1297 50.1515 67.022 43.61 71.8415 40.94C76.661 38.27 80.5717 40.4238 80.5717 45.8261C80.5717 51.2284 76.661 57.7432 71.8415 60.4399H71.8599Z" fill="#1995B3"/>
<path d="M89.3019 42.186C89.3019 30.6783 81.4897 25.721 71.8599 31.1233C62.2301 36.5256 54.4179 50.2227 54.4179 61.7304V64.4004C54.4179 73.3004 64.7729 83.5443 69.5374 87.8074C69.8065 88.0417 70.1278 88.2125 70.4762 88.3067C70.8246 88.4009 71.1907 88.4159 71.5461 88.3504C71.9014 88.2849 72.2364 88.1409 72.5249 87.9293C72.8134 87.7178 73.0476 87.4446 73.2094 87.131C77.322 78.9697 89.3019 54.379 89.3019 44.8471V42.186ZM71.8599 60.4399C67.0404 63.1099 63.1297 60.9561 63.1297 55.5538C63.1297 50.1515 67.022 43.61 71.8415 40.94C76.661 38.27 80.5717 40.4238 80.5717 45.8261C80.5717 51.2284 76.661 57.7432 71.8415 60.4399H71.8599Z" fill="#1995B3"/>
<path d="M204.511 136.748V135.858C204.526 134.733 204.721 133.616 205.089 132.548C205.949 129.786 207.777 127.403 210.258 125.81C210.799 125.437 211.428 125.203 212.088 125.128C212.747 125.053 213.415 125.141 214.031 125.383L212.039 124.271C211.551 123.961 210.978 123.8 210.395 123.808H210.074H209.789C209.687 123.817 209.586 123.835 209.486 123.861L209.193 123.932C208.979 123.994 208.77 124.071 208.568 124.164L208.247 124.306L207.917 124.475C204.75 126.255 202.179 130.705 202.179 134.532V135.422C202.179 139.205 207.43 143.317 207.43 143.317L209.551 144.483L209.45 144.402C207.917 143.032 204.511 139.659 204.511 136.748ZM210.781 128.792C210.786 128.89 210.786 128.988 210.781 129.086V129.183C210.785 129.243 210.785 129.302 210.781 129.361C210.726 130.326 210.437 131.265 209.938 132.102C209.439 132.938 208.743 133.649 207.908 134.176L207.742 134.265L207.568 134.345L207.403 134.408C207.641 135.761 208.807 136.232 210.221 135.449C211.054 134.92 211.748 134.209 212.245 133.373C212.743 132.536 213.03 131.598 213.085 130.634C213.122 129.05 212.112 128.32 210.781 128.792Z" fill="#1995B3"/>
<path opacity="0.6" d="M204.511 136.748V135.858C204.526 134.733 204.721 133.616 205.089 132.548C205.949 129.786 207.777 127.403 210.258 125.81C210.799 125.437 211.428 125.203 212.088 125.128C212.747 125.053 213.415 125.141 214.031 125.383L212.039 124.271C211.551 123.961 210.978 123.8 210.395 123.808H210.074H209.789C209.687 123.817 209.586 123.835 209.486 123.861L209.193 123.932C208.979 123.994 208.77 124.071 208.568 124.164L208.247 124.306L207.917 124.475C204.75 126.255 202.179 130.705 202.179 134.532V135.422C202.179 139.205 207.43 143.317 207.43 143.317L209.551 144.483L209.45 144.402C207.917 143.032 204.511 139.659 204.511 136.748Z" fill="white"/>
<path opacity="0.6" d="M210.753 128.792C210.758 128.89 210.758 128.988 210.753 129.085C210.753 129.085 210.753 129.148 210.753 129.183V129.361C210.7 130.326 210.413 131.264 209.915 132.101C209.418 132.938 208.723 133.649 207.889 134.176L207.715 134.265L207.549 134.345L207.375 134.408C207.623 135.76 208.789 136.232 210.193 135.449C211.028 134.921 211.722 134.21 212.219 133.374C212.717 132.537 213.004 131.598 213.057 130.634C213.094 129.05 212.094 128.32 210.753 128.792Z" fill="white"/>
<path d="M215.995 129.459C215.995 125.677 213.425 124.048 210.258 125.819C207.09 127.59 204.566 132.103 204.566 135.885V136.775C204.566 139.685 207.963 143.059 209.532 144.465C209.621 144.545 209.727 144.603 209.843 144.636C209.96 144.669 210.082 144.675 210.201 144.653C210.32 144.631 210.432 144.583 210.528 144.511C210.624 144.44 210.701 144.348 210.753 144.242C212.103 141.572 216.041 133.482 216.041 130.349L215.995 129.459ZM210.258 135.458C208.669 136.348 207.384 135.627 207.384 133.856C207.441 132.892 207.73 131.955 208.229 131.121C208.728 130.286 209.423 129.576 210.258 129.05C211.837 128.16 213.122 128.881 213.122 130.661C213.065 131.622 212.776 132.557 212.279 133.39C211.781 134.223 211.089 134.932 210.258 135.458Z" fill="#1995B3"/>
<path d="M215.995 129.459C215.995 125.677 213.425 124.048 210.258 125.819C207.09 127.59 204.566 132.103 204.566 135.885V136.775C204.566 139.685 207.963 143.059 209.532 144.465C209.621 144.545 209.727 144.603 209.843 144.636C209.96 144.669 210.082 144.675 210.201 144.653C210.32 144.631 210.432 144.583 210.528 144.511C210.624 144.44 210.701 144.348 210.753 144.242C212.103 141.572 216.041 133.482 216.041 130.349L215.995 129.459ZM210.258 135.458C208.669 136.348 207.384 135.627 207.384 133.856C207.441 132.892 207.73 131.955 208.229 131.121C208.728 130.286 209.423 129.576 210.258 129.05C211.837 128.16 213.122 128.881 213.122 130.661C213.065 131.622 212.776 132.557 212.279 133.39C211.781 134.223 211.089 134.932 210.258 135.458Z" fill="#1995B3"/>
<g opacity="0.8">
<path d="M215.995 129.459C215.995 125.677 213.425 124.048 210.258 125.819C207.09 127.59 204.566 132.103 204.566 135.885V136.775C204.566 139.685 207.963 143.059 209.532 144.465C209.621 144.545 209.727 144.603 209.843 144.636C209.96 144.669 210.082 144.675 210.201 144.653C210.32 144.631 210.432 144.583 210.528 144.511C210.624 144.44 210.701 144.348 210.753 144.242C212.103 141.572 216.041 133.482 216.041 130.349L215.995 129.459ZM210.258 135.458C208.669 136.348 207.384 135.627 207.384 133.856C207.441 132.892 207.73 131.955 208.229 131.121C208.728 130.286 209.423 129.576 210.258 129.05C211.837 128.16 213.122 128.881 213.122 130.661C213.065 131.622 212.776 132.557 212.279 133.39C211.781 134.223 211.089 134.932 210.258 135.458Z" fill="white"/>
</g>
<path d="M311.43 194.91V194.02C311.446 192.894 311.641 191.777 312.009 190.709C312.868 187.948 314.696 185.564 317.177 183.972C317.718 183.599 318.348 183.364 319.007 183.29C319.667 183.215 320.335 183.303 320.95 183.545L318.958 182.45C318.467 182.14 317.892 181.979 317.306 181.987H317.03H316.736L316.443 182.041L316.14 182.112C315.927 182.176 315.718 182.254 315.515 182.343L315.203 182.486L314.873 182.655C311.706 184.435 309.135 188.929 309.135 192.712V193.602C309.135 197.384 314.386 201.496 314.386 201.496L316.507 202.662L316.406 202.582C314.836 201.14 311.43 197.776 311.43 194.91ZM317.7 186.954C317.705 187.051 317.705 187.149 317.7 187.247V187.345C317.705 187.404 317.705 187.464 317.7 187.523C317.645 188.488 317.356 189.427 316.857 190.264C316.358 191.1 315.662 191.811 314.827 192.338L314.662 192.427L314.487 192.507L314.322 192.569C314.57 193.922 315.736 194.349 317.15 193.611C317.983 193.082 318.676 192.371 319.174 191.534C319.671 190.698 319.959 189.76 320.014 188.796C320.041 187.185 319.031 186.437 317.7 186.9V186.954Z" fill="#1995B3"/>
<path opacity="0.6" d="M311.43 194.91V194.02C311.446 192.894 311.641 191.777 312.009 190.709C312.868 187.948 314.696 185.564 317.177 183.972C317.718 183.599 318.348 183.364 319.007 183.29C319.667 183.215 320.335 183.303 320.95 183.545L318.958 182.45C318.467 182.14 317.892 181.979 317.306 181.987H317.03H316.736L316.443 182.041L316.14 182.112C315.927 182.176 315.718 182.254 315.515 182.343L315.203 182.486L314.873 182.655C311.706 184.435 309.135 188.929 309.135 192.712V193.602C309.135 197.384 314.386 201.496 314.386 201.496L316.507 202.662L316.406 202.582C314.836 201.14 311.43 197.776 311.43 194.91Z" fill="white"/>
<path opacity="0.6" d="M317.673 186.9C317.678 186.998 317.678 187.096 317.673 187.194C317.673 187.194 317.673 187.256 317.673 187.292V187.47C317.62 188.434 317.332 189.373 316.835 190.209C316.337 191.046 315.643 191.757 314.809 192.285L314.634 192.374L314.469 192.454L314.295 192.516C314.542 193.869 315.708 194.296 317.113 193.557C317.947 193.03 318.641 192.319 319.139 191.482C319.637 190.645 319.924 189.707 319.977 188.742C320.014 187.185 319.004 186.437 317.673 186.9Z" fill="white"/>
<path d="M322.915 187.577C322.915 183.794 320.344 182.165 317.177 183.936C314.01 185.708 311.43 190.22 311.43 194.002V194.892C311.43 197.803 314.836 201.176 316.406 202.582C316.494 202.662 316.601 202.721 316.717 202.753C316.833 202.786 316.956 202.792 317.074 202.77C317.193 202.748 317.305 202.7 317.401 202.629C317.497 202.557 317.574 202.465 317.627 202.359C318.976 199.689 322.915 191.599 322.915 188.467V187.577ZM317.177 193.575C315.589 194.465 314.304 193.744 314.304 191.973C314.357 191.007 314.645 190.066 315.145 189.228C315.644 188.39 316.34 187.677 317.177 187.149C318.756 186.259 320.041 186.98 320.041 188.76C319.987 189.724 319.7 190.663 319.202 191.499C318.705 192.336 318.011 193.047 317.177 193.575Z" fill="#1995B3"/>
<path d="M322.915 187.577C322.915 183.794 320.344 182.165 317.177 183.936C314.01 185.708 311.43 190.22 311.43 194.002V194.892C311.43 197.803 314.836 201.176 316.406 202.582C316.494 202.662 316.601 202.721 316.717 202.753C316.833 202.786 316.956 202.792 317.074 202.77C317.193 202.748 317.305 202.7 317.401 202.629C317.497 202.557 317.574 202.465 317.627 202.359C318.976 199.689 322.915 191.599 322.915 188.467V187.577ZM317.177 193.575C315.589 194.465 314.304 193.744 314.304 191.973C314.357 191.007 314.645 190.066 315.145 189.228C315.644 188.39 316.34 187.677 317.177 187.149C318.756 186.259 320.041 186.98 320.041 188.76C319.987 189.724 319.7 190.663 319.202 191.499C318.705 192.336 318.011 193.047 317.177 193.575Z" fill="#1995B3"/>
<g opacity="0.8">
<path d="M322.915 187.577C322.915 183.794 320.344 182.165 317.177 183.936C314.01 185.708 311.43 190.22 311.43 194.002V194.892C311.43 197.803 314.836 201.176 316.406 202.582C316.494 202.662 316.601 202.721 316.717 202.753C316.833 202.786 316.956 202.792 317.074 202.77C317.193 202.748 317.305 202.7 317.401 202.629C317.497 202.557 317.574 202.465 317.627 202.359C318.976 199.689 322.915 191.599 322.915 188.467V187.577ZM317.177 193.575C315.589 194.465 314.304 193.744 314.304 191.973C314.357 191.007 314.645 190.066 315.145 189.228C315.644 188.39 316.34 187.677 317.177 187.149C318.756 186.259 320.041 186.98 320.041 188.76C319.987 189.724 319.7 190.663 319.202 191.499C318.705 192.336 318.011 193.047 317.177 193.575Z" fill="white"/>
</g>
<path d="M419.277 391.084V383.279L359.12 369.866V377.663C359.139 377.899 359.236 378.124 359.396 378.303L382.814 410.148C383.392 410.931 384.017 410.797 384.2 409.854L387.165 394.911C387.287 394.437 387.557 394.011 387.938 393.692C388.32 393.373 388.794 393.177 389.295 393.131L418.506 391.351C419.02 391.253 419.268 391.182 419.277 391.084Z" fill="#1995B3"/>
<path opacity="0.3" d="M419.277 391.084V383.279L359.12 369.866V377.663C359.139 377.899 359.236 378.124 359.396 378.303L382.814 410.148C383.392 410.931 384.017 410.797 384.2 409.854L387.165 394.911C387.287 394.437 387.557 394.011 387.938 393.692C388.32 393.373 388.794 393.177 389.295 393.131L418.506 391.351C419.02 391.253 419.268 391.182 419.277 391.084Z" fill="black"/>
<path opacity="0.2" d="M383.337 410.602C383.732 410.78 384.081 410.53 384.209 409.863L387.175 394.92C387.255 394.566 387.422 394.237 387.661 393.959V382.985L383.337 389.126V410.602Z" fill="black"/>
<path d="M384.209 402.049L387.175 387.15C387.296 386.676 387.566 386.25 387.947 385.932C388.329 385.613 388.803 385.417 389.304 385.37L418.524 383.59C419.507 383.528 419.525 383.296 418.524 383.074L360.066 369.599C359.102 369.377 358.79 369.831 359.368 370.614L382.787 402.458C383.402 403.17 384.026 402.992 384.209 402.049Z" fill="#1995B3"/>
<path d="M467.947 49.5782C468.728 42.4474 460.66 36.5828 454.601 35.9697C451.705 35.6765 448.703 36.223 445.967 35.0367C440.026 32.451 437.654 22.8944 431.862 19.8421C427.588 17.563 422.555 19.6022 418.356 22.228C414.156 24.8537 410.01 28.1858 405.319 28.559C401.248 28.8789 396.771 26.9996 393.244 29.4787C390.584 31.3314 389.195 35.1567 386.737 37.4758C384.279 39.795 381.212 40.1415 378.242 40.3548C375.271 40.5681 372.183 40.5947 369.48 42.1408C366.776 43.687 364.522 47.259 365.088 50.911L467.947 49.5782Z" fill="#84D0E9"/>
</g>
<defs>
<clipPath id="clip0_206_68">
<rect width="459" height="445" fill="white" transform="translate(-13)"/>
</clipPath>
</defs>
</svg>
