<svg width="37" height="35" viewBox="0 0 37 35" fill="none" xmlns="http://www.w3.org/2000/svg">
<path d="M18.5 3.28125C10.2119 3.28125 3.46875 9.65986 3.46875 17.5C3.46875 25.3401 10.2119 31.7188 18.5 31.7188C26.7881 31.7188 33.5312 25.3401 33.5312 17.5C33.5312 9.65986 26.7881 3.28125 18.5 3.28125ZM14.8708 11.267C15.7864 10.3489 17.0749 9.84375 18.5 9.84375C19.9251 9.84375 21.202 10.3523 22.1212 11.2752C23.0527 12.2104 23.5058 13.4668 23.3989 14.8176C23.185 17.5 20.9881 19.6875 18.5 19.6875C16.0119 19.6875 13.8107 17.5 13.6011 14.8169C13.4949 13.4552 13.9473 12.1946 14.8708 11.267ZM18.5 29.5312C16.8021 29.5323 15.1213 29.2108 13.5571 28.5859C11.993 27.961 10.5775 27.0453 9.39453 25.8932C10.0721 24.9792 10.9353 24.2021 11.9339 23.6072C13.776 22.4902 16.1073 21.875 18.5 21.875C20.8927 21.875 23.224 22.4902 25.0639 23.6072C26.0633 24.2018 26.9274 24.9789 27.6055 25.8932C26.4226 27.0454 25.0071 27.9612 23.443 28.5861C21.8788 29.2111 20.1979 29.5325 18.5 29.5312Z" fill="#455A64"/>
</svg>
