<svg width="132" height="131" viewBox="0 0 132 131" fill="none" xmlns="http://www.w3.org/2000/svg">
<g filter="url(#filter0_d_82_1499)">
<path d="M93.9848 24.1208C96.0832 27.4878 95.239 30.836 95.0789 34.0753C94.9299 37.0932 94.4979 39.9648 97.3473 42.2627C98.7954 43.4306 98.8729 45.1613 97.0485 46.3845C93.7683 48.5835 92.9912 51.9225 95.4149 54.9201C97.4379 57.4221 98.1005 58.9027 94.4479 60.5338C92.0733 61.5943 92.6772 69.4196 95.0016 71.4203C99.0929 74.942 103.203 78.4143 105.906 83.2538C107.026 85.26 108.495 87.472 106.776 89.4156C105.242 91.1513 102.78 90.1738 100.943 89.3443C96.434 87.3085 92.5612 84.217 88.7289 81.0867C84.4648 77.6037 79.3229 78.612 77.0055 83.4178C75.9997 85.5037 74.7073 85.1837 73.0086 84.4116C67.4641 81.8914 67.1377 82.0068 63.9995 87.4148C63.1256 88.9207 61.6804 89.253 60.6499 88.323C56.717 84.7733 52.8941 87.1065 48.9949 88.001C45.7382 88.7481 42.4167 89.7608 38.7183 86.4975C50.4011 80.5975 61.6866 74.898 73.7748 68.7932C67.7552 62.9754 62.5251 57.9176 57.29 52.8651C56.6428 52.2405 55.7983 51.7536 55.3331 51.0186C50.235 42.9621 42.5201 41.713 34.0388 42.1143C31.1774 42.2497 28.1785 42.3896 24.6293 40.282C29.9459 37.3263 35.7658 38.8393 40.0402 36.0184C41.0615 34.3234 38.7778 33.142 39.6465 31.6257C40.771 30.1585 42.0617 32.1378 43.2273 31.6471C44.6406 26.9261 43.352 22.0059 44.554 17.2256C46.9765 17.546 47.2918 19.2718 47.3176 20.8245C47.5323 33.7514 53.8847 42.2638 65.2093 48.014C70.5713 50.7367 75.1641 55.0425 80.775 59.1174C83.447 52.7836 84.5356 46.4853 86.3271 40.4493C88.1468 34.318 89.7271 28.111 91.369 22.0954C93.2475 21.6821 93.2783 23.0727 93.9848 24.1208Z" fill="#FFCC00"/>
<path d="M93.5602 24.3855C95.4266 27.3803 94.836 30.3003 94.6179 33.4234L94.5798 34.0504C94.4391 36.8981 93.979 39.9665 96.7541 42.4167L97.0336 42.6517C97.6706 43.1655 97.9455 43.751 97.9254 44.2838C97.9067 44.7787 97.6286 45.3435 96.9177 45.8655L96.7704 45.9693C95.0513 47.1218 93.9369 48.6085 93.6029 50.2537C93.288 51.805 93.6813 53.4248 94.7939 54.9346L95.0262 55.2343C95.529 55.8563 95.9266 56.3908 96.1942 56.8678C96.463 57.347 96.5735 57.7219 96.5602 58.0323C96.5374 58.562 96.1228 59.1803 94.5702 59.9258L94.2441 60.0769C93.4361 60.4377 92.9734 61.3193 92.7218 62.2736C92.4633 63.2544 92.3891 64.451 92.4636 65.6552C92.5382 66.8624 92.7641 68.1054 93.1262 69.1838C93.4614 70.182 93.9312 71.0916 94.5498 71.6846L94.6752 71.7988C98.6526 75.2224 102.565 78.5358 105.217 83.0567L105.469 83.4981C106.048 84.5348 106.653 85.5193 106.924 86.4923C107.168 87.3627 107.128 88.1646 106.529 88.9315L106.401 89.0843C105.778 89.7888 104.969 89.9632 104.036 89.8453C103.321 89.7548 102.572 89.4963 101.854 89.1968L101.149 88.8889C97.2635 87.1344 93.8482 84.5799 90.4849 81.8692L89.045 80.6993C86.8178 78.8801 84.3184 78.2021 82.0402 78.6531C79.901 79.0767 78.0229 80.4835 76.7929 82.7385L76.5557 83.2006C76.0937 84.1585 75.6342 84.4356 75.2038 84.4905C74.7642 84.5465 74.2304 84.3953 73.5271 84.0944L73.2156 83.9559C71.8363 83.3289 70.7444 82.8491 69.8471 82.5785C68.9462 82.307 68.1692 82.2231 67.4434 82.4655C66.7201 82.7071 66.1367 83.2435 65.5545 84.0065C65.1185 84.5778 64.6575 85.3111 64.1251 86.21L63.5674 87.1636C63.1804 87.8305 62.6978 88.1842 62.2577 88.2981C61.8837 88.3947 61.494 88.3322 61.1361 88.0745L60.9843 87.9516C58.8912 86.0627 56.7986 85.7327 54.7455 85.9995C53.7355 86.1307 52.7363 86.4057 51.765 86.6957C51.0277 86.9158 50.3118 87.1426 49.5976 87.3346L48.8833 87.5137C47.2255 87.894 45.6583 88.3114 44.0405 88.253C42.6308 88.2021 41.1747 87.7843 39.6286 86.5971C51.0679 80.82 62.1483 75.225 73.9998 69.2397L74.6282 68.9225L74.1218 68.4335L57.6371 52.5059C57.2965 52.1772 56.8838 51.8664 56.5627 51.599C56.264 51.3501 56.015 51.1162 55.8308 50.8618L55.7559 50.7508C53.1456 46.6259 49.8504 44.2282 46.1196 42.9225C42.6367 41.7035 38.7944 41.4431 34.8135 41.5816L34.0154 41.6152C31.3923 41.7393 28.7585 41.8562 25.6989 40.2995C28.0106 39.2207 30.4105 38.9041 32.7902 38.5958C35.4211 38.2549 38.0654 37.9205 40.3156 36.4356L40.4098 36.3735L40.4685 36.277L40.5798 36.0727C41.0737 35.0622 40.6611 34.1845 40.3508 33.5386C39.9936 32.7949 39.8058 32.3811 40.068 31.8992C40.2695 31.648 40.4342 31.5891 40.5638 31.5767C40.7321 31.5606 40.9388 31.6125 41.2312 31.7325C41.4798 31.8346 41.858 32.0204 42.186 32.1219C42.5424 32.2323 42.976 32.2955 43.4212 32.1081L43.6392 32.0167L43.7065 31.7903C44.4368 29.3508 44.4653 26.8706 44.4701 24.4592C44.4746 22.1853 44.4589 19.9757 44.9327 17.8032C45.7226 17.9951 46.1498 18.3768 46.4019 18.8127C46.6794 19.2926 46.78 19.8959 46.8093 20.5497L46.8172 20.8325C46.926 27.3801 48.5917 32.8377 51.6836 37.3911C54.5802 41.6566 58.7103 45.1015 63.9258 47.9072L64.9828 48.4596C67.6225 49.8 70.083 51.5353 72.5956 53.456C75.0945 55.3661 77.6718 57.4815 80.4809 59.5216L80.9906 59.8927L81.236 59.3116C82.5853 56.1134 83.5321 52.9293 84.3644 49.8C85.0956 47.0508 85.7333 44.3675 86.4797 41.7229L86.8068 40.5917C88.5976 34.558 90.1595 28.4432 91.7687 22.5339C92.0197 22.5053 92.1948 22.5266 92.3194 22.5663C92.4789 22.6172 92.6026 22.7127 92.7217 22.8664C92.8501 23.0323 92.9582 23.2446 93.0928 23.5223C93.2178 23.78 93.3655 24.0914 93.5606 24.3842L93.5602 24.3855Z" stroke="#0C3F4D"/>
</g>
<defs>
<filter id="filter0_d_82_1499" x="0.629272" y="9.22559" width="130.934" height="121.154" filterUnits="userSpaceOnUse" color-interpolation-filters="sRGB">
<feFlood flood-opacity="0" result="BackgroundImageFix"/>
<feColorMatrix in="SourceAlpha" type="matrix" values="0 0 0 0 0 0 0 0 0 0 0 0 0 0 0 0 0 0 127 0" result="hardAlpha"/>
<feMorphology radius="8" operator="erode" in="SourceAlpha" result="effect1_dropShadow_82_1499"/>
<feOffset dy="16"/>
<feGaussianBlur stdDeviation="16"/>
<feComposite in2="hardAlpha" operator="out"/>
<feColorMatrix type="matrix" values="0 0 0 0 0.921569 0 0 0 0 0.741176 0 0 0 0 0.345098 0 0 0 1 0"/>
<feBlend mode="normal" in2="BackgroundImageFix" result="effect1_dropShadow_82_1499"/>
<feBlend mode="normal" in="SourceGraphic" in2="effect1_dropShadow_82_1499" result="shape"/>
</filter>
</defs>
</svg>
