<svg width="29" height="29" viewBox="0 0 29 29" fill="none" xmlns="http://www.w3.org/2000/svg">
<path d="M14.167 0C21.9868 0.000175963 28.333 6.3471 28.333 14.167C28.3328 21.9867 21.9867 28.3328 14.167 28.333C6.3471 28.333 0.000175952 21.9868 0 14.167C0 6.34699 6.34699 0 14.167 0ZM21.8447 7.42285C22.1277 6.82799 21.505 6.20517 20.9102 6.48828L11.5312 10.8516C11.234 10.9791 10.9932 11.234 10.8516 11.5312L6.48828 20.9102C6.20517 21.505 6.82799 22.1277 7.42285 21.8447L16.8018 17.4814C17.0991 17.3398 17.3398 17.0991 17.4814 16.8018L21.8447 7.42285ZM14.167 12.75C14.946 12.7502 15.583 13.3879 15.583 14.167C15.5828 14.9459 14.9459 15.5828 14.167 15.583C13.3879 15.583 12.7502 14.946 12.75 14.167C12.75 13.3878 13.3878 12.75 14.167 12.75Z" fill="#455A64"/>
</svg>
