<svg width="429" height="384" viewBox="0 0 429 384" fill="none" xmlns="http://www.w3.org/2000/svg">
<g clip-path="url(#clip0_188_141)" filter="url(#filter0_dd_188_141)">
<path d="M81.7065 155.655C86.569 154.379 91.5149 153.301 96.2764 151.786C105.957 148.707 115.551 145.419 125.157 142.167C135.794 138.567 146.364 134.813 157.043 131.308C165.428 128.557 173.965 126.154 182.37 123.448C185.34 122.491 188.122 121.095 191.261 119.733C194.325 118.797 197.116 118.028 200.151 117.242C206.907 115.062 213.413 112.883 219.934 110.737C232.079 106.741 244.235 102.771 256.381 98.777C261.874 96.9706 267.353 95.1322 273.092 93.2993C276.763 91.9825 280.18 90.6747 283.794 89.3471C284.318 89.1539 284.646 88.9805 285.243 88.7941C287.486 88.0533 289.459 87.3256 291.432 86.5978C299.998 83.9063 308.555 81.1934 317.132 78.5289C327.049 75.4481 336.766 71.5231 346.98 69.6358C355.049 68.145 363.763 68.8104 372.145 69.2165C378.631 69.5308 385.053 70.9004 391.49 71.8696C392.4 72.0066 393.231 72.5337 394.349 73.2181C394.685 73.9623 394.771 74.3688 394.604 74.8377C393.129 75.2719 391.908 75.6438 390.304 76.132C391.648 77.8404 392.738 79.0335 393.586 80.3442C395.283 82.9657 397.244 82.4464 399.608 80.8657C398.637 79.545 397.724 78.3035 396.961 76.833C398.203 77.1136 399.294 77.6231 400.631 78.2475C400.959 77.2499 401.272 76.295 401.586 75.3401C405.741 76.5295 409.825 77.8139 412.042 81.6578C411.152 82.261 410.464 82.5902 409.736 82.8309C377.32 93.5596 344.895 104.268 312.489 115.02C308.857 116.225 305.331 117.672 301.49 118.981C288.396 123.028 275.534 127.025 262.748 131.198C251.405 134.901 240.137 138.777 228.859 142.627C225.599 143.74 222.419 145.027 218.937 146.23C217.722 146.449 216.739 146.597 215.829 146.906C209.714 148.988 203.639 151.157 197.506 153.199C174.113 160.988 150.73 168.801 127.282 176.464C121.171 178.461 114.954 180.799 108.577 181.455C100.223 182.314 91.6612 181.66 83.171 181.423C83.8994 177.842 84.6453 174.495 85.3911 171.149C85.1135 170.919 84.8359 170.689 84.5584 170.459C75.3721 173.617 66.1858 176.775 56.6935 179.933C52.639 179.605 48.8467 179.485 45.1534 178.897C40.7637 178.198 37.7471 175.917 36.6689 171.999C39.0688 171.034 41.4937 170.112 43.8577 169.085C44.9966 168.59 46.021 167.897 47.4313 167.167C50.6128 166.314 53.4601 165.587 56.5593 164.841C64.0214 162.48 71.2315 160.138 78.6752 157.798C79.8414 157.084 80.774 156.369 81.7065 155.655ZM303.818 88.3874C301.936 88.9251 299.996 89.3502 298.195 90.0456C297.224 90.4206 295.704 91.3375 295.776 91.8745C296.304 95.8155 293.682 100.194 297.803 103.682C298.204 104.021 298.319 104.775 298.278 105.321C297.919 110.075 301.03 112.637 305.522 114.654C307.932 115.737 309.4 115.105 311.051 113.745C312.057 112.915 313.345 111.521 314.313 111.633C317.107 111.958 317.003 110.45 317.055 109.041C317.288 102.711 316.101 96.8365 311.248 91.6385C309.258 89.5067 307.739 87.7212 303.818 88.3874ZM268.414 108.669C264.459 109.289 262.257 111.604 263.14 114.287C263.914 116.637 265.843 117.866 268.586 117.641C271.064 117.438 273.06 116.311 273.329 113.913C273.643 111.114 272.153 109.322 268.414 108.669ZM281.127 110.21C284.563 112.819 289.133 112.49 290.038 109.298C290.484 107.727 289.861 105.407 288.692 104.141C287.134 102.454 284.435 102.547 282.346 103.913C280.015 105.437 279.505 107.492 281.127 110.21ZM236.531 128.439C238.754 127.203 239.878 125.315 238.864 123.283C238.229 122.01 236.501 120.788 234.948 120.303C232.656 119.586 230.303 120.519 229.456 122.485C228.883 123.815 228.942 125.764 229.677 127.011C230.96 129.186 233.542 129.282 236.531 128.439ZM252.115 114.458C249.021 114.212 246.84 115.317 246.023 117.927C245.36 120.045 246.358 121.765 248.582 122.797C250.953 123.898 253.154 123.481 254.97 121.812C257.517 119.471 256.489 116.375 252.115 114.458ZM200.474 131.454C197.667 131.229 195.354 132.324 194.745 134.512C194.36 135.895 195.122 138.154 196.328 139.056C197.538 139.961 200.274 140.301 201.723 139.723C203.177 139.143 204.436 137.218 204.761 135.716C205.24 133.504 203.205 132.289 200.474 131.454ZM218.948 134.29C221.64 133.214 222.533 131.158 221.607 129.021C221.058 127.757 219.286 126.51 217.746 126.04C215.455 125.34 213.099 126.245 212.209 128.231C211.649 129.481 211.743 131.301 212.39 132.529C213.514 134.66 215.972 134.871 218.948 134.29ZM187.598 140.924C187.038 138.88 185.742 137.083 183.224 137.297C181.382 137.454 179.192 138.398 178.059 139.619C177.26 140.481 177.321 142.903 178.167 143.72C179.359 144.873 181.637 145.742 183.44 145.729C186.24 145.707 187.623 143.851 187.598 140.924ZM149.994 157.074C152.499 156.072 154.118 154.331 153.157 152.051C152.58 150.685 150.714 149.015 149.218 148.841C147.51 148.643 145.122 149.592 143.883 150.737C143.017 151.537 143.07 153.677 143.625 154.911C144.582 157.04 146.921 157.578 149.994 157.074ZM163.65 151.417C166.278 151.81 168.6 151.472 169.974 149.223C171.258 147.122 170.372 144.629 168.008 143.434C165.494 142.164 162.276 142.928 160.747 145.157C159.297 147.27 160.14 149.409 163.65 151.417ZM387.929 83.8445C389.089 83.6486 390.249 83.4528 391.459 83.2485C388.693 77.3874 387.501 76.8891 382.457 79.7485C384.163 81.152 385.797 82.4959 387.929 83.8445Z" fill="#C1E1EA"/>
<path d="M219.202 146.235C222.419 145.027 225.599 143.74 228.859 142.627C240.137 138.777 251.405 134.901 262.748 131.199C275.534 127.025 288.396 123.029 301.46 119.182C301.271 120.078 300.934 120.804 300.408 121.406C292.794 130.109 285.155 138.795 277.433 147.659C274.256 151.585 271.168 155.339 267.933 159.231C267.13 159.881 266.357 160.318 265.835 160.918C262.304 164.982 258.792 169.058 255.342 173.174C251.711 177.506 248.156 181.887 244.567 186.246C239.441 191.931 234.222 197.555 229.209 203.314C222.638 210.862 216.418 218.703 206.448 223.296C202.826 224.965 199.082 226.486 195.245 227.733C193.735 228.223 191.821 227.781 189.868 227.418C193.501 216.401 197.321 205.719 201.224 195.059C207.186 178.776 213.207 162.509 219.202 146.235Z" fill="#1995B3"/>
<path d="M277.521 147.486C285.155 138.795 292.794 130.109 300.408 121.406C300.934 120.804 301.271 120.078 301.726 119.208C305.331 117.672 308.857 116.225 312.489 115.02C344.895 104.268 377.32 93.5597 409.736 82.831C410.464 82.5903 411.152 82.2611 412.06 81.8604C420.475 88.3322 416.963 101.272 405.642 105.411C398.044 108.189 390.258 110.579 382.553 113.135C352.972 122.95 323.39 132.762 293.808 142.576C292.559 142.99 291.31 143.406 289.611 143.917C288.136 144.426 287.11 144.839 286.084 145.253C286.084 145.253 285.777 145.273 285.379 145.367C282.494 146.136 280.008 146.811 277.521 147.486Z" fill="#0C3F4D"/>
<path d="M218.937 146.23C213.207 162.509 207.186 178.776 201.224 195.059C197.321 205.719 193.501 216.401 189.629 227.297C188.67 227.384 187.444 227.527 186.833 227.062C184.042 224.937 184.007 222.267 185.086 219.363C190.346 205.197 195.544 191.014 200.763 176.837C201.131 175.836 201.491 174.834 202.096 173.171C200.234 173.688 198.912 173.975 197.661 174.416C175.146 182.353 151.874 187.842 127.792 190.742C112.286 192.609 96.7007 193.078 80.7256 192.544C81.3165 188.74 82.2526 185.199 83.1886 181.658C91.6612 181.661 100.223 182.314 108.578 181.455C114.954 180.799 121.171 178.461 127.282 176.464C150.73 168.801 174.113 160.988 197.507 153.199C203.639 151.158 209.714 148.988 215.829 146.907C216.739 146.597 217.722 146.449 218.937 146.23Z" fill="#0C3F4D"/>
<path d="M199.908 117.258C197.116 118.028 194.325 118.798 191.306 119.526C166.611 107.002 142.143 94.5198 117.676 82.0345C113.84 80.0769 110.008 78.112 106.184 76.137C102.186 74.0719 101.317 72.2687 102.681 68.001C103.987 68.0764 104.922 68.3229 105.971 68.7302C106.987 69.4467 107.846 70.0661 108.798 70.5483C120.435 76.4444 132.097 82.3045 143.731 88.2058C157.181 95.0284 170.631 101.851 184.037 108.739C189.389 111.489 194.621 114.413 199.908 117.258Z" fill="#0C3F4D"/>
<path d="M83.1711 181.423C82.2525 185.198 81.3165 188.739 80.4103 192.533C79.5591 195.547 78.8951 198.381 77.7061 201.038C77.1051 202.381 75.8173 203.88 74.3805 204.477C70.9891 205.886 67.3223 206.796 63.4592 207.68C61.1009 198.279 59.0502 189.106 56.9995 179.933C66.1858 176.775 75.3721 173.617 84.5584 170.459C84.836 170.689 85.1136 170.919 85.3912 171.149C84.6453 174.495 83.8995 177.842 83.1711 181.423Z" fill="#84C1D6"/>
<path d="M244.851 186.288C248.156 181.887 251.711 177.506 255.342 173.174C258.792 169.058 262.304 164.982 265.835 160.918C266.357 160.318 267.13 159.881 268.171 159.199C269.165 158.869 269.775 158.71 270.377 158.742C272.498 162.576 275.124 166.076 276.591 169.909C277.707 172.826 277.35 176.166 277.649 179.319C266.811 181.655 255.973 183.992 244.851 186.288Z" fill="#C1E1EA"/>
<path d="M56.6936 179.933C59.0503 189.106 61.101 198.279 63.214 207.699C62.5115 208.289 61.7468 208.63 60.494 209.19C59.5634 204.464 58.7259 200.051 57.8193 195.648C56.8025 190.709 57.7827 191.712 52.1579 191.12C48.2995 190.715 44.3942 190.657 40.5238 190.322C35.4617 189.883 31.3348 186.53 30.4439 182.286C29.532 177.943 31.7293 174.016 36.45 171.972C37.7472 175.917 40.7638 178.198 45.1535 178.897C48.8468 179.485 52.6391 179.606 56.6936 179.933Z" fill="#0C3F4D"/>
<path d="M78.4417 157.797C71.2316 160.139 64.0215 162.48 56.5264 164.645C49.8919 158.533 43.5425 152.597 37.4047 146.859C35.1659 148.061 33.5834 148.911 32.0009 149.761C31.7102 149.603 31.4196 149.444 30.9946 148.981C29.9784 147.866 29.0964 147.056 28.2145 146.245C27.9815 146.014 27.7486 145.783 27.4961 145.169C28.3948 143.383 29.313 141.981 30.2312 140.578C30.2312 140.578 30.3034 140.497 30.4009 140.449C30.4984 140.401 30.6717 140.296 30.6717 140.296C31.2152 140.163 31.7586 140.029 32.7348 140.021C34.3097 139.912 35.4401 139.607 36.5972 139.461C38.047 139.279 39.5258 139.097 40.9789 139.157C42.3429 139.213 43.6897 139.584 45.0441 139.817C45.0441 139.817 45.3302 139.842 45.4713 140.097C46.6819 141.154 47.6342 142.14 48.8457 142.717C51.2248 143.851 54.7282 143.887 54.118 147.508C52.7888 148.192 51.1538 148.574 50.6673 149.441C49.7675 151.045 49.268 152.922 49.1775 154.707C49.1449 155.349 50.7694 156.055 51.6378 156.893C51.6336 157.161 51.6294 157.268 51.6931 157.582C56.1379 160.102 59.6159 159.609 63.8338 156.245C64.0829 157.383 64.1445 158.381 64.2533 160.142C66.0702 159.409 67.5439 158.826 69.0052 158.221C70.0371 157.794 71.1468 156.85 72.0573 156.984C74.7421 157.376 75.1812 156.219 75.2988 154.48C76.4792 155.643 77.4604 156.72 78.4417 157.797Z" fill="#84C1D6"/>
<path d="M105.856 68.5692C104.922 68.3227 103.987 68.0762 102.812 67.7947C103.775 66.6034 104.725 64.9789 106.225 64.3657C116.745 60.0659 127.907 59.0432 139.225 60.8539C162.422 64.5654 185.548 68.6158 208.707 72.5065C227.39 75.6452 246.085 78.731 264.763 81.8866C273.499 83.3624 282.21 84.9475 291.182 86.5405C289.459 87.3257 287.487 88.0535 285.216 88.5579C284.085 87.698 283.351 86.6683 282.403 86.4898C277.031 85.4775 271.608 84.6706 266.203 83.7906C253.937 81.7937 241.654 79.8704 229.415 77.7552C225.21 77.0284 221.166 75.5932 216.958 74.8831C209.932 73.6974 202.817 72.9128 195.771 71.8132C189.233 70.7931 182.72 69.6382 176.224 68.4326C172.573 67.755 169.015 66.6787 165.349 66.0894C156.259 64.6282 147.097 63.4942 138.028 61.9473C128.313 60.2903 119.094 62.2176 109.925 64.4738C107.907 64.9703 105.265 65.7657 105.856 68.5692Z" fill="#94C1D1"/>
<path d="M32.0671 149.962C33.5834 148.911 35.166 148.061 37.4047 146.859C43.5425 152.597 49.892 158.533 56.2745 164.664C53.4602 165.587 50.6129 166.314 47.5254 166.947C42.9137 162.151 38.5319 157.456 34.1809 152.74C33.4313 151.927 32.8125 151.024 32.0671 149.962Z" fill="#0C3F4D"/>
<path d="M277.895 179.306C277.35 176.166 277.707 172.826 276.591 169.909C275.124 166.076 272.498 162.576 270.641 158.711C273.351 158.207 275.791 157.924 278.231 157.641C282.669 160.662 283.329 165.099 284.081 169.483C284.259 170.521 284.198 171.593 284.199 172.65C284.202 177.529 283.786 177.978 277.895 179.306Z" fill="#0C3F4D"/>
<path d="M278.154 157.458C275.791 157.924 273.351 158.207 270.648 158.52C269.775 158.71 269.165 158.869 268.318 159.06C271.168 155.339 274.256 151.585 277.433 147.659C280.008 146.811 282.494 146.136 285.244 145.432C283.805 146.466 282.044 147.468 280.421 148.616C279.429 149.318 278.632 150.232 277.78 151.075C277.302 151.549 276.948 152.123 276.436 152.562C275.535 153.334 274.556 154.037 273.609 154.769C274.723 155.427 275.831 156.093 276.954 156.739C277.308 156.944 277.701 157.098 278.154 157.458Z" fill="#D2E9EF"/>
<path d="M54.3303 147.426C54.7282 143.887 51.2248 143.851 48.8457 142.717C47.6341 142.14 46.6819 141.154 45.6072 140.138C49.1785 141.397 52.792 142.809 56.3213 144.363C59.8926 145.937 63.3807 147.652 67.0093 149.497C67.1134 149.689 67.0335 149.764 66.7461 149.758C65.2974 149.754 64.1362 149.757 62.7417 149.734C61.7623 149.508 61.0162 149.309 60.4029 148.972C61.1091 148.646 61.6826 148.458 62.2561 148.271C62.1961 148.106 62.1361 147.94 62.0761 147.775C61.0554 148.045 60.0347 148.314 58.8558 148.422C57.2418 147.982 55.786 147.704 54.3303 147.426Z" fill="#94C1D1"/>
<path d="M78.6755 157.798C77.4606 156.72 76.4794 155.643 75.1536 154.317C72.8953 153.596 70.9815 153.122 68.9307 152.491C68.207 151.477 67.6204 150.62 67.0337 149.764C67.0337 149.764 67.1136 149.689 67.1531 149.649C71.8969 151.558 76.6013 153.506 81.5062 155.555C80.7742 156.369 79.8417 157.084 78.6755 157.798Z" fill="#94C1D1"/>
<path d="M401.455 75.1742C401.273 76.2953 400.959 77.2502 400.632 78.2479C399.294 77.6235 398.203 77.1139 396.973 76.8446C396.835 77.0848 396.853 77.1106 397.13 76.9709C396.771 76.3326 396.134 75.834 395.503 75.3406C395.509 75.3458 395.52 75.3561 395.612 75.144C395.411 74.872 395.117 74.812 394.832 74.7583C394.84 74.7646 394.857 74.7756 394.857 74.7756C394.771 74.3691 394.685 73.9627 394.459 73.436C396.653 73.8799 398.989 74.4439 401.455 75.1742Z" fill="#425967"/>
<path d="M44.9509 139.628C43.6897 139.584 42.3429 139.213 40.9789 139.156C39.5258 139.096 38.0469 139.279 36.5971 139.461C35.44 139.607 34.3097 139.912 33.0181 140.003C38.3476 136.828 40.6084 136.749 44.9509 139.628Z" fill="#94C1D1"/>
<path d="M29.9831 140.574C29.313 141.981 28.3948 143.383 27.4507 145.016C26.6166 144.432 25.8083 143.616 25 142.8C26.5783 142.057 28.1567 141.313 29.9831 140.574Z" fill="#94C1D1"/>
<path d="M286.195 145.458C287.11 144.84 288.136 144.427 289.386 144.013C289.394 145.895 288.414 146.627 286.195 145.458Z" fill="#D2E9EF"/>
<path d="M28.2417 146.435C29.0962 147.055 29.9782 147.865 30.8654 148.879C30.0035 148.263 29.1363 147.443 28.2417 146.435Z" fill="#94C1D1"/>
<path d="M209.961 327.41C209.967 327.399 210.13 327.289 210.397 327.221C210.373 327.279 210.245 327.294 209.961 327.41Z" fill="#262626"/>
<path d="M30.607 140.257C30.6717 140.296 30.4984 140.401 30.454 140.426C30.4096 140.451 30.5423 140.218 30.607 140.257Z" fill="#94C1D1"/>
<path d="M105.971 68.7297C105.265 65.7655 107.907 64.9701 109.925 64.4735C119.094 62.2173 128.313 60.29 138.028 61.9471C147.097 63.494 156.259 64.628 165.349 66.0892C169.015 66.6784 172.573 67.7548 176.224 68.4323C182.721 69.6379 189.233 70.7928 195.771 71.813C202.818 72.9126 209.932 73.6971 216.958 74.8828C221.166 75.593 225.21 77.0281 229.415 77.755C241.654 79.8701 253.937 81.7934 266.203 83.7904C271.608 84.6704 277.031 85.4773 282.403 86.4895C283.351 86.6681 284.085 87.6977 284.946 88.5707C284.646 88.9804 284.318 89.1538 283.628 89.1747C279.035 89.0702 274.788 89.0876 272.839 93.3083C267.354 95.1322 261.874 96.9706 256.381 98.777C244.236 102.771 232.079 106.741 219.934 110.737C213.413 112.883 206.907 115.062 200.151 117.242C194.621 114.413 189.389 111.488 184.037 108.738C170.631 101.85 157.181 95.0279 143.731 88.2053C132.097 82.304 120.435 76.4439 108.798 70.5478C107.846 70.0656 106.987 69.4462 105.971 68.7297Z" fill="#1995B3"/>
<path d="M304.074 88.3082C307.739 87.7217 309.258 89.5072 311.248 91.639C316.101 96.837 317.288 102.712 317.055 109.041C317.004 110.451 317.107 111.958 314.313 111.634C313.345 111.521 312.058 112.916 311.051 113.745C309.4 115.106 307.932 115.737 305.522 114.655C301.03 112.638 297.92 110.075 298.278 105.321C298.319 104.776 298.204 104.022 297.803 103.683C293.682 100.195 296.304 95.8161 295.776 91.8751C295.704 91.3381 297.224 90.4212 298.195 90.0462C299.996 89.3508 301.936 88.9257 304.074 88.3082Z" fill="#C3DEE5"/>
<path d="M268.669 108.688C272.153 109.322 273.643 111.115 273.329 113.913C273.06 116.311 271.064 117.438 268.586 117.641C265.843 117.866 263.914 116.638 263.141 114.287C262.258 111.604 264.459 109.29 268.669 108.688Z" fill="#516574"/>
<path d="M280.999 110.008C279.506 107.492 280.015 105.438 282.347 103.913C284.435 102.548 287.134 102.454 288.692 104.141C289.861 105.407 290.484 107.727 290.038 109.299C289.133 112.49 284.563 112.819 280.999 110.008Z" fill="#516574"/>
<path d="M236.313 128.538C233.542 129.282 230.96 129.187 229.678 127.011C228.943 125.764 228.883 123.815 229.456 122.486C230.303 120.52 232.656 119.586 234.949 120.303C236.502 120.789 238.229 122.01 238.864 123.284C239.878 125.315 238.754 127.203 236.313 128.538Z" fill="#516574"/>
<path d="M252.366 114.5C256.489 116.375 257.517 119.471 254.97 121.812C253.154 123.481 250.953 123.898 248.582 122.797C246.358 121.765 245.36 120.045 246.023 117.927C246.84 115.317 249.021 114.212 252.366 114.5Z" fill="#516574"/>
<path d="M200.713 131.509C203.205 132.289 205.24 133.504 204.761 135.716C204.436 137.218 203.178 139.144 201.723 139.723C200.274 140.301 197.539 139.961 196.328 139.056C195.122 138.154 194.36 135.895 194.745 134.512C195.354 132.324 197.667 131.229 200.713 131.509Z" fill="#516574"/>
<path d="M218.7 134.377C215.972 134.872 213.514 134.66 212.391 132.53C211.743 131.302 211.649 129.481 212.209 128.232C213.099 126.246 215.455 125.34 217.746 126.04C219.286 126.511 221.059 127.757 221.607 129.022C222.533 131.158 221.64 133.215 218.7 134.377Z" fill="#516574"/>
<path d="M187.611 141.152C187.623 143.851 186.24 145.707 183.441 145.729C181.637 145.743 179.359 144.873 178.167 143.721C177.321 142.904 177.26 140.481 178.059 139.619C179.192 138.398 181.383 137.454 183.224 137.298C185.742 137.083 187.038 138.88 187.611 141.152Z" fill="#516574"/>
<path d="M149.736 157.129C146.921 157.578 144.582 157.04 143.625 154.911C143.07 153.677 143.017 151.537 143.883 150.737C145.122 149.592 147.51 148.643 149.218 148.841C150.714 149.015 152.58 150.685 153.157 152.051C154.118 154.332 152.499 156.072 149.736 157.129Z" fill="#516574"/>
<path d="M163.398 151.33C160.14 149.409 159.297 147.27 160.747 145.157C162.276 142.928 165.494 142.165 168.008 143.435C170.372 144.629 171.258 147.122 169.974 149.223C168.6 151.472 166.278 151.811 163.398 151.33Z" fill="#516574"/>
<path d="M396.823 77.0735C397.724 78.3037 398.637 79.5452 399.608 80.8659C397.245 82.4466 395.283 82.9658 393.586 80.3444C392.738 79.0337 391.648 77.8406 390.304 76.1322C391.908 75.644 393.129 75.2721 394.604 74.8379C394.857 74.7755 394.84 74.7644 394.763 74.9665C394.964 75.231 395.242 75.2935 395.52 75.3559C395.52 75.3559 395.509 75.3457 395.393 75.526C395.802 76.1743 396.327 76.6424 396.853 77.1105C396.853 77.1105 396.835 77.0847 396.823 77.0735Z" fill="#425967"/>
<path d="M387.68 83.8425C385.797 82.4963 384.163 81.1525 382.457 79.7489C387.501 76.8895 388.693 77.3878 391.459 83.2489C390.249 83.4532 389.089 83.649 387.68 83.8425Z" fill="#425967"/>
<path d="M273.092 93.2996C274.788 89.088 279.034 89.0706 283.43 89.1949C280.179 90.675 276.763 91.9828 273.092 93.2996Z" fill="#94C1D1"/>
<path d="M60.2702 149.11C61.0163 149.309 61.7624 149.508 62.8603 149.942C63.3976 151.582 63.583 152.988 63.7511 154.608C63.7046 155.25 63.6754 155.677 63.6463 156.105C59.6159 159.609 56.1379 160.102 51.9304 157.536C54.6313 155.89 57.1629 154.496 59.6945 153.103C59.4017 152.75 59.1089 152.397 58.8162 152.045C56.4234 153.607 54.0305 155.17 51.6377 156.732C50.7694 156.055 49.1449 155.349 49.1775 154.707C49.268 152.922 49.7675 151.045 50.6673 149.441C51.1538 148.574 52.7888 148.192 54.118 147.508C55.7861 147.704 57.2419 147.982 58.6647 148.531C56.5869 150.04 54.5421 151.279 52.4973 152.517C52.7303 152.81 52.9633 153.103 53.1964 153.396C55.5543 151.967 57.9123 150.539 60.2702 149.11Z" fill="#B4DBE7"/>
<path d="M63.8338 156.245C63.6754 155.677 63.7046 155.25 63.9883 154.579C65.8512 153.774 67.4594 153.211 69.0676 152.649C70.9814 153.123 72.8952 153.596 74.9543 154.232C75.1812 156.219 74.7421 157.376 72.0573 156.983C71.1468 156.85 70.0371 157.794 69.0052 158.221C67.5439 158.826 66.0702 159.409 64.2533 160.142C64.1446 158.381 64.0829 157.383 63.8338 156.245Z" fill="#82C2D7"/>
<path d="M51.6378 156.893C54.0306 155.169 56.4234 153.607 58.8162 152.044C59.109 152.397 59.4017 152.75 59.6945 153.103C57.1629 154.496 54.6314 155.89 51.8625 157.329C51.6294 157.268 51.6337 157.161 51.6378 156.893Z" fill="#5E7E88"/>
<path d="M68.9307 152.491C67.4595 153.211 65.8513 153.774 64.0058 154.365C63.5832 152.988 63.3978 151.582 63.0938 149.968C64.1364 149.757 65.2976 149.754 66.7463 149.757C67.6204 150.62 68.207 151.477 68.9307 152.491Z" fill="#84C1D6"/>
<path d="M60.4029 148.971C57.9123 150.539 55.5544 151.967 53.1964 153.396C52.9634 153.103 52.7303 152.81 52.4973 152.517C54.5421 151.279 56.587 150.04 58.8229 148.692C60.0347 148.314 61.0555 148.044 62.0762 147.775C62.1362 147.94 62.1962 148.105 62.2562 148.271C61.6827 148.458 61.1092 148.646 60.4029 148.971Z" fill="#5E7E88"/>
<path d="M397.13 76.9706C396.327 76.6422 395.802 76.1741 395.387 75.5205C396.134 75.8336 396.771 76.3323 397.13 76.9706Z" fill="#C1E1EA"/>
<path d="M395.612 75.1436C395.242 75.2932 394.964 75.2308 394.755 74.9599C395.117 74.8116 395.411 74.8716 395.612 75.1436Z" fill="#C1E1EA"/>
</g>
<defs>
<filter id="filter0_dd_188_141" x="-14.3" y="0" width="451.6" height="428.3" filterUnits="userSpaceOnUse" color-interpolation-filters="sRGB">
<feFlood flood-opacity="0" result="BackgroundImageFix"/>
<feColorMatrix in="SourceAlpha" type="matrix" values="0 0 0 0 0 0 0 0 0 0 0 0 0 0 0 0 0 0 127 0" result="hardAlpha"/>
<feMorphology radius="4" operator="erode" in="SourceAlpha" result="effect1_dropShadow_188_141"/>
<feOffset dy="4"/>
<feGaussianBlur stdDeviation="2"/>
<feComposite in2="hardAlpha" operator="out"/>
<feColorMatrix type="matrix" values="0 0 0 0 0.0470588 0 0 0 0 0.0470588 0 0 0 0 0.0509804 0 0 0 0.05 0"/>
<feBlend mode="normal" in2="BackgroundImageFix" result="effect1_dropShadow_188_141"/>
<feColorMatrix in="SourceAlpha" type="matrix" values="0 0 0 0 0 0 0 0 0 0 0 0 0 0 0 0 0 0 127 0" result="hardAlpha"/>
<feMorphology radius="8" operator="erode" in="SourceAlpha" result="effect2_dropShadow_188_141"/>
<feOffset dy="45"/>
<feGaussianBlur stdDeviation="9.65"/>
<feColorMatrix type="matrix" values="0 0 0 0 0.0980392 0 0 0 0 0.584314 0 0 0 0 0.701961 0 0 0 0.34 0"/>
<feBlend mode="normal" in2="effect1_dropShadow_188_141" result="effect2_dropShadow_188_141"/>
<feBlend mode="normal" in="SourceGraphic" in2="effect2_dropShadow_188_141" result="shape"/>
</filter>
<clipPath id="clip0_188_141">
<rect width="429" height="372" fill="white" transform="translate(-3)"/>
</clipPath>
</defs>
</svg>
