<svg width="44" height="43" viewBox="0 0 44 43" fill="none" xmlns="http://www.w3.org/2000/svg">
<g filter="url(#filter0_f_601_12076)">
<ellipse cx="21.928" cy="21.4329" rx="7.63515" ry="7.08601" transform="rotate(0.353908 21.928 21.4329)" fill="white"/>
</g>
<path d="M21.1713 28.9485C25.208 28.9735 28.5011 25.6566 28.5265 21.54C28.552 17.4235 25.3001 14.0662 21.2633 14.0412C17.2266 14.0163 13.9335 17.3332 13.9081 21.4497C13.8826 25.5663 17.1345 28.9236 21.1713 28.9485Z" fill="#EFEAD7"/>
<g opacity="0.54">
<path d="M21.2638 14.0411C20.7992 14.0382 20.3446 14.0802 19.9036 14.1619C23.2867 14.8326 25.8307 17.8803 25.8082 21.523C25.7857 25.1658 23.2042 28.1819 19.8131 28.8107C20.2531 28.8979 20.7071 28.9455 21.1717 28.9483C25.2085 28.9733 28.5015 25.6564 28.527 21.5398C28.5524 17.4233 25.3005 14.066 21.2638 14.0411Z" fill="#E5E0CF"/>
</g>
<mask id="mask0_601_12076" style="mask-type:luminance" maskUnits="userSpaceOnUse" x="13" y="14" width="16" height="15">
<path d="M21.1713 28.9485C25.208 28.9735 28.5011 25.6566 28.5265 21.54C28.552 17.4235 25.3001 14.0662 21.2633 14.0412C17.2266 14.0163 13.9335 17.3332 13.9081 21.4497C13.8826 25.5663 17.1345 28.9236 21.1713 28.9485Z" fill="white"/>
</mask>
<g mask="url(#mask0_601_12076)">
<path d="M19.3703 17.8817C19.3129 17.8814 19.2572 17.8885 19.2034 17.9011C19.524 17.98 19.7616 18.2748 19.7595 18.6259C19.7573 18.9768 19.5162 19.2687 19.1945 19.3437C19.248 19.3569 19.3036 19.3648 19.3612 19.3651C19.7629 19.3676 20.0905 19.0376 20.093 18.628C20.0956 18.2182 19.772 17.8842 19.3703 17.8817Z" fill="#DDD8CA"/>
<path d="M19.7593 18.6258C19.7615 18.2748 19.524 17.98 19.2033 17.901C18.8817 17.976 18.6404 18.2678 18.6383 18.6188C18.6361 18.9698 18.8736 19.2646 19.1944 19.3436C19.516 19.2687 19.7572 18.9768 19.7593 18.6258Z" fill="#E5E0CF"/>
<path d="M19.2297 26.5809C19.1913 26.5807 19.1541 26.5855 19.1182 26.5939C19.3324 26.6466 19.4911 26.8435 19.4897 27.078C19.4882 27.3124 19.3272 27.5074 19.1122 27.5575C19.148 27.5663 19.1852 27.5715 19.2236 27.5718C19.4919 27.5734 19.7108 27.3529 19.7125 27.0793C19.7142 26.8058 19.498 26.5826 19.2297 26.5809Z" fill="#DDD8CA"/>
<path d="M19.4895 27.078C19.4909 26.8435 19.3323 26.6466 19.118 26.5939C18.9032 26.644 18.742 26.8389 18.7406 27.0734C18.7391 27.3078 18.8978 27.5048 19.112 27.5575C19.327 27.5074 19.488 27.3125 19.4895 27.078Z" fill="#E5E0CF"/>
<path d="M18.0433 23.7783C17.9626 23.7778 17.8845 23.7878 17.8091 23.8055C18.2591 23.9162 18.5925 24.33 18.5895 24.8226C18.5864 25.3151 18.248 25.7248 17.7966 25.83C17.8718 25.8486 17.9499 25.8596 18.0305 25.8601C18.5942 25.8635 19.0541 25.4004 19.0576 24.8255C19.0611 24.2506 18.607 23.7818 18.0433 23.7783Z" fill="#DDD8CA"/>
<path d="M18.5893 24.8227C18.5924 24.3301 18.259 23.9164 17.809 23.8055C17.3576 23.9107 17.0192 24.3203 17.0161 24.8129C17.0131 25.3055 17.3464 25.7193 17.7965 25.8301C18.2478 25.7248 18.5863 25.3153 18.5893 24.8227Z" fill="#E5E0CF"/>
<path d="M16.6067 18.2245C16.4837 18.2237 16.3646 18.239 16.2497 18.2658C16.9355 18.4347 17.4436 19.0652 17.439 19.8159C17.4343 20.5666 16.9185 21.1907 16.2306 21.3512C16.3452 21.3793 16.4641 21.3962 16.5871 21.397C17.4462 21.4023 18.147 20.6964 18.1524 19.8203C18.1579 18.9443 17.4658 18.2298 16.6067 18.2245Z" fill="#DDD8CA"/>
<path d="M17.4389 19.8159C17.4436 19.0652 16.9355 18.4347 16.2496 18.2658C15.5618 18.4262 15.046 19.0504 15.0413 19.8011C15.0367 20.5518 15.5447 21.1823 16.2306 21.3512C16.9185 21.1908 17.4343 20.5666 17.4389 19.8159Z" fill="#E5E0CF"/>
<path d="M23.919 23.1784C23.7669 23.1774 23.6196 23.1964 23.4775 23.2296C24.3256 23.4384 24.954 24.2182 24.9482 25.1465C24.9425 26.0749 24.3046 26.8468 23.4539 27.0452C23.5956 27.0801 23.7427 27.1009 23.8947 27.1018C24.9571 27.1084 25.8238 26.2354 25.8305 25.152C25.8372 24.0685 24.9814 23.1849 23.919 23.1784Z" fill="#DDD8CA"/>
<path d="M24.9483 25.1464C24.954 24.218 24.3257 23.4382 23.4775 23.2294C22.6268 23.4278 21.9889 24.1998 21.9832 25.1281C21.9774 26.0564 22.6058 26.8362 23.4539 27.0451C24.3046 26.8467 24.9425 26.0747 24.9483 25.1464Z" fill="#E5E0CF"/>
<path d="M24.7116 19.9287C24.6159 19.9281 24.5232 19.94 24.4338 19.9609C24.9676 20.0923 25.3632 20.5832 25.3595 21.1675C25.3559 21.7519 24.9544 22.2378 24.4189 22.3627C24.5081 22.3846 24.6006 22.3977 24.6964 22.3983C25.3651 22.4024 25.9107 21.853 25.9149 21.171C25.9191 20.489 25.3804 19.9328 24.7116 19.9287Z" fill="#DDD8CA"/>
<path d="M25.3596 21.1676C25.3632 20.5833 24.9677 20.0925 24.4338 19.961C23.8983 20.0858 23.4967 20.5717 23.4931 21.1561C23.4895 21.7405 23.885 22.2313 24.4189 22.3628C24.9544 22.2379 25.3559 21.752 25.3596 21.1676Z" fill="#E5E0CF"/>
<path d="M26.9023 21.9468C26.841 21.9465 26.7816 21.9541 26.7243 21.9675C27.0662 22.0517 27.3195 22.3661 27.3172 22.7404C27.3149 23.1147 27.0578 23.4258 26.7148 23.5058C26.7719 23.5199 26.8312 23.5282 26.8925 23.5286C27.3209 23.5313 27.6702 23.1793 27.6729 22.7426C27.6757 22.3057 27.3306 21.9495 26.9023 21.9468Z" fill="#DDD8CA"/>
<path d="M27.3173 22.7404C27.3196 22.3661 27.0664 22.0518 26.7244 21.9675C26.3814 22.0475 26.1242 22.3587 26.1219 22.733C26.1196 23.1073 26.3729 23.4216 26.7149 23.5058C27.0578 23.4259 27.315 23.1147 27.3173 22.7404Z" fill="#E5E0CF"/>
<path d="M26.5996 18.6387C26.5409 18.6384 26.4841 18.6457 26.4292 18.6585C26.7565 18.7391 26.999 19.0401 26.9968 19.3983C26.9946 19.7565 26.7484 20.0545 26.4201 20.131C26.4748 20.1445 26.5315 20.1525 26.5902 20.1529C27.0002 20.1554 27.3347 19.8185 27.3372 19.4004C27.3398 18.9823 27.0096 18.6413 26.5996 18.6387Z" fill="#DDD8CA"/>
<path d="M26.9967 19.3982C26.9989 19.0399 26.7564 18.739 26.429 18.6584C26.1008 18.7349 25.8546 19.0329 25.8524 19.3911C25.8501 19.7493 26.0926 20.0503 26.42 20.1309C26.7482 20.0543 26.9944 19.7564 26.9967 19.3982Z" fill="#E5E0CF"/>
<path d="M18.6966 15.4796C18.6226 15.4791 18.551 15.4884 18.4819 15.5045C18.8944 15.606 19.1999 15.9852 19.1971 16.4367C19.1943 16.8882 18.8841 17.2635 18.4704 17.36C18.5393 17.3769 18.6108 17.3871 18.6848 17.3875C19.2014 17.3907 19.6229 16.9662 19.6262 16.4393C19.6294 15.9124 19.2133 15.4828 18.6966 15.4796Z" fill="#DDD8CA"/>
<path d="M19.1967 16.4367C19.1995 15.9853 18.894 15.6061 18.4815 15.5045C18.0678 15.6009 17.7576 15.9763 17.7549 16.4278C17.7521 16.8793 18.0576 17.2584 18.47 17.36C18.8837 17.2635 19.1939 16.8881 19.1967 16.4367Z" fill="#E5E0CF"/>
</g>
<defs>
<filter id="filter0_f_601_12076" x="0.292877" y="0.346863" width="43.2703" height="42.1721" filterUnits="userSpaceOnUse" color-interpolation-filters="sRGB">
<feFlood flood-opacity="0" result="BackgroundImageFix"/>
<feBlend mode="normal" in="SourceGraphic" in2="BackgroundImageFix" result="shape"/>
<feGaussianBlur stdDeviation="7" result="effect1_foregroundBlur_601_12076"/>
</filter>
</defs>
</svg>
