<svg width="33" height="35" viewBox="0 0 33 35" fill="none" xmlns="http://www.w3.org/2000/svg">
<path d="M11 2.91675H22C24.188 2.91675 26.2865 3.83862 27.8336 5.47956C29.3808 7.12051 30.25 9.3461 30.25 11.6667V23.3334C30.25 25.6541 29.3808 27.8797 27.8336 29.5206C26.2865 31.1615 24.188 32.0834 22 32.0834H11C8.81196 32.0834 6.71354 31.1615 5.16637 29.5206C3.61919 27.8797 2.75 25.6541 2.75 23.3334L2.75 11.6667C2.75 9.3461 3.61919 7.12051 5.16637 5.47956C6.71354 3.83862 8.81196 2.91675 11 2.91675V2.91675ZM19.25 16.0417C18.8853 16.0417 18.5356 16.1954 18.2777 16.4689C18.0199 16.7424 17.875 17.1133 17.875 17.5001C17.875 17.8869 18.0199 18.2578 18.2777 18.5313C18.5356 18.8048 18.8853 18.9584 19.25 18.9584H23.375C23.7397 18.9584 24.0894 18.8048 24.3473 18.5313C24.6051 18.2578 24.75 17.8869 24.75 17.5001C24.75 17.1133 24.6051 16.7424 24.3473 16.4689C24.0894 16.1954 23.7397 16.0417 23.375 16.0417H19.25ZM16.5 21.8751C16.1353 21.8751 15.7856 22.0287 15.5277 22.3022C15.2699 22.5757 15.125 22.9466 15.125 23.3334C15.125 23.7202 15.2699 24.0911 15.5277 24.3646C15.7856 24.6381 16.1353 24.7917 16.5 24.7917H23.375C23.7397 24.7917 24.0894 24.6381 24.3473 24.3646C24.6051 24.0911 24.75 23.7202 24.75 23.3334C24.75 22.9466 24.6051 22.5757 24.3473 22.3022C24.0894 22.0287 23.7397 21.8751 23.375 21.8751H16.5ZM16.5 10.2084C16.1353 10.2084 15.7856 10.3621 15.5277 10.6356C15.2699 10.909 15.125 11.28 15.125 11.6667C15.125 12.0535 15.2699 12.4245 15.5277 12.6979C15.7856 12.9714 16.1353 13.1251 16.5 13.1251H23.375C23.7397 13.1251 24.0894 12.9714 24.3473 12.6979C24.6051 12.4245 24.75 12.0535 24.75 11.6667C24.75 11.28 24.6051 10.909 24.3473 10.6356C24.0894 10.3621 23.7397 10.2084 23.375 10.2084H16.5ZM10.7635 17.8545L9.79138 16.8234C9.66454 16.6841 9.51281 16.573 9.34506 16.4966C9.1773 16.4202 8.99687 16.3799 8.8143 16.3783C8.63173 16.3766 8.45067 16.4135 8.28169 16.4868C8.11271 16.5601 7.95919 16.6684 7.83008 16.8053C7.70098 16.9423 7.59888 17.1051 7.52975 17.2843C7.46061 17.4635 7.42582 17.6556 7.42741 17.8492C7.42899 18.0428 7.46692 18.2342 7.53899 18.4121C7.61105 18.5901 7.7158 18.751 7.84713 18.8855L9.79138 20.9476C9.91908 21.0832 10.0707 21.1907 10.2376 21.2641C10.4046 21.3375 10.5835 21.3753 10.7642 21.3753C10.9449 21.3753 11.1238 21.3375 11.2907 21.2641C11.4577 21.1907 11.6093 21.0832 11.737 20.9476L15.6255 16.8234C15.8837 16.55 16.0289 16.1789 16.0291 15.7919C16.0294 15.405 15.8847 15.0337 15.6269 14.7599C15.3691 14.486 15.0192 14.332 14.6543 14.3318C14.2895 14.3315 13.9394 14.485 13.6813 14.7584L10.7635 17.853V17.8545Z" fill="#455A64"/>
</svg>
