<svg width="25" height="24" viewBox="0 0 25 24" fill="none" xmlns="http://www.w3.org/2000/svg">
<path d="M17.843 6.00001H17.8473H17.843Z" fill="#0C3F4D"/>
<path d="M23.2516 4.5H18.8365L19.269 2.82844L21.127 2.21672C21.5221 2.08688 21.7573 1.68094 21.6434 1.29282C21.6144 1.19518 21.5652 1.10426 21.4987 1.02556C21.4323 0.946861 21.35 0.882029 21.2569 0.834996C21.1638 0.787963 21.0617 0.759709 20.957 0.751948C20.8522 0.744187 20.7469 0.757081 20.6474 0.789847L18.3686 1.53985C18.2459 1.5803 18.1356 1.64985 18.0478 1.74214C17.9601 1.83443 17.8977 1.9465 17.8663 2.06813L17.2374 4.5H10.8828C10.4653 4.5 10.107 4.81032 10.0862 5.21391C10.0811 5.31532 10.0974 5.41666 10.134 5.5118C10.1707 5.60694 10.227 5.69389 10.2994 5.76739C10.3718 5.84089 10.459 5.8994 10.5555 5.93939C10.652 5.97937 10.7559 5.99999 10.861 6H10.9943L11.0428 6.40594C11.0542 6.50074 11.1013 6.58817 11.175 6.65161C11.2488 6.71505 11.3441 6.75007 11.4428 6.75C13.3338 6.75 15.0143 7.26094 16.2972 8.2275C17.0108 8.75906 17.5893 9.44128 17.9885 10.222C18.2119 10.6612 18.3768 11.126 18.4791 11.6053C18.4995 11.6987 18.5567 11.7808 18.6387 11.8341C19.2982 12.2667 19.7848 12.9046 20.0175 13.6416C20.2502 14.3786 20.215 15.1705 19.9177 15.8855C19.8832 15.9682 19.8806 16.0602 19.9105 16.1447C20.0822 16.6206 20.1701 17.121 20.1703 17.625C20.1703 18.6722 19.8018 19.6702 19.1327 20.4352C18.7534 20.8718 18.2762 21.2191 17.7373 21.4509C17.6441 21.4907 17.5707 21.5642 17.5332 21.6558C17.3318 22.1629 17.0474 22.6355 16.691 23.0555C16.6761 23.0725 16.6666 23.0933 16.6636 23.1154C16.6605 23.1374 16.664 23.1599 16.6737 23.1801C16.6833 23.2003 16.6988 23.2175 16.7181 23.2295C16.7375 23.2416 16.76 23.248 16.7831 23.2481H19.1691C19.7533 23.2458 20.3154 23.0322 20.7448 22.6492C21.1742 22.2663 21.4397 21.7418 21.4892 21.1791L23.1474 6H23.2735C23.3786 6.00012 23.4826 5.97959 23.5792 5.93966C23.6759 5.89974 23.7631 5.84124 23.8357 5.76773C23.9082 5.69422 23.9645 5.60722 24.0013 5.51202C24.038 5.41682 24.0543 5.31539 24.0492 5.21391C24.0289 4.81032 23.6691 4.5 23.2516 4.5Z" fill="#0C3F4D"/>
<path d="M5.26998 15C5.42299 14.9993 5.57462 15.028 5.7161 15.0843C5.85758 15.1406 5.98611 15.2235 6.09425 15.3281L6.84627 16.0552C6.86428 16.0726 6.88567 16.0864 6.90922 16.0959C6.93276 16.1053 6.958 16.1102 6.98349 16.1102C7.00897 16.1102 7.03421 16.1053 7.05776 16.0959C7.0813 16.0864 7.10269 16.0726 7.1207 16.0552L7.87127 15.3281C7.97941 15.2235 8.10793 15.1406 8.24942 15.0843C8.3909 15.028 8.54253 14.9993 8.69554 15H18.227C18.2779 15.0005 18.3285 14.9913 18.3757 14.9729C18.423 14.9545 18.466 14.9273 18.5024 14.8928C18.5388 14.8584 18.5678 14.8173 18.5877 14.772C18.6077 14.7267 18.6182 14.678 18.6188 14.6288V14.625C18.6182 14.1929 18.4636 13.7742 18.181 13.4395C17.8983 13.1048 17.505 12.8745 17.0672 12.7875C17.0274 11.3958 16.4369 10.2309 15.3454 9.41251C14.336 8.65126 12.9871 8.25001 11.4428 8.25001H7.95176C4.64402 8.25001 2.40347 10.0674 2.32734 12.7875C1.88957 12.8745 1.49621 13.1048 1.21358 13.4395C0.930948 13.7742 0.776328 14.1929 0.775782 14.625C0.775782 14.7245 0.816649 14.8198 0.889392 14.8902C0.962136 14.9605 1.0608 15 1.16367 15H5.26998Z" fill="#0C3F4D"/>
<path d="M9.01555 16.5C8.9646 16.5 8.91413 16.5096 8.86705 16.5285C8.81996 16.5473 8.77717 16.5749 8.74112 16.6097L7.66763 17.648C7.48578 17.8237 7.23917 17.9225 6.98203 17.9225C6.7249 17.9225 6.47829 17.8237 6.29644 17.648L5.22295 16.6097C5.1869 16.5749 5.14411 16.5473 5.09702 16.5285C5.04993 16.5096 4.99947 16.5 4.94852 16.5H1.58356C1.40133 16.4992 1.22468 16.5608 1.08484 16.6737C0.945007 16.7867 0.850992 16.9438 0.81942 17.1174C0.790291 17.2851 0.775694 17.4549 0.775782 17.625C0.775782 19.0589 1.8003 20.227 3.06725 20.25C3.18507 20.9588 3.47017 21.5991 3.89927 22.1002C4.53396 22.8413 5.45665 23.25 6.49717 23.25H12.8974C13.9379 23.25 14.8606 22.8413 15.4953 22.0992C15.9244 21.5981 16.2095 20.9578 16.3273 20.2491C17.5942 20.227 18.6188 19.0589 18.6188 17.6241C18.6188 17.454 18.6042 17.2842 18.5751 17.1164C18.5433 16.9431 18.4492 16.7862 18.3094 16.6734C18.1696 16.5606 17.9931 16.4992 17.811 16.5H9.01555Z" fill="#0C3F4D"/>
</svg>
